<?xml version="1.0" encoding="utf-8"?>
<!-- Generator: Adobe Illustrator 25.1.0, SVG Export Plug-In . SVG Version: 6.00 Build 0)  -->
<svg version="1.1" id="Layer_1" xmlns="http://www.w3.org/2000/svg" xmlns:xlink="http://www.w3.org/1999/xlink" x="0px" y="0px"
	 viewBox="0 0 1920 1080" style="enable-background:new 0 0 1920 1080;" xml:space="preserve">
<style type="text/css">
	.st0{fill:#FFFFFF;}
	.st1{fill:#004B47;}
	.st2{display:none;opacity:0.7;}
	.st3{display:inline;}
</style>
<rect class="st0" width="1920" height="1080"/>
<g>
	<g>
		<g>
			<path class="st1" d="M1920,484.1v454.2c-3.7-0.4-7.4-1-11-1.7c-0.3-0.1-0.6-0.1-1-0.2c-3-0.6-5.9-1.4-8.9-2.2
				c-0.3-0.1-0.6-0.2-1-0.3c-5.5-1.6-11-3.7-16.3-6.1c-0.3-0.1-0.6-0.3-0.9-0.4c-0.8-0.4-1.6-0.7-2.3-1.1c-2.1-1-4.1-2.1-6-3.2
				c-0.3-0.2-0.6-0.3-0.9-0.5c-2.4-1.5-4.8-3-6.9-4.7c-0.3-0.2-0.6-0.4-0.9-0.7c-4.3-3.3-8.2-7-11.6-11.1c-0.4-0.4-0.7-0.9-1.1-1.3
				c-1-1.2-2-2.5-2.9-3.8c-0.3-0.4-0.5-0.7-0.8-1.1c-2.5-3.5-4.6-7.3-6.6-11.2c-0.2-0.5-0.5-0.9-0.7-1.4c-3.3-7-5.8-14.7-7.8-22.8
				c-5.2-22-6.5-96.4-8.3-129.7c-0.1-1.2-0.1-2.3-0.2-3.4l0,0c-0.2-3.6-0.4-6.5-0.6-8.7c-1.1-11-4.8-20.9-10.5-29.5
				c-0.3-0.4-0.6-0.8-0.9-1.2c-3.1-4.5-6.9-8.6-11.1-12.3c-0.2-0.2-0.4-0.3-0.6-0.5c-1.5-1.3-3.1-2.6-4.8-3.8c-1.4-1-2.7-2-4.1-2.9
				c-0.3-0.2-0.6-0.4-0.9-0.6c-2.7-1.9-5.5-3.8-8.2-5.6c-0.9-0.6-1.7-1.1-2.6-1.7c-1.7-1.1-3.4-2.2-5.1-3.3
				c-0.3-0.2-0.6-0.4-0.9-0.6c-5.1-3.2-10.3-6.4-15.4-9.6c-0.3-0.2-0.6-0.4-0.9-0.6c-2.5-1.6-5-3.1-7.5-4.7
				c-0.2-0.1-0.4-0.3-0.6-0.4c-0.3-0.2-0.6-0.4-0.9-0.6c-2.3-1.5-4.7-2.9-7-4.4c-0.3-0.2-0.6-0.4-0.9-0.5c-3-1.9-6.1-3.7-9.1-5.6
				c-0.3-0.2-0.6-0.4-0.9-0.6c-0.8-0.5-1.7-1-2.5-1.5c-1-0.6-1.9-1.2-2.9-1.8c-3.6-2.2-7.2-4.4-10.7-6.7c-0.3-0.2-0.6-0.4-0.9-0.6
				c-5.5-3.5-10.9-7.1-16.1-10.9c-6-4.3-11.1-9.3-15.2-15.2c-0.2-0.3-0.4-0.6-0.6-0.9c-4.4-6.6-7.4-14.2-8.7-22.7
				c-0.2-1.6-0.4-3.2-0.5-4.7c0-0.3,0-0.7-0.1-1c-0.4-7.2,0.6-14.3,2.7-21.2c0.1-0.3,0.2-0.6,0.3-1c0.4-1.2,0.8-2.3,1.2-3.5
				c0.9-2.3,1.8-4.6,2.7-6.9c0.8-1.8,1.6-3.6,2.4-5.3c8.4-17.8,20.2-32.6,37.9-42.3c0.4-0.2,0.9-0.5,1.3-0.7c1.9-1,3.8-1.9,5.8-2.8
				c3.3-1.4,6.7-2.7,10.1-3.7c0.6-0.2,1.2-0.4,1.9-0.6c12.3-3.5,25-4.7,37.8-3.9c1.1,0.1,2.1,0.1,3.2,0.2c0.3,0,0.7,0,1,0.1
				c3.5,0.2,7.1,0.5,10.7,0.7c1,0.1,2.1,0.1,3.1,0.2c13.5,1,27,2.2,40.5,3.6c0.3,0,0.7,0.1,1,0.1c1.9,0.2,3.7,0.4,5.6,0.6
				c8,0.8,15.9,1.6,23.9,2.3c0.3,0,0.7,0,1,0.1c2.7,0.2,5.3,0.4,8,0.6c0.3,0,0.7,0,1,0.1c0.1,0,0.1,0,0.2,0c1.7,0.1,3.4,0.2,5.2,0.3
				C1893.9,485.5,1906.9,485.4,1920,484.1z"/>
		</g>
	</g>
	<g class="st2">
		<g class="st3">
			<g>
				<g>
					<g>
						<path class="st0" d="M1692.5,452.7l10.8-2.8l-7.7-30.3l-12,3.1c-5.3,1.3-10.5,2.7-15.8,4l-2.5,0.7l4.6,18l-18.5,4.7l2,8l0,0
							l5.8,22.7l30.3-7.7l-2.8-10.8l-19.5,5l-1.9-7.6l-0.1-0.4l19.5-5l-0.1-0.5l0,0l-4.7-18.5l7.6-2L1692.5,452.7z M1683.5,453
							L1683.5,453l0.1,0.5l-19.5,5l0.1,0.4l2.4,9.6l19.5-5l2.3,8.9l-28.4,7.2l-5.3-20.8l0,0l-2-8l18.5-4.7l-4.6-18l1.6-0.4
							c5.3-1.3,10.5-2.7,15.8-4l11-2.8l7.2,28.4l-8.9,2.3l-5-19.5l-9.6,2.4L1683.5,453z"/>
					</g>
				</g>
				<g>
					<g>
						<path class="st0" d="M1753.3,483.3l-5,19.5l-7.6-1.9l4.8-19l-6.9-1.8l-12.6-3.2l2-8.1l19.5,5l2.8-10.8l-30.3-7.7l-7.8,30.7
							l7.3,1.9l11.2,2.8l-1.8,7.2l-2.8,10.8l2.5,0.6c5.3,1.4,10.6,2.7,15.9,4.1l11.8,3l7.7-30.3L1753.3,483.3z M1755.7,515.1
							l-10.9-2.8c-5.3-1.4-10.6-2.7-15.9-4.1l-1.6-0.4l2.2-8.9l0,0l2.3-9.1l-11.1-2.8l-7.4-1.9l7.3-28.8l28.4,7.2l-2.3,8.9l-19.5-5
							l-2.5,10l11.9,3l7.6,1.9l-4.8,19l9.6,2.4l4.9-19.5l8.9,2.3L1755.7,515.1z"/>
					</g>
				</g>
				<g>
					<g>
						<path class="st0" d="M1814,452.7l10.8-2.8l-7.7-30.3l-12.1,3.1c-5.2,1.3-10.5,2.7-15.7,4l-2.5,0.7l4.6,18L1773,450l2,8l0,0
							l4.6,18.2l1.1,4.5l13.7-3.5l16.6-4.2l-2.8-10.8l-19.5,5l-1.9-7.6l-0.1-0.4l19.5-5l-0.1-0.5l-4.7-18.5l7.6-2L1814,452.7z
							 M1804.9,453L1804.9,453l0.1,0.5l-19.5,5l0.1,0.4l2.4,9.6l19.5-5l2.3,8.9l-18.6,4.7l-9.8,2.5l-0.8-3.2l-4.5-17.6l0,0l-2-8
							l18.5-4.7l-4.6-18l1.6-0.4c5.2-1.3,10.5-2.7,15.7-4l11.1-2.8l7.2,28.4l-8.9,2.3l-5-19.5l-9.6,2.4L1804.9,453z"/>
					</g>
				</g>
				<g>
					<g>
						<path class="st0" d="M1880.8,484.8l-6.1-1.5l-0.3,1.2l-4.7,18.3l-7.6-1.9l4.3-16.9l0.5-2.1l-19.5-5l2.1-8.1l19.5,5l2.8-10.8
							l-30.3-7.7L1835,481l-1.3,5l18.5,4.7l-1.8,7.2l-2.8,10.8l2.5,0.6c5.2,1.3,10.4,2.7,15.6,4l12.2,3.1l7.7-30.3L1880.8,484.8z
							 M1877.1,515.1l-11.2-2.9c-5.2-1.3-10.4-2.6-15.6-4l-1.6-0.4l2.2-8.9l0,0l2.3-9.1l-18.5-4.7l1.1-4.2l6.2-24.6l28.4,7.2
							l-2.3,8.9l-19.5-5l-2.5,10l19.5,5l-0.3,1.3l-4.5,17.7l9.6,2.4l4.9-19.5l0,0h0.2l8.7,2.2L1877.1,515.1z"/>
					</g>
				</g>
				<g>
					<g>
						<path class="st0" d="M1692.5,518.9l-4.9,19.5l-7.6-1.9l1.6-6.4l3-11.7l0.1-0.5l0.1-0.5l-19.5-5l2-8.1l19.5,5l2.8-10.8
							l-30.3-7.7l-7.8,30.7l18.5,4.7l-1.8,7.2l0,0l-2.8,10.8l2.5,0.6c2.4,0.6,4.7,1.2,7.1,1.8c2.7,0.7,5.4,1.4,8.1,2.1l12.6,3.2
							l7.7-30.3L1692.5,518.9z M1694.9,550.7l-11.6-3c-2.7-0.7-5.4-1.4-8.1-2.1c-2.4-0.6-4.8-1.2-7.1-1.8l-1.6-0.4l2.2-8.9l0,0
							l2.3-9.1l-18.5-4.7l7.3-28.8l28.4,7.2l-2.3,8.9l-19.5-5l-2.5,10l19.5,5l-4.4,17.3l-0.4,1.7l9.6,2.4l5-19.5l8.9,2.3
							L1694.9,550.7z"/>
					</g>
				</g>
				<g>
					<g>
						<path class="st0" d="M1753.3,559.4l10.8-2.8l-7.7-30.3l-11.8,3c-5.3,1.4-10.7,2.7-16,4.1l-2.5,0.6l4.6,18l-18.5,4.7l2,8l0,0
							l5.8,22.7l30.3-7.7l-2.8-10.8l-19.5,5l-1.9-7.5l0,0l-0.1-0.5l19.5-5l-0.1-0.5l0,0l-4.7-18.5l7.6-1.9L1753.3,559.4z
							 M1744.2,559.7L1744.2,559.7l0.1,0.5l-19.5,5l0.1,0.3l2.5,9.7l19.5-5l2.3,8.9l-28.4,7.2l-5.3-20.8l0,0l-2-8l18.5-4.7l-4.6-18
							l1.6-0.4c5.3-1.4,10.7-2.7,16-4.1l10.8-2.8l7.2,28.4l-8.9,2.3l-4.9-19.5l-9.6,2.4L1744.2,559.7z"/>
					</g>
				</g>
				<g>
					<g>
						<path class="st0" d="M1814,518.9l-4.9,19.5l-7.6-1.9l4.6-18.1l0.1-0.5l0.1-0.5l-19.5-5l2-8.1l19.5,5l2.8-10.8l-30.3-7.7
							l-7.8,30.7l18.5,4.7l-1.8,7.2l0,0l-2.8,10.8l2.5,0.6c5,1.3,10.1,2.6,15.1,3.9l12.6,3.2l7.7-30.3L1814,518.9z M1816.4,550.7
							l-11.7-3c-5-1.3-10.1-2.6-15.1-3.9l-1.6-0.4l2.2-8.9l2.3-9.2l-18.5-4.7l7.3-28.8l28.4,7.2l-2.3,8.9l-19.5-5l-2.5,10l19.5,5
							l-4.8,19.1l9.6,2.4l5-19.5l8.9,2.3L1816.4,550.7z"/>
					</g>
				</g>
				<g>
					<g>
						<path class="st0" d="M1874.8,559.4l10.8-2.8l-7.7-30.3l-12.1,3.1c-5.2,1.3-10.5,2.7-15.7,4l-2.5,0.6l4.6,18l-18.5,4.7l2,8l0,0
							l5.8,22.7l30.3-7.7l-2.8-10.8l-19.5,5l-1.9-7.5l-0.1-0.5l19.5-5l-0.1-0.5l0,0l-4.7-18.5l7.6-1.9L1874.8,559.4z M1865.7,559.7
							L1865.7,559.7l0.1,0.5l-19.5,5l0.1,0.3l0,0l2.5,9.7l19.5-5l2.3,8.9l-28.4,7.2l-5.3-20.8l0,0l-2-8l18.5-4.7l-4.6-18l1.6-0.4
							c5.2-1.3,10.5-2.7,15.7-4l11.1-2.8l7.2,28.4l-8.9,2.3l-4.9-19.5l-9.6,2.4L1865.7,559.7z"/>
					</g>
				</g>
				<g>
					<g>
						<path class="st0" d="M1920,496.3v-1l-17.8-4.5l-7.8,30.7l18.5,4.7l-1.8,7.2l0,0l-2.8,10.8l2.5,0.6c3,0.8,6.1,1.5,9.2,2.3v-1
							c-3-0.8-5.9-1.5-8.9-2.3l-1.6-0.4l2.2-8.9l2.3-9.2l-18.5-4.7l7.3-28.8L1920,496.3z M1920,506.8v-1l-10.4-2.7l-2.5,10l13,3.3
							v-1l-11.8-3l2-8.1L1920,506.8z"/>
					</g>
				</g>
				<g>
					<g>
						<path class="st0" d="M1692.5,595l10.8-2.8l-7.7-30.3l-12.6,3.2c-3.6,0.9-7.2,1.8-10.8,2.8c-1.5,0.4-2.9,0.8-4.4,1.1l-2.5,0.7
							l4.6,18l-18.5,4.7l2,8l0,0l5.8,22.7l30.3-7.7l-2.8-10.8l-19.5,5l-1.9-7.5l-0.1-0.5l16.9-4.3l2.6-0.7l-0.1-0.5l0,0l-4.7-18.5
							l7.6-2L1692.5,595z M1683.5,595.3L1683.5,595.3l0.1,0.5l-2,0.5l-17.5,4.5l0.1,0.3l0,0l2.5,9.7l19.5-5l2.3,8.9l-28.4,7.2
							l-5.3-20.8l0,0l-2-8l18.5-4.7l-4.6-18l1.6-0.4c1.4-0.4,2.8-0.7,4.2-1.1c3.7-0.9,7.3-1.9,11-2.8l11.6-3l7.2,28.4l-8.9,2.3
							l-5-19.5l-9.6,2.4L1683.5,595.3z"/>
					</g>
				</g>
				<g>
					<g>
						<path class="st0" d="M1753.3,625.6l-4.9,19.3v0.2l-7.6-1.9l0.7-2.7l3.9-15.4l0.1-0.5l0.1-0.5l-19.5-5l2-8.1l19.5,5l2.8-10.8
							l-30.3-7.7l-6.5,25.7l-1.3,5l15.8,4l2.7,0.7l-0.2,0.8l-1.6,6.3l-2.8,10.8l2.5,0.6c5.2,1.3,10.5,2.7,15.7,4l12.1,3.1l1.9-7.6
							l5.8-22.7L1753.3,625.6z M1757.4,650.6l-1.8,6.9l-11.1-2.8c-5.2-1.3-10.5-2.7-15.7-4l-1.6-0.4l2.2-8.9l0,0l1.8-7l0.5-2.1
							l-6.8-1.7l-11.7-3l1-3.8l6.3-25l28.4,7.2l-2.3,8.9l-19.5-5l-2.5,10l19.5,5l-3.8,15.1l-1,3.9l9.6,2.4l0.2-0.9l4.7-18.6l8.9,2.3
							L1757.4,650.6z"/>
					</g>
				</g>
				<g>
					<g>
						<path class="st0" d="M1814,595l10.8-2.8l-7.7-30.3l-12.6,3.2c-5.1,1.3-10.1,2.6-15.1,3.9l-2.5,0.7l4.6,18l-18.5,4.7l2,8l0,0
							l5.8,22.7l30.3-7.7l-2.8-10.8l-19.5,5l-1.9-7.5l0,0l-0.1-0.5l19.5-5l-0.1-0.5l-4.7-18.5l7.6-2L1814,595z M1804.9,595.3
							L1804.9,595.3l0.1,0.5l-19.5,5l0.1,0.3l2.5,9.7l19.5-5l2.3,8.9l-28.4,7.2l-5.3-20.8l0,0l-2-8l18.5-4.7l-4.6-18l1.6-0.4
							c5-1.3,10.1-2.6,15.1-3.9l11.7-3l7.2,28.4l-8.9,2.3l-5-19.5l-9.6,2.4L1804.9,595.3z"/>
					</g>
				</g>
				<g>
					<g>
						<path class="st0" d="M1874.8,625.6l-5,19.5l-7.6-1.9l4.6-18l0.1-0.5l0.1-0.5l-19.5-5l2.1-8.1l19.5,5l2.8-10.8l-30.3-7.7
							l-7.8,30.7l18.5,4.7l-1.8,7.2l-2.8,10.8l2.5,0.6c5.1,1.3,10.3,2.6,15.4,3.9l12.3,3.2l7.7-30.3L1874.8,625.6z M1877.1,657.5
							l-11.4-2.9c-5.1-1.3-10.3-2.6-15.4-3.9l-1.6-0.4l2.2-8.9l0,0l2.3-9.2l-18.5-4.7l7.3-28.8l28.4,7.2l-2.3,8.9l-19.5-5l-2.5,10
							l19.5,5l-4.8,19l9.6,2.4l4.9-19.5l8.9,2.3L1877.1,657.5z"/>
					</g>
				</g>
				<g>
					<g>
						<path class="st0" d="M1920,567.7v-1c-3.1,0.8-6.1,1.6-9.2,2.3l-2.5,0.7l4.6,18l-18.5,4.7l2,8l0,0l5.8,22.7l17.8-4.5v-1
							l-17.1,4.3l-5.3-20.8l0,0l-2-8l18.5-4.7l-4.6-18l1.6-0.4C1914.1,569.2,1917,568.5,1920,567.7z M1920,597.5l-13,3.3l0.1,0.3
							l2.5,9.7l10.4-2.7v-1l-9.7,2.5l-1.9-7.5l0,0l-0.1-0.5l11.8-3v-1.1H1920z"/>
					</g>
				</g>
				<g>
					<g>
						<path class="st0" d="M1692.5,661.2l-4.9,19.5l-7.6-2l4.8-19l-19.5-5l2-8.1l19.5,5l2.8-10.8l-30.3-7.7l-7.8,30.7l18.5,4.7
							l-1.8,7.2l0,0l-2.8,10.8l2.5,0.7c5.1,1.3,10.1,2.6,15.2,3.9l12.6,3.2l7.7-30.3L1692.5,661.2z M1694.9,693.1l-11.6-3
							c-5.1-1.3-10.1-2.6-15.2-3.9l-1.6-0.4l2.2-8.9l0,0l2.3-9.1l-18.5-4.7l7.3-28.8l28.4,7.2l-2.3,8.9l-19.5-5l-2.5,10l19.5,5
							l-4.8,19.1l9.6,2.4l5-19.5l8.9,2.3L1694.9,693.1z"/>
					</g>
				</g>
				<g>
					<g>
						<path class="st0" d="M1753.3,701.8l10.8-2.8l-7.7-30.3l-12.3,3.2c-5.1,1.3-10.3,2.6-15.4,3.9l-2.5,0.6l4.6,18l-18.5,4.7l2,8
							l0,0l5.8,22.7l30.3-7.7l-2.8-10.8l-19.5,5l-1.9-7.5l0,0l-0.1-0.5l19.5-5l-0.1-0.5l0,0l-4.7-18.5l7.6-1.9L1753.3,701.8z
							 M1744.2,702.1L1744.2,702.1l0.1,0.5l-19.5,5l0.1,0.3l2.5,9.7l19.5-5l2.3,8.9l-28.4,7.2l-5.3-20.8l0,0l-2-8l18.5-4.7l-4.6-18
							l1.6-0.4c5.1-1.3,10.3-2.6,15.4-3.9l11.3-2.9l7.2,28.4l-8.9,2.3l-4.9-19.5l-9.6,2.4L1744.2,702.1z"/>
					</g>
				</g>
				<g>
					<g>
						<path class="st0" d="M1814,661.2l-4.9,19.5l-7.6-2l4.8-19l-19.5-5l2-8.1l19.5,5l2.8-10.8l-30.3-7.7l-7,27.6l-0.8,3.1l9.4,2.4
							l9.1,2.3l-0.8,3.3l-1,3.9l0,0l-2.8,10.8l2.5,0.7c5,1.3,10.1,2.6,15.1,3.9l8.3,2.1l4.3,1.1l7.7-30.3L1814,661.2z M1816.4,693.1
							l-4.4-1.1l-7.2-1.8c-5-1.3-10.1-2.6-15.1-3.9l-1.6-0.4l2.2-8.9l1.1-4.5l1.2-4.6l-12.9-3.3l-5.6-1.4l0.5-1.8l6.8-27l28.4,7.2
							l-2.3,8.9l-19.5-5l-2.5,10l19.5,5l-4.8,18.7l-0.1,0.3l0.7,0.2l8.9,2.3l5-19.5l8.9,2.3L1816.4,693.1z"/>
					</g>
				</g>
				<g>
					<g>
						<path class="st0" d="M1874.8,701.8l10.8-2.8l-7.7-30.3l-12.6,3.2c-5,1.3-10.1,2.6-15.1,3.9l-2.5,0.6l4.6,18l-18.5,4.7l2,8l0,0
							l5.8,22.7l30.3-7.7l-2.8-10.8l-19.5,5l-1.9-7.5l-0.1-0.5l19.5-5l-0.1-0.5l0,0l-4.7-18.5l7.6-1.9L1874.8,701.8z M1865.7,702.1
							L1865.7,702.1l0.1,0.5l-19.5,5l0.1,0.3l0,0l2.5,9.7l19.5-5l2.3,8.9l-28.4,7.2l-5.3-20.8l0,0l-2-8l18.5-4.7l-4.6-18l1.6-0.4
							c5-1.3,10.1-2.6,15.1-3.9l11.7-3l7.2,28.4l-8.9,2.3l-4.9-19.5l-9.6,2.4L1865.7,702.1z"/>
					</g>
				</g>
				<g>
					<g>
						<path class="st0" d="M1920,638.7v-1l-17.8-4.5l-7.8,30.7l18.5,4.7l-1.8,7.2l0,0l-2.8,10.8l2.5,0.7c3,0.8,6.1,1.5,9.2,2.3v-1
							c-3-0.8-5.9-1.5-8.9-2.3l-1.6-0.4l2.2-8.9l2.3-9.2l-18.5-4.7l7.3-28.8L1920,638.7z M1920,649.2v-1l-10.4-2.7l-2.5,10l13,3.3
							v-1l-11.8-3l2-8.1L1920,649.2z"/>
					</g>
				</g>
				<g>
					<g>
						<path class="st0" d="M1692.5,737.4l10.8-2.8l-7.7-30.3l-12.6,3.2c-5.1,1.3-10.1,2.6-15.2,3.9l-2.5,0.6l4.6,18l-18.5,4.7l2,8
							l0,0l5.8,22.7l30.3-7.7l-2.8-10.8l-19.5,5l-1.9-7.5l-0.1-0.5l19.5-5l-0.1-0.5l0,0l-4.7-18.5l7.6-1.9L1692.5,737.4z
							 M1683.5,737.7L1683.5,737.7l0.1,0.5l-19.5,5l0.1,0.3l0,0l2.5,9.7l19.5-5l2.3,8.9l-28.4,7.2l-5.3-20.8l0,0l-2-8l18.5-4.7
							l-4.6-18l1.6-0.4c5.1-1.3,10.1-2.6,15.2-3.9l11.6-3l7.2,28.4l-8.9,2.3l-5-19.5l-9.6,2.4L1683.5,737.7z"/>
					</g>
				</g>
				<g>
					<g>
						<path class="st0" d="M1753.3,768l-5,19.5l-7.6-1.9l4.6-18l0.1-0.5l0.1-0.5l-19.5-5l2-8.1l19.5,5l2.8-10.8L1720,740l-7.8,30.7
							l18.5,4.7l-1.8,7.2l-2.8,10.8l2.5,0.6c5.2,1.3,10.5,2.7,15.7,4l12.1,3.1l7.7-30.3L1753.3,768z M1755.7,799.9l-11.1-2.8
							c-5.2-1.3-10.5-2.7-15.7-4l-1.6-0.4l2.2-8.9l0,0l2.3-9.2l-18.5-4.7l7.3-28.8l28.4,7.2l-2.3,8.9l-19.5-5l-2.5,10l19.5,5
							l-4.8,19l9.6,2.4l4.9-19.5l8.9,2.2L1755.7,799.9z"/>
					</g>
				</g>
				<g>
					<g>
						<path class="st0" d="M1824,731.4L1824,731.4l-6.9-27.1l-12.6,3.2c-5.1,1.3-10.1,2.6-15.1,3.9l-2.5,0.6l4.6,18l-18.5,4.7l2,8
							l0,0l5.8,22.7l30.3-7.7l-2.8-10.8l-19.5,5l-1.9-7.5l0,0l-0.1-0.5l19.5-5l-0.1-0.5l-4.7-18.5l7.6-1.9l4.9,19.5l10.2-2.6
							l0.6-0.2L1824,731.4z M1814.7,736.2l-5-19.5l-9.6,2.4l4.7,18.5l0,0l0.1,0.5l-19.5,5l0.1,0.3l2.5,9.7l19.5-5l2.3,8.9l-28.4,7.2
							l-5.3-20.8l0,0l-2-8l18.5-4.7l-4.6-18l1.6-0.4c5-1.3,10.1-2.6,15.1-3.9l11.7-3l7.2,28.4L1814.7,736.2z"/>
					</g>
				</g>
				<g>
					<g>
						<path class="st0" d="M1874.8,768l-5,19.5l-7.6-1.9l4.6-18l0.1-0.5l0.1-0.5l-19.5-5l2.1-8.1l19.5,5l2.8-10.8l-30.3-7.7
							l-7.8,30.7l18.5,4.7l-1.8,7.2l-2.8,10.8l2.5,0.6c5.1,1.3,10.3,2.6,15.4,3.9l12.3,3.1l7.7-30.3L1874.8,768z M1877.1,799.9
							l-11.4-2.9c-5.1-1.3-10.3-2.6-15.4-3.9l-1.6-0.4l2.2-8.9l0,0l2.3-9.2l-18.5-4.7l7.3-28.8l28.4,7.2l-2.3,8.9l-19.5-5l-2.5,10
							l19.5,5l-4.8,19l9.6,2.4l4.9-19.5l8.9,2.2L1877.1,799.9z"/>
					</g>
				</g>
				<g>
					<g>
						<path class="st0" d="M1910.8,711.4l-2.5,0.6l4.6,18l-18.5,4.7l2,8l0,0l5.8,22.7l17.8-4.5v-1l-17.1,4.3l-5.3-20.8l0,0l-2-8
							l18.5-4.7l-4.6-18l1.6-0.4c3-0.8,5.9-1.5,8.9-2.3v-1C1916.9,709.8,1913.9,710.6,1910.8,711.4z M1907.1,743.4l2.5,9.7l10.4-2.7
							v-1l-9.7,2.5l-1.9-7.5l0,0l-0.1-0.5l11.8-3v-1l-13,3.3L1907.1,743.4z"/>
					</g>
				</g>
				<g>
					<g>
						<path class="st0" d="M1692.5,803.6l-4.9,19.5l-7.6-1.9l4.6-18l0.1-0.5l0.1-0.5l-19.5-5l2-8.1l19.5,5l2.8-10.8l-30.3-7.7
							l-7.8,30.7l18.5,4.7l-1.8,7.3l0,0l-2.7,10.8l2.5,0.7c5.1,1.3,10.1,2.6,15.2,3.9l12.6,3.2l7.7-30.3L1692.5,803.6z
							 M1694.9,835.5l-11.6-3c-5.1-1.3-10.1-2.6-15.2-3.9l-1.6-0.4l2.3-8.9l2.3-9.1l-18.5-4.7l7.3-28.8l28.4,7.2l-2.3,8.9l-19.5-5
							l-2.5,10l19.5,5l-4.8,19l9.6,2.4l5-19.5l8.9,2.3L1694.9,835.5z"/>
					</g>
				</g>
				<g>
					<g>
						<path class="st0" d="M1753.3,844.2l10.8-2.8l-7.7-30.3l-12.3,3.2c-5.1,1.3-10.3,2.6-15.4,3.9l-2.5,0.6l4.6,18l-18.5,4.7l2,8
							l0,0l5.8,22.7l30.3-7.7l-2.8-10.8l-19.5,5l-1.9-7.5l0,0l-0.1-0.6l19.5-5l-0.1-0.5l0,0l-4.7-18.5l7.6-1.9L1753.3,844.2z
							 M1744.2,844.5L1744.2,844.5l0.1,0.5l-19.5,5l0.1,0.3l2.5,9.7l19.5-5l2.3,8.9l-28.4,7.2l-5.3-20.8l0,0l-2-8l18.5-4.7l-4.6-18
							l1.6-0.4c5.1-1.3,10.3-2.6,15.4-3.9l11.3-2.9l7.2,28.4l-8.9,2.2l-4.9-19.5l-9.6,2.4L1744.2,844.5z"/>
					</g>
				</g>
				<g>
					<g>
						<path class="st0" d="M1814,803.6l-4.9,19.5l-7.6-1.9l4.6-18l0.1-0.5l0.1-0.5l-19.5-5l2-8.1l19.5,5l2.8-10.8l-30.3-7.7
							l-7.8,30.7l18.5,4.7l-1.8,7.2L1787,829l2.5,0.7c5,1.3,10.1,2.6,15.1,3.9l12.6,3.2l7.7-30.3L1814,803.6z M1816.4,835.5l-11.7-3
							c-5-1.3-10.1-2.6-15.1-3.9l-1.6-0.4l2.3-8.9l0,0l2.3-9.1l-18.5-4.7l7.3-28.8l28.4,7.2l-2.3,8.9l-19.5-5l-2.5,10l19.5,5
							l-4.8,19l9.6,2.4l5-19.5l8.9,2.3L1816.4,835.5z"/>
					</g>
				</g>
				<g>
					<g>
						<path class="st0" d="M1874.8,844.2l10.8-2.8l-7.7-30.3l-12.6,3.2c-5,1.3-10.1,2.6-15.1,3.9l-2.5,0.6l4.6,18l-18.5,4.7l2,8l0,0
							l5.8,22.7l30.3-7.7l-2.8-10.8l-19.5,5l-1.9-7.5l-0.1-0.6l19.5-5l-0.1-0.5l0,0l-4.7-18.5l7.6-1.9L1874.8,844.2z M1865.7,844.5
							L1865.7,844.5l0.1,0.5l-19.5,5l0.1,0.3l0,0l2.5,9.7l19.5-5l2.3,8.9l-28.4,7.2l-5.3-20.8l0,0l-2-8l18.5-4.7l-4.6-18l1.6-0.4
							c5-1.3,10.1-2.6,15.1-3.9l11.7-3l7.2,28.4l-8.9,2.2l-4.9-19.5l-9.6,2.4L1865.7,844.5z"/>
					</g>
				</g>
				<g>
					<g>
						<path class="st0" d="M1920,791.5v-1l-10.4-2.7l-2.5,10l13,3.3v-1l-11.8-3l2-8.1L1920,791.5z M1920,781.1v-1l-17.8-4.5
							l-7.8,30.7l18.5,4.7l-1.8,7.2l0,0l-2.7,10.8l2.5,0.7c3,0.8,6.1,1.5,9.2,2.3v-1c-3-0.8-5.9-1.5-8.9-2.3l-1.6-0.4l2.3-8.9l0,0
							l2.3-9.1l-18.5-4.7l7.3-28.8L1920,781.1z"/>
					</g>
				</g>
				<g>
					<g>
						<path class="st0" d="M1692.5,879.8l10.8-2.8l-7.7-30.3l-12.6,3.2c-5.1,1.3-10.1,2.6-15.2,3.9l-2.5,0.6l4.6,18l-18.5,4.7l2,8
							l0,0l5.8,22.7l30.3-7.7l-2.8-10.8l-19.5,5l-1.9-7.5l-0.1-0.5l19.5-5l-0.1-0.5l0,0l-4.7-18.5l7.6-1.9L1692.5,879.8z
							 M1683.5,880.1L1683.5,880.1l0.1,0.5l-19.5,5l0.1,0.3l0,0l2.5,9.7l19.5-5l2.3,8.9l-28.4,7.2l-5.3-20.8l0,0l-2-8l18.5-4.7
							l-4.6-18l1.6-0.4c5.1-1.3,10.1-2.6,15.2-3.9l11.6-3l7.2,28.4l-8.9,2.2l-5-19.5l-9.6,2.4L1683.5,880.1z"/>
					</g>
				</g>
				<g>
					<g>
						<path class="st0" d="M1753.3,910.4l-5,19.5l-7.6-1.9l4.6-18.1l0.1-0.5l0.1-0.5l-19.5-5l2-8.1l19.5,5l2.8-10.8l-30.3-7.7
							l-7.8,30.7l18.5,4.7l-1.8,7.2l-2.8,10.8l2.5,0.6c5.2,1.3,10.5,2.7,15.7,4l12.1,3.1l7.7-30.3L1753.3,910.4z M1755.7,942.2
							l-11.1-2.8c-5.2-1.3-10.5-2.7-15.7-4l-1.6-0.4l2.2-8.9l0,0l2.3-9.2l-18.5-4.7l7.3-28.8l28.4,7.2l-2.3,8.9l-19.5-5l-2.5,10
							l19.5,5l-4.8,19l9.6,2.4l4.9-19.5l8.9,2.3L1755.7,942.2z"/>
					</g>
				</g>
				<g>
					<g>
						<path class="st0" d="M1814,879.8l10.8-2.8l-7.7-30.3l-12.6,3.2c-5.1,1.3-10.1,2.6-15.1,3.9l-2.5,0.6l4.6,18l-18.5,4.7l2,8l0,0
							l5.8,22.7l30.3-7.7l-2.8-10.8l-19.5,5l-1.9-7.5l0,0l-0.1-0.5l19.5-5l-0.1-0.5l-4.7-18.5l7.6-1.9L1814,879.8z M1804.9,880.1
							L1804.9,880.1l0.1,0.5l-19.5,5l0.1,0.3l2.5,9.7l19.5-5l2.3,8.9l-28.4,7.2l-5.3-20.8l0,0l-2-8l18.5-4.7l-4.6-18l1.6-0.4
							c5-1.3,10.1-2.6,15.1-3.9l11.7-3l7.2,28.4l-8.9,2.2l-5-19.5l-9.6,2.4L1804.9,880.1z"/>
					</g>
				</g>
				<g>
					<g>
						<path class="st0" d="M1874.8,910.4l-3.1,12.2l-1.9,7.3l-7.6-1.9l2.6-10l2-8l0.1-0.5l0.1-0.5l-15.8-4l-3.7-0.9l0.7-2.9l1.3-5.2
							l19.5,5l2.8-10.8l-30.3-7.7l-1.3,5l-6.5,25.7l18.5,4.7l-1.8,7.2l-2.8,10.8l2.5,0.6c5.1,1.3,10.3,2.6,15.4,3.9l12.3,3.1l4-15.7
							l3.7-14.6L1874.8,910.4z M1880.9,927.4l-3.8,14.9l-11.4-2.9c-5.1-1.3-10.3-2.6-15.4-3.9l-1.6-0.4l2.2-8.9l0,0l2.3-9.2
							l-18.5-4.7l6-23.6l1.3-5.2l28.4,7.2l-2.3,8.9l-19.5-5l-1.3,5.3l-1.2,4.7l6,1.5l13.5,3.5l-1.9,7.6l-2.9,11.4l9.6,2.4l2-8
							l2.9-11.5l8.9,2.3L1880.9,927.4z"/>
					</g>
				</g>
				<g>
					<g>
						<path class="st0" d="M1920,882.2l-13,3.3l0.1,0.3l2.5,9.7l10.4-2.7v-1l-9.7,2.5l-1.9-7.5l0,0l-0.1-0.5l11.8-3v-1.1H1920z
							 M1920,852.5v-1c-3.1,0.8-6.1,1.6-9.2,2.3l-2.5,0.6l4.6,18l-18.5,4.7l2,8l0,0l5.8,22.7l17.8-4.5v-1l-17.1,4.3l-5.3-20.8l0,0
							l-2-8l18.5-4.7l-4.6-18l1.6-0.4C1914.1,854,1917,853.2,1920,852.5z"/>
					</g>
				</g>
				<g>
					<g>
						<path class="st0" d="M1692.5,946l-4.9,19.5l-7.6-1.9l4.6-18l0.1-0.5l0.1-0.5l-19.5-5l2-8.1l19.5,5l2.8-10.8l-30.3-7.7
							l-7.8,30.7l18.5,4.7l-1.8,7.3l0,0l-2.7,10.8l2.5,0.6c5.1,1.3,10.1,2.6,15.2,3.9l12.6,3.2l7.7-30.3L1692.5,946z M1694.9,977.8
							l-11.6-2.9c-5.1-1.3-10.1-2.6-15.2-3.9l-1.6-0.4l2.3-8.9l2.3-9.1l-18.5-4.7l7.3-28.8l28.4,7.2l-2.3,8.9l-19.5-5l-2.3,9.1
							l-0.1,0.5l-0.1,0.4l19.5,5l-4.8,19l9.6,2.4l5-19.5l8.9,2.2L1694.9,977.8z"/>
					</g>
				</g>
				<g>
					<g>
						<path class="st0" d="M1753.3,986.5l10.8-2.8l-7.7-30.3l-12.3,3.2c-5.1,1.3-10.3,2.6-15.4,3.9l-2.5,0.7l4.6,18l-18.5,4.7l2,8
							l0,0l5.8,22.7l30.3-7.7l-2.8-10.8l-19.5,5l-1.9-7.5l0,0l-0.1-0.5l19.5-5l-0.1-0.5l0,0l-4.7-18.5l7.6-1.9L1753.3,986.5z
							 M1744.2,986.8L1744.2,986.8l0.1,0.5l-19.5,5l0.1,0.3l2.5,9.7l19.5-5l2.3,8.9l-28.4,7.2l-5.3-20.8l0,0l-2-8l18.5-4.7l-4.6-18
							l1.6-0.4c5.1-1.3,10.3-2.6,15.4-3.9l11.3-2.9l7.2,28.4l-8.9,2.3l-4.9-19.5l-9.6,2.4L1744.2,986.8z"/>
					</g>
				</g>
				<g>
					<g>
						<path class="st0" d="M1814,946l-4.9,19.5l-7.6-1.9l4.6-18l0.2-1l-19.5-5l2-8.1l19.5,5l2.8-10.8l-30.3-7.7l-7.8,30.7l18.5,4.7
							l-1.8,7.3l-2.7,10.8l2.5,0.6c5,1.3,10.1,2.6,15.1,3.9l12.6,3.2l7.7-30.3L1814,946z M1816.4,977.8l-11.7-3
							c-5-1.3-10.1-2.6-15.1-3.9l-1.6-0.4l2.3-8.9l0,0l2.3-9.1l-18.5-4.7l7.3-28.8l28.4,7.2l-2.3,8.9l-19.5-5l-2.3,9.1l-0.1,0.5
							l-0.1,0.4l19.5,5l-4.8,19l9.6,2.4l5-19.5l8.9,2.2L1816.4,977.8z"/>
					</g>
				</g>
				<g>
					<g>
						<path class="st0" d="M1874.8,986.5l10.8-2.8l-7.7-30.3l-12.6,3.2c-5,1.3-10.1,2.6-15.1,3.9l-2.5,0.7l4.6,18l-18.5,4.7l2,8l0,0
							l5.8,22.7l30.3-7.7l-2.8-10.8l-19.5,5l-1.9-7.5l-0.1-0.5l19.5-5l-0.1-0.5l0,0l-4.7-18.5l7.6-1.9L1874.8,986.5z M1865.7,986.8
							L1865.7,986.8l0.1,0.5l-19.5,5l0.1,0.3l0,0l2.5,9.7l19.5-5l2.3,8.9l-28.4,7.2l-5.3-20.8l0,0l-2-8l18.5-4.7l-4.6-18l1.6-0.4
							c5-1.3,10.1-2.6,15.1-3.9l11.7-3l7.2,28.4l-8.9,2.3l-4.9-19.5l-9.6,2.4L1865.7,986.8z"/>
					</g>
				</g>
				<g>
					<g>
						<path class="st0" d="M1909.6,930.2l-1.6,6.2c0.3,0.1,0.7,0.2,1,0.2l1.3-5.2l9.7,2.5v-1L1909.6,930.2z M1902.2,917.9l-4.1,16
							c0.3,0.1,0.6,0.2,1,0.3l3.8-15.1l17.1,4.3v-1L1902.2,917.9z"/>
					</g>
				</g>
			</g>
		</g>
	</g>
</g>
<g>
	<g>
		<g>
			<path class="st1" d="M154.7,240.3c-8,15.9-18.8,30-29.6,44c-4.8,6.2-9.7,12.5-14.7,18.6c-12.3,15-19.2,32.7-24.9,50.9
				c-4.4,14.2-8.5,28.6-13.7,42.6c-2.4,6.5-6.3,12.7-10.5,18.2c-6.6,8.7-16.1,12.7-26.9,13.4c-12,0.8-23.4-1.3-34.3-5.8V149
				c10.1,0.4,20.3,0,30.4-1.9c11.1-2.1,22.1-5.1,33.3-7c18.3-3.1,36.7-3.7,54.8,1.7c24.1,7.2,38.4,23.5,43.8,47.9
				C166.3,207.6,162.7,224.2,154.7,240.3z"/>
		</g>
	</g>
	<g class="st2">
		<g class="st3">
			<g>
				<g>
					<g>
						<path class="st0" d="M30.9,129.1l6.7-1.7l-4.7-18.6l-18.6,4.8l2.8,11.1l-11.4,2.9l1.2,4.9l0,0l3.5,14l18.6-4.7l-1.7-6.7
							l-12,3.1l-1.2-4.7l-0.1-0.3l12-3l-0.1-0.3L23,118.5l4.7-1.2L30.9,129.1z M25.3,129.3l0.1,0.3l-12,3l0.1,0.2l1.5,5.9l12-3.1
							l1.4,5.5l-17.5,4.4l-3.2-12.8l0,0L6.4,128l11.4-2.9L15,114l17.4-4.5l4.4,17.5l-5.5,1.4l-3-12l-5.9,1.5L25.3,129.3z"/>
					</g>
				</g>
				<g>
					<g>
						<path class="st0" d="M68.3,148l-3,12l-4.7-1.2l3-11.7l-12-3l0.4-1.5l0.9-3.5l7.2,1.8l4.8,1.2l0.5-2.2l1.1-4.5l-18.7-4.7
							l-3.4,13.5l-1.4,5.4l11.3,2.9l-1.1,4.4l0,0l-1.7,6.6l18.6,4.8l4.7-18.6L68.3,148z M69.7,167.5l-17.4-4.4l1.4-5.5l0,0l1.4-5.6
							l-11.3-2.9L45,144l3.2-12.6l17.5,4.4l-1.1,4.2l-0.3,1.3l-2.9-0.7l-9.1-2.3l-1.1,4.4l-0.4,1.8l12,3.1l-3,11.7l5.9,1.5l3-12
							l5.5,1.4L69.7,167.5z"/>
					</g>
				</g>
				<g>
					<g>
						<path class="st0" d="M105.6,129.1l6.6-1.7l-4.7-18.6l-18.6,4.8l1.6,6.4l0.1,0.3l1.1,4.4l-11.4,2.9l1.2,4.9l0,0L83,138l2.1,8.4
							l18.6-4.7l-0.8-3l-0.9-3.6l-11,2.7l-0.9,0.2l-0.1-0.2l-1.1-4.4l-0.1-0.3l12-3l-0.1-0.3l-2.9-11.4l4.7-1.2L105.6,129.1z
							 M100,129.3l0.1,0.3l-12,3l0.1,0.2l1.2,4.9l0.2,1l3.6-0.9l8.4-2.1l0.7,2.8l0.7,2.7l-17.5,4.4l-2-7.7l-1.3-5.1l0,0l-1.2-4.9
							l11.4-2.9l-2.8-11l17.4-4.5l4.4,17.5l-5.5,1.4l-3-12l-5.9,1.5L100,129.3z"/>
					</g>
				</g>
				<g>
					<g>
						<path class="st0" d="M142.9,148l-1.5,5.7l-1.6,6.2l-4.7-1.2l2.1-8.2l0.9-3.5l-12-3l1.3-5l12,3.1l1.7-6.7l-18.7-4.7l-2.9,11.5
							l-1.9,7.4l11.3,2.9l-1.1,4.4l0,0l-1.7,6.6l18.6,4.8l2.3-9.2l2.4-9.5L142.9,148z M146.7,158.6l-2.3,9l-17.4-4.4l1.4-5.5l0,0
							l1.4-5.6l-11.4-2.9l1.7-6.8l2.8-10.9l17.5,4.4l-1.4,5.5l-12-3.1l-1.5,6v0.1l0.9,0.2l11.1,2.8l-0.7,2.7l-2.3,9l5.9,1.5l1.7-6.5
							l1.4-5.4l5.5,1.4L146.7,158.6z"/>
					</g>
				</g>
				<g>
					<g>
						<path class="st0" d="M180.3,129.1l6.6-1.7l-4.7-18.6l-7.1,1.8c-3.3,0.8-6.6,1.7-9.9,2.5l-1.6,0.4l2.8,11.1l-11.3,2.9l1.2,4.9
							l0,0l3.5,14l18.6-4.7l-1.7-6.7l-12,3.1l-1.2-4.7l-0.1-0.3l12-3l-0.1-0.3l0,0l-2.9-11.4l4.7-1.2L180.3,129.1z M174.7,129.3
							L174.7,129.3l0.1,0.3l-12,3l0.1,0.2l0,0l1.5,5.9l12-3.1l1.4,5.5l-17.5,4.4l-3.2-12.8l0,0l-1.2-4.9l11.3-2.9l-2.8-11.1l1-0.2
							c3.3-0.8,6.6-1.7,10-2.5l6.5-1.7l4.4,17.5l-5.4,1.4l-3.1-12l-5.9,1.5L174.7,129.3z"/>
					</g>
				</g>
				<g>
					<g>
						<path class="st0" d="M217.6,148l-3,12l-4.7-1.2l3-11.7l-12-3l0.1-0.3l1.2-4.7l12,3.1l1.7-6.7l-18.6-4.7l-4.8,18.9l11.4,2.9
							l-1.1,4.4l0,0l-1.7,6.6l18.6,4.8l4.7-18.6L217.6,148z M219.1,167.5l-17.4-4.4l1.4-5.5l0,0l1.4-5.6l-11.4-2.9l4.5-17.7
							l17.4,4.4l-1.4,5.5l-12-3.1l-1.6,6.2l12,3.1l-0.1,0.3l-2.9,11.4l5.9,1.5l3-12l5.5,1.4L219.1,167.5z"/>
					</g>
				</g>
				<g>
					<g>
						<path class="st0" d="M254.9,129.1l6.7-1.7l-4.7-18.6l-18.6,4.8l2.8,11.1l-11.3,2.9l1.2,4.9l0,0l3.5,14l18.6-4.7l-1.7-6.7
							l-12,3.1l-1.2-4.7l-0.1-0.3l12-3l-0.1-0.3l-2.9-11.4l4.7-1.2L254.9,129.1z M249.3,129.3L249.3,129.3l0.1,0.3l-12,3l0.1,0.2
							l0,0l1.5,5.9l12-3.1l1.4,5.5l-17.5,4.4l-3.2-12.8l0,0l-1.2-4.9l11.3-2.9L239,114l17.4-4.5l4.4,17.5l-5.5,1.4l-3-12l-5.9,1.5
							L249.3,129.3z"/>
					</g>
				</g>
				<g>
					<g>
						<path class="st0" d="M30.9,169.8l-3,12l-4.7-1.2l3-11.7l-12-3l1.2-5l12,3.1l1.7-6.7l-18.6-4.7l-4.8,18.9l11.4,2.9l-1.1,4.4
							l-1.7,6.7l18.6,4.8l4.7-18.6L30.9,169.8z M32.4,189.4L15,185l1.4-5.5l1.4-5.6L6.4,171l4.5-17.7l17.5,4.4l-1.4,5.5l-12-3.1
							l-1.6,6.2l12,3.1l-3,11.7l5.9,1.5l3-12l5.5,1.4L32.4,189.4z"/>
					</g>
				</g>
				<g>
					<g>
						<path class="st0" d="M68.3,194.8l6.6-1.7l-4.7-18.6l-18.6,4.8l2.8,11.1L43,193.2l1.2,4.9l0,0l3.5,14l18.7-4.7l-1.7-6.7l-12,3
							l-1.2-4.7l-0.1-0.3l12-3l-0.1-0.3l0,0L60.5,184l4.7-1.2L68.3,194.8z M62.7,195L62.7,195l0.1,0.3l-12,3v0.2l1.5,5.9l12-3
							l1.4,5.5l-17.5,4.4L45,198.5l0,0l-1.3-4.9l11.3-2.9l-2.8-11.1l17.4-4.5l4.4,17.5l-5.5,1.4l-3-12l-5.9,1.5L62.7,195z"/>
					</g>
				</g>
				<g>
					<g>
						<path class="st0" d="M105.6,169.8l-3,12l-4.7-1.2l3-11.7l-12-3l1.2-5l12,3.1l1.7-6.7l-18.6-4.7l-4.8,18.9l11.4,2.9l-1.1,4.4
							l-1.7,6.6l18.6,4.8l4.7-18.6L105.6,169.8z M107,189.4L89.6,185l1.4-5.5l1.4-5.6L81.1,171l4.5-17.7l17.5,4.4l-1.4,5.5l-12-3.1
							l-1.6,6.2l12,3.1l-3,11.7l5.9,1.5l3-12l5.5,1.4L107,189.4z"/>
					</g>
				</g>
				<g>
					<g>
						<path class="st0" d="M142.9,194.8l6.6-1.7l-4.7-18.6l-18.6,4.8l2.8,11.1l-11.3,2.9l1.2,4.9l0,0l3.5,14l18.7-4.7l-1.7-6.7
							l-12,3l-1.2-4.7l-0.1-0.3l12-3l-0.1-0.3l0,0l-2.9-11.4l4.7-1.2L142.9,194.8z M137.3,195L137.3,195l0.1,0.3l-12,3v0.2l1.5,5.9
							l12-3l1.4,5.5l-17.5,4.4l-3.2-12.8l0,0l-1.3-4.9l11.4-2.9l-2.8-11.1l17.4-4.5l4.4,17.5l-5.5,1.4l-3-12l-5.9,1.5L137.3,195z"/>
					</g>
				</g>
				<g>
					<g>
						<path class="st0" d="M180.3,169.8l-3,12l-4.7-1.2l3-11.7l-12-3l0.1-0.3l1.2-4.7l12,3.1l1.7-6.7l-18.6-4.7l-4.5,18l-0.2,0.9
							l0.8,0.2l10.5,2.7l-1.1,4.4l-1.7,6.7l1.6,0.4c3.3,0.8,6.6,1.7,9.9,2.5l7.1,1.8l4.7-18.6L180.3,169.8z M181.7,189.4l-6.5-1.7
							c-3.3-0.9-6.6-1.7-10-2.5l-1-0.2l1.4-5.5l1.4-5.6l-11.3-2.9l4.5-17.7l17.5,4.4l-1.4,5.5l-12-3.1l-1.6,6.2l12,3.1l-0.1,0.3
							l-2.9,11.4l5.9,1.5l3.1-12l5.4,1.4L181.7,189.4z"/>
					</g>
				</g>
				<g>
					<g>
						<path class="st0" d="M217.6,194.8l6.6-1.7l-4.7-18.6l-18.6,4.8l2.8,11.1l-11.4,2.9l1.2,4.9l0,0l3.5,14l18.6-4.7l-1.7-6.7
							l-12,3l-1.2-4.7l0,0l-0.1-0.3l12-3l-0.1-0.3l-2.9-11.4l4.7-1.2L217.6,194.8z M212,195l0.1,0.3l-12,3l0.1,0.2l1.5,5.9l12-3
							l1.4,5.5l-17.4,4.4l-3.2-12.8l0,0l-1.3-4.9l11.4-2.9l-2.8-11.1l17.4-4.5l4.4,17.5L218,194l-3-12l-5.9,1.5L212,195z"/>
					</g>
				</g>
				<g>
					<g>
						<path class="st0" d="M254.9,169.8l-3,12l-4.7-1.2l3-11.7l-12-3l1.2-5l12,3.1l1.7-6.7l-18.6-4.7l-4.8,18.9l11.3,2.9l-1.1,4.4
							l-1.7,6.7l18.6,4.8l4.7-18.6L254.9,169.8z M256.4,189.4L239,185l1.4-5.5l1.4-5.6l-11.3-2.9l4.5-17.7l17.5,4.4l-1.4,5.5
							l-12-3.1l-1.6,6.2l12,3.1l-0.1,0.3l-2.9,11.4l5.9,1.5l3-12l5.5,1.4L256.4,189.4z"/>
					</g>
				</g>
				<g>
					<g>
						<path class="st0" d="M30.9,216.6l6.7-1.7l-4.7-18.6l-18.6,4.8l2.8,11.1L5.7,215l1.2,4.9l0,0l3.5,14l18.6-4.7l-1.7-6.7l-12,3
							l-1.2-4.7l-0.1-0.3l12-3.1l-0.1-0.3L23,205.7l4.7-1.2L30.9,216.6z M25.3,216.8L25.3,216.8l0.1,0.3l-12,3.1l0.1,0.2l1.5,5.9
							l12-3l1.4,5.5l-17.5,4.4l-3.2-12.8l0,0l-1.2-4.9l11.4-2.9L15,201.5l17.4-4.4l4.4,17.4l-5.5,1.4l-3-12l-5.9,1.5L25.3,216.8z"/>
					</g>
				</g>
				<g>
					<g>
						<path class="st0" d="M68.3,235.5l-3,12l-4.7-1.2l3-11.7l-12-3l1.3-5l12,3l1.7-6.6l-18.7-4.7L43,237.1l11.3,2.9l-1.1,4.4l0,0
							l-1.7,6.7l18.6,4.8l4.7-18.6L68.3,235.5z M69.7,255.1l-17.4-4.5l1.4-5.5l0,0l1.4-5.6l-11.3-2.9l4.5-17.7l17.5,4.4l-1.4,5.5
							l-12-3l-1.5,6.2l12,3l-3,11.7l5.9,1.5l3-12l5.5,1.4L69.7,255.1z"/>
					</g>
				</g>
				<g>
					<g>
						<path class="st0" d="M105.6,216.6l6.6-1.7l-4.7-18.6l-18.6,4.8l1.6,6.4l0.1,0.3l1.1,4.4L80.3,215l1.2,4.9l0,0l3.5,14l18.6-4.7
							l-1.7-6.7l-12,3l-1.2-4.7l-0.1-0.3l12-3.1l-0.1-0.3l-2.9-11.4l4.7-1.2L105.6,216.6z M100,216.8L100,216.8l0.1,0.3l-12,3.1
							l0.1,0.2l1.5,5.9l12-3l1.4,5.5l-17.5,4.4l-3.2-12.8l0,0l-1.2-4.9l11.4-2.9l-2.8-11.1l17.4-4.4l4.4,17.4l-5.5,1.4l-3-12
							l-5.9,1.5L100,216.8z"/>
					</g>
				</g>
				<g>
					<g>
						<path class="st0" d="M142.9,235.5l-3,12l-4.7-1.2l3-11.7l-12-3l1.3-5l12,3l1.7-6.6l-18.7-4.7l-4.8,18.9L129,240l-1.1,4.4l0,0
							l-1.7,6.7l18.6,4.8l4.7-18.6L142.9,235.5z M144.4,255.1l-17.4-4.5l1.4-5.5l0,0l1.4-5.6l-11.4-2.9l4.5-17.7l17.5,4.4l-1.4,5.5
							l-12-3l-1.5,6.2l12,3l-3,11.7l5.9,1.5l3-12l5.5,1.4L144.4,255.1z"/>
					</g>
				</g>
				<g>
					<g>
						<path class="st0" d="M180.3,216.6l6.6-1.7l-4.7-18.6l-7.1,1.8c-3.3,0.8-6.6,1.7-9.9,2.5l-1.2,0.3l-0.3,0.1l0.4,1.5l2.4,9.6
							l-3,0.8L155,215l1.2,4.9l0,0l2.7,10.6l0.9,3.4l18.6-4.7l-1.7-6.7l-12,3l-1.2-4.7l-0.1-0.3l12-3.1l-0.1-0.3l0,0l-2.9-11.4
							l4.7-1.2L180.3,216.6z M174.7,216.8L174.7,216.8l0.1,0.3l-12,3.1l0.1,0.2l0,0l1.5,5.9l12-3l1.4,5.5l-17.5,4.4l-0.9-3.7
							l-2.3-9.1l0,0l-1.2-4.9l7.5-1.9l3.8-1l-2.8-11.1l1-0.2c3.3-0.8,6.6-1.7,10-2.5l6.5-1.7l4.4,17.4l-5.4,1.4l-3.1-12l-5.9,1.5
							L174.7,216.8z"/>
					</g>
				</g>
				<g>
					<g>
						<path class="st0" d="M217.6,235.5l-3,12l-4.7-1.2l3-11.7l-12-3l0.1-0.3l1.2-4.7l12,3l1.7-6.6l-18.6-4.7l-4.8,18.9l11.4,2.9
							l-1.1,4.4l0,0l-1.7,6.7l18.6,4.8l4.7-18.6L217.6,235.5z M219.1,255.1l-17.4-4.5l1.4-5.5l0,0l1.4-5.6l-11.4-2.9l4.5-17.7
							l17.4,4.4l-1.4,5.5l-12-3L200,232l12,3l-0.1,0.3l-2.9,11.4l5.9,1.5l3-12l5.5,1.4L219.1,255.1z"/>
					</g>
				</g>
				<g>
					<g>
						<path class="st0" d="M254.9,216.6l6.7-1.7l-4.7-18.6l-18.6,4.8l2.8,11.1l-11.3,2.9l1.2,4.9l0,0l3.5,14l18.6-4.7l-1.7-6.7
							l-12,3l-1.2-4.7l-0.1-0.3l12-3.1l-0.1-0.3l-2.9-11.4l4.7-1.2L254.9,216.6z M249.3,216.8L249.3,216.8l0.1,0.3l-12,3.1l0.1,0.2
							l0,0l1.5,5.9l12-3l1.4,5.5l-17.5,4.4l-3.2-12.8l0,0l-1.2-4.9l11.3-2.9l-2.8-11.1l17.4-4.4l4.4,17.4l-5.5,1.4l-3-12l-5.9,1.5
							L249.3,216.8z"/>
					</g>
				</g>
				<g>
					<g>
						<path class="st0" d="M30.9,257.3l-3,12l-4.7-1.2L26,257l0.1-0.3l0.1-0.3l-12-3l1.2-5l12,3l1.7-6.6l-18.6-4.7L5.7,259l11.4,2.9
							l-1.1,4.4l-1.7,6.7l18.6,4.8l4.7-18.7L30.9,257.3z M32.4,276.9L15,272.5l1.4-5.5l1.4-5.6l-11.4-2.9l4.5-17.7l17.5,4.4
							l-1.4,5.5l-12-3l-1.6,6.2l12,3l-3,11.7l5.9,1.5l3-12l5.5,1.4L32.4,276.9z"/>
					</g>
				</g>
				<g>
					<g>
						<path class="st0" d="M68.3,282.3l6.6-1.7L70.2,262l-18.6,4.8l2.8,11.1L43,280.7l1.2,4.9l0,0l3.5,14l18.7-4.7l-1.7-6.6l-12,3
							l-1.2-4.7l-0.1-0.3l12-3l-0.1-0.3l0,0l-2.9-11.4l4.7-1.2L68.3,282.3z M62.7,282.5L62.7,282.5l0.1,0.3l-12,3.1v0.2l1.5,5.9
							l12-3l1.4,5.5l-17.5,4.4L45,286.1l0,0l-1.3-4.9l11.3-2.9l-2.8-11.1l17.4-4.4l4.4,17.5l-5.5,1.4l-3-12l-5.9,1.5L62.7,282.5z"/>
					</g>
				</g>
				<g>
					<g>
						<path class="st0" d="M105.6,257.3l-3,12l-4.7-1.2l2.8-11.1l0.1-0.3l0.1-0.3l-12-3l1.2-5l12,3l1.7-6.6l-18.6-4.7L80.3,259
							l11.4,2.9l-1.1,4.4l-1.7,6.6l18.6,4.8l4.7-18.7L105.6,257.3z M107,276.9l-17.4-4.5L91,267l1.4-5.6L81,258.5l4.5-17.7l17.5,4.4
							l-1.4,5.5l-12-3l-1.6,6.2l12,3l-3,11.7l5.9,1.5l3-12l5.5,1.4L107,276.9z"/>
					</g>
				</g>
				<g>
					<g>
						<path class="st0" d="M142.9,282.3l6.6-1.7l-4.7-18.6l-3.9,1l-14.7,3.8l2.8,11.1l-11.3,2.9l1.2,4.9l0,0l1.2,4.9l2.3,9.1
							l18.7-4.7l-1.7-6.6l-12,3l-1.2-4.7l-0.1-0.3l12-3l-0.1-0.3l0,0l-2.9-11.4l4.7-1.2L142.9,282.3z M134.6,271.7l2.8,10.8l0,0
							l0.1,0.3l-12,3.1v0.2l1.5,5.9l12-3l1.4,5.5l-17.5,4.4l-2.3-9l-1-3.8l0,0l-1.3-4.9l11.2-2.9h0.1v-0.1l-2.8-11l13.4-3.4l4-1
							l4.4,17.5l-5.5,1.4l-3-12L135,271l-0.8,0.2L134.6,271.7z"/>
					</g>
				</g>
				<g>
					<g>
						<path class="st0" d="M180.3,257.3l-3,12l-4.7-1.2l3-11.7l-12-3l0.1-0.3l1.2-4.7l12,3l1.7-6.6l-18.6-4.7l-5,18.9l11.3,2.9
							l-1.1,4.4l-1.7,6.7l1.6,0.4c3.3,0.9,6.6,1.7,9.9,2.5l7.1,1.8l4.7-18.7L180.3,257.3z M181.7,276.9l-6.5-1.7
							c-3.3-0.8-6.6-1.7-10-2.5l-1-0.2l1.4-5.5l1.4-5.6l-11.3-2.9l4.5-17.7l17.5,4.4l-1.4,5.5l-12-3l-1.6,6.2l12,3l-3,11.7l5.9,1.5
							l3.1-12l5.4,1.4L181.7,276.9z"/>
					</g>
				</g>
				<g>
					<g>
						<path class="st0" d="M217.6,282.3l6.6-1.7l-4.7-18.6l-18.6,4.8l2.8,11.1l-11.4,2.9l1.2,4.9l0,0l3.5,14l18.6-4.7l-1.7-6.6
							l-12,3l-1.2-4.7l0,0l-0.1-0.3l12-3l-0.1-0.3l-2.9-11.4l4.7-1.2L217.6,282.3z M212,282.5l0.1,0.3l-12,3.1l0.1,0.2l1.5,5.9l12-3
							l1.4,5.5l-17.4,4.4l-3.2-12.8l0,0l-1.3-4.9l11.4-2.9l-2.8-11.1l17.4-4.4l4.4,17.5l-5.5,1.4l-3-12l-5.9,1.5L212,282.5z"/>
					</g>
				</g>
				<g>
					<g>
						<path class="st0" d="M254.9,257.3l-3,12l-4.7-1.2l3-11.7l-12-3l1.2-5l12,3l1.7-6.6l-18.6-4.7l-4.8,18.9l11.3,2.9l-1.1,4.4
							l-1.7,6.7l18.6,4.8l4.7-18.7L254.9,257.3z M256.4,276.9l-17.4-4.5l1.4-5.5l1.4-5.6l-11.3-2.9l4.5-17.7l17.5,4.4l-1.4,5.5
							l-12-3l-1.6,6.2l12,3l-3,11.7l5.9,1.5l3-12l5.5,1.4L256.4,276.9z"/>
					</g>
				</g>
				<g>
					<g>
						<path class="st0" d="M30.9,304.2l6.7-1.7l-4.7-18.6l-18.6,4.8l2.8,11.1l-11.4,2.9l1.2,4.9l0,0l3.5,14l18.6-4.7l-1.7-6.6l-12,3
							l-1.2-4.7l-0.1-0.3l12-3l-0.1-0.3l0,0L23,293.6l4.7-1.2L30.9,304.2z M25.3,304.4l0.1,0.3l-12,3.1l0.1,0.2l1.5,5.9l12-3
							l1.4,5.5l-17.5,4.4L7.7,308l0,0l-1.3-5l11.4-2.9L15,289l17.4-4.5l4.4,17.5l-5.5,1.4l-3-12l-5.9,1.5L25.3,304.4z"/>
					</g>
				</g>
				<g>
					<g>
						<path class="st0" d="M68.3,323l-3,12l-4.7-1.2l2.8-11.1l0.1-0.3l0.1-0.3l-12-3.1l1.3-5l12,3l1.7-6.6l-18.7-4.7L43,324.6
							l11.3,2.9l-1.1,4.4l0,0l-1.7,6.6l18.6,4.8l4.7-18.6L68.3,323z M69.7,342.6l-17.4-4.4l1.4-5.5l0,0l1.4-5.6l-11.3-2.9l4.5-17.7
							l17.5,4.4l-1.4,5.5l-12-3l-1.5,6.1l12,3.1l-3,11.7l5.9,1.5l3-12l5.5,1.4L69.7,342.6z"/>
					</g>
				</g>
				<g>
					<g>
						<path class="st0" d="M111.8,301l-4.3-17.1l-18.6,4.8l1.6,6.4l0.1,0.3l1.1,4.4l-11.4,2.9l1.2,4.9l0,0l3.5,14l15.1-3.9l3.5-0.9
							l-0.9-3.5l-0.8-3.2l-12,3l-1.2-4.7l-0.1-0.3l12-3l-0.1-0.3l0,0l-2.9-11.4l4.7-1.2l3,12l4.6-1.2l2-0.5L111.8,301z M110.8,302.2
							l-4.8,1.2l-3-12l-5.9,1.5l2.9,11.4l0.1,0.3l-12,3.1l0.1,0.2l1.5,5.9l12-3l0.8,3.1l0.6,2.3l-2.3,0.6l-15.1,3.9l-3.2-12.8l0,0
							l-1.2-4.9l11.4-2.9L89.6,289l17.4-4.5l4.3,17l0.1,0.5L110.8,302.2z"/>
					</g>
				</g>
				<g>
					<g>
						<path class="st0" d="M142.9,323l-3,12l-4.7-1.2l3-11.7l-12-3.1l1.3-5l12,3l1.7-6.6l-18.7-4.7l-4.8,18.9l11.3,2.9l-1.1,4.4l0,0
							l-1.7,6.6l18.6,4.8l4.7-18.6L142.9,323z M144.4,342.6l-17.4-4.4l1.4-5.5l0,0l1.4-5.6l-11.4-2.9l4.5-17.7l17.5,4.4l-1.4,5.5
							l-12-3l-1.5,6.1l12,3.1l-3,11.7l5.9,1.5l3-12l5.5,1.4L144.4,342.6z"/>
					</g>
				</g>
				<g>
					<g>
						<path class="st0" d="M180.3,304.2l6.6-1.7l-4.7-18.6l-7.1,1.8c-3.3,0.9-6.6,1.7-9.9,2.5l-1.6,0.4l2.8,11.1l-11.3,2.9l1.2,4.9
							l0,0l3.5,14l18.6-4.7l-1.7-6.6l-12,3l-1.2-4.7l-0.1-0.3l12-3l-0.1-0.3l0,0l-2.9-11.4l4.7-1.2L180.3,304.2z M174.7,304.4
							L174.7,304.4l0.1,0.3l-12,3.1l0.1,0.2l0,0l1.5,5.9l12-3l1.4,5.5l-17.5,4.4l-3.2-12.8l0,0l-1.2-4.9l11.3-2.9l-2.8-11.1l1-0.2
							c3.3-0.8,6.6-1.7,10-2.5l6.5-1.7l4.4,17.5l-5.4,1.4l-3.1-12l-5.9,1.5L174.7,304.4z"/>
					</g>
				</g>
				<g>
					<g>
						<path class="st0" d="M217.6,323l-3,12l-4.7-1.2l3-11.7l-12-3.1l0.1-0.2l1.2-4.7l12,3l1.7-6.6l-18.6-4.7l-4.8,18.9l11.4,2.9
							l-1.1,4.4l0,0l-1.7,6.6l18.6,4.8l4.7-18.6L217.6,323z M219.1,342.6l-17.4-4.4l1.4-5.5l0,0l1.4-5.6l-11.4-2.9l4.5-17.7
							l17.4,4.4l-1.4,5.5l-12-3l-1.6,6.1l12,3.1l-3,11.7l5.9,1.5l3-12l5.5,1.4L219.1,342.6z"/>
					</g>
				</g>
				<g>
					<g>
						<path class="st0" d="M254.9,304.2l6.7-1.7l-4.7-18.6l-18.6,4.8l2.8,11.1l-11.3,2.9l1.2,4.9l0,0l3.5,14l18.6-4.7l-1.7-6.6
							l-12,3l-1.2-4.7l-0.1-0.3l12-3L250,305l0,0l-2.9-11.4l4.7-1.2L254.9,304.2z M249.3,304.4L249.3,304.4l0.1,0.3l-12,3.1l0.1,0.2
							l0,0l1.5,5.9l12-3l1.4,5.5l-17.5,4.4l-3.2-12.8l0,0l-1.2-4.9l11.3-2.9L239,289l17.4-4.5l4.4,17.5l-5.5,1.4l-3-12l-5.9,1.5
							L249.3,304.4z"/>
					</g>
				</g>
				<g>
					<g>
						<path class="st0" d="M30.9,344.9l-3,12l-4.7-1.2l2.8-11.1l0.1-0.3l0,0l0.1-0.3l-12-3.1l1.2-5l12,3l1.7-6.6l-18.6-4.7
							l-4.8,18.9l11.4,2.9l-1.1,4.4l-1.7,6.6l18.6,4.8l4.7-18.6L30.9,344.9z M32.4,364.5L15,360l1.4-5.5l1.4-5.6L6.4,346l4.5-17.7
							l17.5,4.4l-1.4,5.5l-12-3l-1.6,6.1l12,3.1l-3,11.7l5.9,1.5l3-12l5.5,1.4L32.4,364.5z"/>
					</g>
				</g>
				<g>
					<g>
						<path class="st0" d="M68.3,369.8l6.6-1.7l-4.7-18.7l-18.6,4.8l2.8,11.1L43,368.2l1.2,4.9l0,0l3.5,14l18.7-4.8l-1.7-6.6l-12,3
							l-1.2-4.7l-0.1-0.3l12-3.1l-0.1-0.3l0,0L60.5,359l4.7-1.2L68.3,369.8z M62.7,370L62.7,370l0.1,0.3l-12,3v0.2l1.5,5.9l12-3
							l1.4,5.5l-17.5,4.4L45,373.6l0,0l-1.3-4.9l11.3-2.9l-2.8-11.1l17.4-4.5l4.4,17.5l-5.5,1.4l-3-12l-5.9,1.5L62.7,370z"/>
					</g>
				</g>
				<g>
					<g>
						<path class="st0" d="M105.6,344.9l-3,12l-4.7-1.2l2.8-11.1l0.1-0.3l0,0l0.1-0.3l-11.1-2.8L89,341l1.2-5l1.4,0.4l10.6,2.7
							l1.7-6.6l-9.6-2.4l-9-2.3l-4.8,18.9l6.9,1.7l4.5,1.1l-1.1,4.5l-1.7,6.6l18.6,4.8l4.7-18.6L105.6,344.9z M107,364.5L89.6,360
							l1.4-5.5l1.4-5.6l-5-1.3l-6.3-1.6l4.5-17.7l8.3,2.1l9.1,2.3l-1.4,5.5l-9.9-2.5l-2.1-0.5l-1.6,6.1l1.4,0.4l10.6,2.7l-3,11.7
							l5.9,1.5l3-12l5.5,1.4L107,364.5z"/>
					</g>
				</g>
				<g>
					<g>
						<path class="st0" d="M142.9,369.8l6.6-1.7l-4.7-18.7l-18.6,4.8l2.8,11.1l-11.3,2.9l1.2,4.9l0,0l3.5,14l18.7-4.8l-1.7-6.6
							l-12,3l-1.2-4.7l-0.1-0.3l12-3.1l-0.1-0.3l0,0l-2.9-11.4l4.7-1.2L142.9,369.8z M137.3,370L137.3,370l0.1,0.3l-12,3v0.2
							l1.5,5.9l12-3l1.4,5.5l-17.5,4.4l-3.2-12.8l0,0l-1.3-4.9l11.4-2.9l-2.8-11.1l17.4-4.5l4.4,17.5l-5.5,1.4l-3-12l-5.9,1.5
							L137.3,370z"/>
					</g>
				</g>
				<g>
					<g>
						<path class="st0" d="M180.3,344.9l-3,12l-4.7-1.2l3-11.7l-12-3.1l0.1-0.3l1.2-4.7l12,3l1.7-6.6l-18.6-4.7l-4.8,18.9l11.3,2.9
							l-1.1,4.4l-1.7,6.6l1.6,0.4c3.3,0.9,6.6,1.7,9.9,2.5l7.1,1.8l4.7-18.6L180.3,344.9z M181.7,364.5l-6.5-1.7
							c-3.3-0.8-6.6-1.7-10-2.5l-1-0.2l1.4-5.5l1.4-5.6l-11.3-2.9l4.5-17.7l17.5,4.4l-1.4,5.5l-12-3l-1.6,6.1l12,3.1l-3,11.7
							l5.9,1.5l3.1-12l5.4,1.4L181.7,364.5z"/>
					</g>
				</g>
				<g>
					<g>
						<path class="st0" d="M217.6,369.8l6.6-1.7l-4.7-18.7l-18.6,4.8l2.8,11.1l-11.4,2.9l1.2,4.9l0,0l3.5,14l18.6-4.8l-1.7-6.6
							l-12,3l-1.2-4.7l0,0l-0.1-0.3l12-3.1l-0.1-0.3l-2.9-11.4l4.7-1.2L217.6,369.8z M212,370l0.1,0.3l-12,3l0.1,0.2l1.5,5.9l12-3
							l1.4,5.5l-17.4,4.4l-3.2-12.8l0,0l-1.3-4.9l11.4-2.9l-2.8-11.1l17.4-4.5l4.4,17.5l-5.5,1.4l-3-12l-5.9,1.5L212,370z"/>
					</g>
				</g>
				<g>
					<g>
						<path class="st0" d="M254.9,344.9l-3,12l-4.7-1.2l3-11.7l-12-3.1l1.2-5l12,3l1.7-6.6l-18.6-4.7l-4.8,18.9l11.3,2.9l-1.1,4.4
							l-1.7,6.6l18.6,4.8l4.7-18.6L254.9,344.9z M256.4,364.5L239,360l1.4-5.5l1.4-5.6l-11.3-2.9l4.5-17.7l17.5,4.4l-1.4,5.5l-12-3
							l-1.6,6.1l12,3.1l-3,11.7l5.9,1.5l3-12l5.5,1.4L256.4,364.5z"/>
					</g>
				</g>
				<g>
					<g>
						<path class="st0" d="M30.9,391.7l6.7-1.7l-4.7-18.7l-18.6,4.8l2.8,11.1l-11.4,2.9l1.2,4.9l0,0l3.5,14l18.6-4.8l-1.7-6.6
							l-12,3.1l-1.2-4.7l-0.1-0.3l12-3.1l-0.1-0.3L23,380.9l4.7-1.2L30.9,391.7z M25.3,391.9l0.1,0.3l-12,3l0.1,0.2l1.5,5.9l12-3
							l1.4,5.5l-17.5,4.4l-3.2-12.8l0,0l-1.2-4.9l11.4-2.9L15,376.5l17.4-4.5l4.4,17.5l-5.5,1.4l-3-12l-5.9,1.5L25.3,391.9z"/>
					</g>
				</g>
				<g>
					<g>
						<path class="st0" d="M68.3,410.5l-3,12l-4.7-1.2l2.2-8.8l0.6-2.3l0.1-0.3l0.1-0.3l-12-3l1.3-5l12,3l1.7-6.7l-18.7-4.7
							L43,412.1l11.3,2.9l-1.1,4.4l0,0l-0.8,3.1l-0.9,3.6l18.6,4.8l4.7-18.6L68.3,410.5z M69.7,430.1l-17.4-4.5l0.9-3.6l0.5-1.8l0,0
							l1.4-5.6l-11.3-2.9l4.5-17.7l17.5,4.4l-1.4,5.5l-12-3.1l-1.5,6.2l12,3l-1,3.8l-2,7.9l5.9,1.5l3-12l5.5,1.4L69.7,430.1z"/>
					</g>
				</g>
				<g>
					<g>
						<path class="st0" d="M105.6,391.7l6.6-1.7l-4.7-18.7l-18.6,4.8l1.6,6.3l0.1,0.3l1.1,4.5l-11.4,2.9l1.2,4.9l0,0l3.5,14
							l18.6-4.8l-1.7-6.6l-12,3.1l-1.2-4.7l-0.1-0.3l12-3.1l-0.1-0.3l-2.9-11.4l4.7-1.2L105.6,391.7z M100,391.9l0.1,0.3l-12,3
							l0.1,0.2l1.5,5.9l12-3l1.4,5.5l-17.5,4.4l-3.2-12.8l0,0l-1.2-4.9l11.4-2.9l-2.8-11.1l17.4-4.5l4.4,17.5l-5.5,1.4l-3-12
							l-5.9,1.5L100,391.9z"/>
					</g>
				</g>
				<g>
					<g>
						<path class="st0" d="M142.9,410.5l-3,12l-4.7-1.2l3-11.7l-12-3l1.3-5l12,3l1.7-6.7l-18.7-4.7l-4.8,18.9L129,415l-1.1,4.4l0,0
							l-1.7,6.7l18.6,4.8l4.7-18.6L142.9,410.5z M144.4,430.1l-17.4-4.5l1.4-5.4l0,0l1.4-5.6l-11.4-2.9l4.5-17.7l17.5,4.4l-1.4,5.5
							l-12-3.1l-1.5,6.2l12,3l-3,11.7l5.9,1.5l3-12l5.5,1.4L144.4,430.1z"/>
					</g>
				</g>
				<g>
					<g>
						<path class="st0" d="M180.3,391.7l6.6-1.7l-4.7-18.7l-7.1,1.8c-3.3,0.8-6.6,1.7-9.9,2.5l-1.6,0.4l2.8,11.1l-11.3,2.9l1.2,4.9
							l0,0l3.5,14l18.6-4.8l-1.7-6.6l-12,3.1l-1.2-4.7l-0.1-0.3l12-3.1l-0.1-0.3l0,0l-2.9-11.4l4.7-1.2L180.3,391.7z M174.7,391.9
							L174.7,391.9l0.1,0.3l-12,3l0.1,0.2l0,0l1.5,5.9l12-3l1.4,5.5l-17.5,4.4l-3.2-12.8l0,0l-1.2-4.9l11.3-2.9l-2.8-11.1l1-0.2
							c3.3-0.9,6.6-1.7,10-2.5l6.5-1.7l4.4,17.5l-5.4,1.4l-3.1-12l-5.9,1.5L174.7,391.9z"/>
					</g>
				</g>
				<g>
					<g>
						<path class="st0" d="M217.6,410.5l-3,12l-4.7-1.2l3-11.7l-12-3l0.1-0.3l1.2-4.7l12,3l1.7-6.7l-18.6-4.7l-4.8,18.9l11.4,2.9
							l-1.1,4.4l0,0l-1.7,6.7l18.6,4.8l4.7-18.6L217.6,410.5z M219.1,430.1l-17.4-4.5l1.4-5.4l0,0l1.4-5.6l-11.4-2.9l4.5-17.7
							l17.4,4.4l-1.4,5.5l-12-3.1L200,407l12,3l-3,11.7l5.9,1.5l3-12l5.5,1.4L219.1,430.1z"/>
					</g>
				</g>
				<g>
					<g>
						<path class="st0" d="M254.9,391.7l6.7-1.7l-4.7-18.7l-18.6,4.8l2.8,11.1l-11.3,2.9l1.2,4.9l0,0l3.5,14l18.6-4.8l-1.7-6.6
							l-12,3.1l-1.2-4.7l-0.1-0.3l12-3.1l-0.1-0.3l-2.9-11.4l4.7-1.2L254.9,391.7z M249.3,391.9L249.3,391.9l0.1,0.3l-12,3l0.1,0.2
							l0,0l1.5,5.9l12-3l1.4,5.5l-17.5,4.4l-3.2-12.8l0,0l-1.2-4.9l11.3-2.9l-2.8-11.1l17.4-4.5l4.4,17.5l-5.5,1.4l-3-12l-5.9,1.5
							L249.3,391.9z"/>
					</g>
				</g>
				<g>
					<g>
						<path class="st0" d="M30.9,432.4l-3,12l-4.7-1.2l3-11.7l-12-3l0.5-1.8l0.8-3.2l12,3l1.7-6.7l-18.6-4.7L8,425l-2.3,9l11.4,2.9
							l-1.1,4.4l-1.7,6.7l18.6,4.8l4.7-18.6L30.9,432.4z M32.4,452L15,447.5l1.4-5.4l1.4-5.6l-11.4-2.9l2.1-8.4l2.3-9.3l17.5,4.4
							l-1.4,5.5l-12-3l-1,3.8l-0.6,2.4l12,3l-3,11.7l5.9,1.5l3-12l5.5,1.4L32.4,452z"/>
					</g>
				</g>
				<g>
					<g>
						<path class="st0" d="M68.3,457.3l6.6-1.7L70.2,437l-18.6,4.8l2.8,11.1L43,455.7l1.2,4.9l0,0l3.5,14l18.7-4.7l-1.7-6.7l-12,3.1
							l-1.2-4.7l-0.1-0.3l12-3l-0.1-0.3l0,0l-2.9-11.4l4.7-1.2L68.3,457.3z M62.7,457.5L62.7,457.5l0.1,0.3l-12,3v0.2l1.5,5.9
							l12-3.1l1.4,5.5l-17.5,4.4L45,461.1l0,0l-1.3-4.9l11.3-2.9l-2.8-11.1l17.4-4.5l4.4,17.5l-5.5,1.4l-3-12l-5.9,1.5L62.7,457.5z"
							/>
					</g>
				</g>
				<g>
					<g>
						<path class="st0" d="M105.6,432.4l-3,12l-4.7-1.2l3-11.7l-12-3l1.2-5l12,3l1.7-6.7l-18.6-4.7L80.3,434l11.4,2.9l-1.1,4.4l0,0
							l-1.7,6.7l18.6,4.8l4.7-18.6L105.6,432.4z M107,452l-17.4-4.5L91,442l0,0l1.4-5.6L81,433.5l4.5-17.7l17.5,4.4l-1.4,5.5l-12-3
							l-1.6,6.2l12,3l-3,11.7l5.9,1.5l3-12l5.5,1.4L107,452z"/>
					</g>
				</g>
				<g>
					<g>
						<path class="st0" d="M142.9,457.3l6.6-1.7l-4.7-18.7l-18.6,4.8l2.8,11.1l-11.3,2.9l1.2,4.9l0,0l3.5,14l18.7-4.7l-1.7-6.7
							l-12,3.1l-1.2-4.7l-0.1-0.3l12-3L138,458l0,0l-2.9-11.4l4.7-1.2L142.9,457.3z M137.3,457.5L137.3,457.5l0.1,0.3l-12,3v0.2
							l1.5,5.9l12-3.1l1.4,5.5l-17.5,4.4l-3.2-12.8l0,0l-1.3-4.9l11.4-2.9l-2.8-11.1l17.4-4.5l4.4,17.5l-5.5,1.4l-3-12l-5.9,1.5
							L137.3,457.5z"/>
					</g>
				</g>
				<g>
					<g>
						<path class="st0" d="M180.3,432.4l-3,12l-4.7-1.2l3-11.7l-12-3l0.1-0.3l1.2-4.7l12,3l1.7-6.7l-18.6-4.7l-5,18.9l11.3,2.9
							l-1.1,4.4l-1.7,6.7l1.6,0.4c3.3,0.8,6.6,1.7,9.9,2.5l7.1,1.8l4.7-18.6L180.3,432.4z M181.7,452l-6.5-1.7
							c-3.3-0.9-6.6-1.7-10-2.5l-1-0.2l1.4-5.4l1.4-5.6l-11.3-2.9l4.5-17.7l17.5,4.4l-1.4,5.5l-12-3l-1.6,6.2l12,3l-0.1,0.3
							l-2.9,11.4l5.9,1.5l3.1-12l5.4,1.4L181.7,452z"/>
					</g>
				</g>
				<g>
					<g>
						<path class="st0" d="M217.6,457.3l6.6-1.7l-4.7-18.7l-18.6,4.8l2.8,11.1l-11.4,2.9l1.2,4.9l0,0l3.5,14l18.6-4.7l-1.7-6.7
							l-12,3.1l-1.2-4.7l0,0l-0.1-0.3l12-3l-0.1-0.3l-2.9-11.4l4.7-1.2L217.6,457.3z M212,457.5l0.1,0.3l-12,3l0.1,0.2l1.5,5.9
							l12-3.1l1.4,5.5l-17.4,4.4l-3.2-12.8l0,0l-1.3-4.9l11.4-2.9l-2.8-11.1l17.4-4.5l4.4,17.5l-5.5,1.4l-3-12l-5.9,1.5L212,457.5z"
							/>
					</g>
				</g>
				<g>
					<g>
						<path class="st0" d="M254.9,432.4l-3,12l-4.7-1.2l3-11.7l-12-3l1.2-5l12,3l1.7-6.7l-18.6-4.7l-4.8,18.9l11.3,2.9l-1.1,4.4
							l-1.7,6.7l18.6,4.8l4.7-18.6L254.9,432.4z M256.4,452l-17.4-4.5l1.4-5.4l1.4-5.6l-11.3-2.9l4.5-17.7l17.5,4.4l-1.4,5.5l-12-3
							l-1.6,6.2l12,3l-0.1,0.3l-2.9,11.4l5.9,1.5l3-12l5.5,1.4L256.4,452z"/>
					</g>
				</g>
			</g>
		</g>
	</g>
</g>
</svg>
