<?xml version="1.0" encoding="utf-8"?>
<!-- Generator: Adobe Illustrator 25.1.0, SVG Export Plug-In . SVG Version: 6.00 Build 0)  -->
<svg version="1.1" id="Layer_1" xmlns="http://www.w3.org/2000/svg" xmlns:xlink="http://www.w3.org/1999/xlink" x="0px" y="0px"
	 viewBox="0 0 1920 1080" style="enable-background:new 0 0 1920 1080;" xml:space="preserve">
<style type="text/css">
	.st0{fill:#47B76A;}
	.st1{fill:#E3C233;}
</style>
<path class="st0" d="M318.4,973.2l262.6-262.6L493,622.5L318.7,796.8L266,744.1l-24.3-24.3l165.8-165.9l-0.1-0.1l4.5-4.5
	L237.6,374.9l3.6-3.7l0,0l77.1-77.2l161.7,161.7l12.9,12.8l88.1-88.1L318.4,117.8L215.3,221.1l-91.3,91.3l0.2,0.2v0l-67.9,67.9
	l-3.9,3.9l165.2,165.1l-73.1,73.1l-0.1-0.1l-88.1,88.2l0,0L74.7,729c76.2,76.3,152.4,152.7,228.6,229.1L318.4,973.2z"/>
<path class="st1" d="M623.2,500c1.4-0.8,2.9-1.6,4.6-2.5c1.4,3.7,1.4,7.5,3,10.9c5.3,11.2,14,17.4,26.4,17.4
	c16.6,0,32.4-4.8,48.3-9.1c3.4-0.9,6.9-1.8,10.2-3c4.7-1.7,6.6-5.3,5.4-9.5c-1.2-4.1-5.3-6.9-9.6-4.9c-6.6,3-9.8,0.4-13.7-4.6
	c-6.9-8.8-14.9-16.6-24.7-23.4c6.3-3.6,12-6.9,17.9-10.3c4,17.8,12.4,26.7,26.6,28.4c7,0.8,13.9-0.5,20.7-1.8
	c13.1-2.5,26.1-5.8,38.9-9.8c6.2-2,8.7-5.5,7.2-10.2c-1.5-4.5-5.4-6.1-11.2-4.4c-15.8,4.5-31.6,9-48,10.8
	c-12.6,1.3-21.3-7.6-17.5-18.4c3-8.5,13.3-12.2,20.9-7.4c2.3,1.4,4.3,3.3,6.6,4.7c3.8,2.4,8,1.6,10.4-1.7c2.4-3.3,1.8-7.6-1.5-10.5
	c-2.3-2-4.7-3.6-7.6-5.8c6.1-3.6,11.8-6.9,17.6-10.2c2.1,2.5,1.3,5.6,2.3,8.2c5.4,14.2,17.4,21.8,32.8,20.1
	c17.9-2,35.3-6.6,52.4-11.9c5.5-1.7,7.7-5.5,6.2-9.9c-1.5-4.4-5.6-6.6-10.7-4.5c-5.4,2.3-8.3,0.5-11.6-3.8
	c-7.2-9.2-15.5-17.5-25.7-24.5c6.1-3.6,11.9-6.9,17.7-10.3c1.9,2.6,1.1,5.5,2.1,8c5.5,14.9,18.3,22.3,34.7,20.1
	c16.7-2.2,32.9-6.5,49-11.2c1.3-0.4,2.6-0.8,3.8-1.4c3.6-1.9,5.3-4.9,4.1-8.8c-1.3-4-4.7-6.9-8.6-5.1c-7.8,3.5-11.6-0.2-16-5.8
	c-6.5-8.3-14.1-15.6-23.4-22c2.7-1.6,5.1-2.9,7.4-4.5c1.8-1.2,2.9-0.7,4.4,0.5c14,10.5,29.5,9.1,41.4-3.9c8-8.7,13.5-19.1,18.5-29.6
	c1.9-4,4.2-7.1,8.3-9c2.3-1,4.5-2.4,6.4-4.1c2.8-2.6,3.1-6,1.1-9.3c-2-3.1-5-4.5-8.8-3.1c-0.5,0.2-1.1,0.2-1.4,0.5
	c-7.1,6-15.2,5.9-23.9,5.1c-9.6-0.9-19.3-0.3-28.9,1.8c-15.6,3.4-25,17.4-22.9,32.3c0.4,3.2-0.3,5.1-3.3,6.4
	c-1.9,0.8-3.5,1.9-5.9,3.3c-1.1-9.6-3.1-18.6-6-27.3c-0.4-1.3-0.6-2.7-1.2-3.9c-3.1-6.2-4.7-11.8,2.6-16.8c3.4-2.3,2.9-6.8,0-10
	c-2.9-3.1-6.8-3.7-10-0.7c-15.2,13.8-30.3,27.8-41,45.7c-6.6,11-5.3,27.5,10.4,39c-5.6,3.2-10.9,6.3-16.2,9.4
	c-1.9,1.1-2.3,0-2.4-1.6c-1.1-12.6-5.1-24.5-9.6-36.2c-0.9-2.2-0.3-3.4,1.3-4.7c1.7-1.4,3.4-2.9,4.7-4.7c2.4-3.3,2.3-6.8-0.4-9.7
	c-2.6-2.8-5.9-3.2-9.3-1.3c-0.6,0.3-1.2,0.7-1.7,1.1c-12.7,12-25.2,24.3-35.8,38.2c-12.3,16.2-9.7,34,6.1,45.9
	c-5.5,3.2-10.8,6.3-16.1,9.4c-1.8,1.1-2.3,0.1-2.4-1.6c-1-12.5-5-24.2-9.4-35.7c-0.9-2.3-0.6-3.7,1.2-5.2c1.7-1.4,3.4-2.9,4.6-4.7
	c2.4-3.3,2.2-6.8-0.5-9.7c-2.6-2.8-5.9-3.1-9.3-1.2c-0.6,0.3-1.2,0.7-1.7,1.2c-12.7,11.8-24.9,24-35.5,37.8
	c-12.3,16-10.7,33.8,5.7,46.3c-5.5,3.2-10.8,6.3-16.1,9.4c-1.8,1-2.3,0.1-2.4-1.7c-1-12.3-4.8-23.9-9.3-35.2c-1-2.6-1-4.3,1.4-6.1
	c1.7-1.3,3.3-2.9,4.6-4.7c2.2-3.2,1.8-6.5-0.8-9.3c-2.5-2.7-5.6-3-8.8-1.5c-0.8,0.3-1.5,0.9-2.1,1.4c-13.6,12.8-27.2,25.6-37.7,41.2
	c-9.9,14.7-7.6,29.5,6,41.1c0.6,0.5,1.5,0.8,2.8,1.4c-27.4,15.8-53.6,30.9-79.9,46.1c-2,1.1-3.8,1.1-5.9,0.9
	c-19.5-1.8-39-1.6-58.5-1.7c-4.8,0-8.4,1.3-10.7,5.6v5.1c3,4.1,7.3,4.7,12.1,4.7c10.7-0.1,21.3,0.1,32,0.2c1.1,0,2.7-0.8,3.6,1
	c-13.5,7.8-26.9,15.7-40.4,23.3c-2.9,1.7-5.6,3.5-7.2,6.4v5.1c5.5,5.7,7.6,5.9,14.9,1.7C528.5,554.7,575.9,527.3,623.2,500
	 M887.1,347.8c-5-2.5-8.3-8.3-7.7-13.8c0.7-6.3,4-10.7,10.3-12.4c9.7-2.6,19.6-2.2,30.3-1.8c-5.1,9.4-9.5,18.5-17,25.6
	C898.4,349.6,892.3,350.4,887.1,347.8 M814.9,358.2c-4.3-4.9-4.7-11.3-0.8-17.4c5.1-7.8,11.3-14.7,18.4-22.1
	c2.9,9.6,6.3,18.3,7.2,27.6c0.7,6.8-2.7,13.1-8.7,15.7C825.4,364.5,819,363,814.9,358.2 M838.3,376.3c4.7-3.9,11.4-4.7,16.6-1.4
	c8.6,5.5,15.3,13.1,22.2,21.3c-10.2,2.4-19.7,4.6-29.5,4.8c-6.3,0.1-11.3-3.4-13.4-9C832.1,386.3,833.8,380,838.3,376.3
	 M751.8,394.9c-4.1-4.5-4.8-11-1.5-16.5c5.1-8.4,11.6-15.6,19-23.2c3,10,6.5,18.8,7.3,28.3c0.5,6.1-2.9,12.2-8.6,14.8
	C762.4,401,755.9,399.6,751.8,394.9 M773,414.9c4.6-6,13.4-7.3,20-2.7c7.9,5.5,14.2,12.5,20.9,20.4c-10.3,2.6-20,4.6-30,4.9
	c-3.3,0.1-6.3-1.2-8.8-3.3C769.3,429.3,768.4,420.8,773,414.9 M689.1,432.1c-4.1-4.1-5.6-10.4-3-15.4c4.9-9.4,12.1-16.8,19.8-25
	c3.1,10.3,6.7,19.3,7.3,29c0.4,6-3.1,11.8-8.7,14.2C699.3,437.3,693.3,436.2,689.1,432.1 M624.8,467.5c-4-5-4.2-11.4-0.2-17.4
	c5.1-7.6,11.1-14.5,18.1-21.7c2.9,9.8,6.5,18.5,7.2,28c0.5,7.1-2.8,12.9-9.1,15.3C635.2,474,628.7,472.2,624.8,467.5 M648.9,485.6
	c5.2-4,11.9-4.3,17.5-0.3c7.9,5.6,14.5,12.7,20.8,20.4c-9.3,2.5-18.4,4.2-27.8,4.8c-7.3,0.5-12.6-2.7-15-8.9
	C642.2,495.7,644,489.4,648.9,485.6"/>
<path class="st1" d="M887,778.6c2.9-3.2,3.2-7.9-0.7-10.8c-5.7-4.2-5.1-8.3-2.8-14.2c4.1-10.4,7-21.2,7.8-33c3,1.7,5.6,3.1,8.2,4.6
	c1.4,0.8,1.4,1.9,1.3,3.4c-1.7,20.2,9,33,29.1,35.2c10,1.1,20,1.3,30,0.2c4-0.4,7.6,0,11,2.4c2.2,1.6,4.7,2.7,7.2,3.7
	c3.5,1.4,6.4-0.1,8.4-3c2-3,1.8-6.1-0.5-8.9c-0.6-0.8-1.4-1.6-2.3-2c-8.5-3.1-12.4-10.1-16.1-17.8c-4.4-9.2-9.7-17.9-17-25.2
	c-10.2-10.3-25.9-12.3-37.5-3.7c-4,2.9-6.6,2.6-10,0.1c-1.2-0.9-2.5-1.6-4-2.5c11.2-7.8,20.1-17.5,28.5-27.9
	c1.3-1.7,2.5-2.6,4.6-1.5c1.3,0.7,2.9,1,4.4,1.3c5.2,1.3,9.2-0.5,10.5-4.5c1.4-4.5-0.7-8.4-6.1-10c-10.6-3.1-21.2-6-31.8-8.6
	c-7.1-1.7-14.3-3-21.6-3.3c-19.2-0.8-30.7,8.8-33.5,28.5c-6.1-3.5-12.1-6.9-18.1-10.4c3.2-2.6,6.2-4.8,9-7.2c4.1-3.6,4.8-8.1,2-11.6
	c-2.8-3.5-7.4-3.6-11.7-0.2c-2.4,1.9-4.7,4-7.3,5.6c-5.2,3.2-11.9,2.6-16.7-1.2c-4.5-3.6-6.3-10.1-4.3-15.7c2.1-5.7,6.8-9.2,13.3-9
	c13.5,0.3,26.4,3.9,39.4,7.3c4.9,1.3,9.7,2.9,14.7,4.1c4.3,1.1,8.2-1,9.4-4.8c1.3-3.9-0.5-8.2-4.7-9.5
	c-19.1-5.9-38.3-11.8-58.5-12.5c-13.3-0.4-27.5,8.3-29.8,28c-1.9,0.1-3.1-1.2-4.5-2c-4.5-2.5-9-5.2-13.7-8
	c11-7.6,19.7-16.9,27.7-26.9c2-2.5,3.8-3.5,6.7-2.1c1.1,0.5,2.3,0.7,3.4,1c4.9,1.3,9-0.7,10.3-4.8c1.2-4.2-1-8.3-5.9-9.7
	c-17.4-5.1-34.7-10.3-53-11.8c-18.8-1.6-31.9,8.9-34.2,28.4c-6.2-3.5-12-6.9-18.3-10.5c11.4-8,20.3-17.7,28.6-28
	c1.4-1.8,2.8-2.1,4.8-1.4c1.9,0.7,3.8,1.4,5.8,1.7c4.3,0.7,7.5-1.1,8.8-5.1c1.3-4.1-0.3-7.5-4.4-9.1c-3.4-1.4-7-2.4-10.6-3.4
	c-14.7-4-29.4-7.8-44.7-9.2c-18.1-1.6-31.4,11-32.8,25.5c-0.5,4.8-3.1,1.7-4.4,0.9c-16.2-8.8-33-16.5-50.5-22.5
	c-7.5-2.6-15.2-4.8-22.8-7c-5.9-1.7-9.6,0-11.2,4.7c-1.4,4.4,1.1,8.4,6.8,10c25.6,7,50,16.8,73.7,30.3c-4.2,3.5-8.3,7-10.6,11.9
	c-5.4,11.3-4,22,3.3,32.1c10.7,14.8,23.7,27.5,37,39.9c3.7,3.5,8.4,3.2,11.3-0.1c2.8-3.2,3-7.9-1-10.8c-5.6-4.1-5.1-8.1-2.8-13.7
	c4.2-10.4,6.9-21.2,8.1-33.3c6.1,3.5,11.9,6.8,18,10.3c-2.3,2.2-4.7,4-6.6,6.2c-9.8,12-9.9,25.5-0.2,38.7
	c10.5,14.3,23.1,26.7,35.9,38.8c4,3.8,8.7,3.7,11.7,0.3c3.2-3.5,3-8-1.6-11.5c-4.8-3.6-4.5-7-2.5-12c4.4-10.8,7.4-22.1,8.4-34.4
	c6.1,3.5,11.9,6.9,18.3,10.5c-6.8,4.8-11.3,10.9-13.3,18.6c-2.4,9.4,0.3,17.8,5.8,25.4c10.7,14.8,23.6,27.6,36.9,40
	c3.7,3.5,8.4,3.2,11.3-0.1c2.9-3.2,2.6-7.2-0.9-11c-1.2-1.2-2.4-2.4-3.7-3.5c-1.8-1.4-1.9-2.8-1.1-4.9c4.9-12.3,8.6-24.9,10-38.6
	c6.1,3.6,11.9,6.9,18.3,10.6c-6.9,4.8-11.4,10.8-13.4,18.4c-2.3,8.9-0.2,17.1,5.1,24.6c10.8,15.4,24.2,28.4,37.9,41.1
	C879.6,782.1,884.1,781.8,887,778.6 M685.2,583.4c-4.8-3.6-6.8-10.2-4.7-15.9c2.1-5.7,7.4-9.5,13.8-9.2c9.7,0.5,19.1,2.2,29.1,4.9
	c-6.7,8-13.2,15.1-21.1,20.7C697.1,587.6,690.3,587.3,685.2,583.4 M686.1,612c-1,9.7-3.7,19-7.4,28.4c-6.8-7.1-13.2-14.1-18.3-22.1
	c-3.9-6.1-3.5-12.3,0.8-17.3c3.8-4.4,10.3-6,15.7-3.9C682.8,599.4,686.8,605.6,686.1,612 M748.5,620c-4.7-3.5-6.6-9.8-4.9-15.5
	c1.9-5.9,7.3-10,14-9.7c9.6,0.4,19.1,2.3,29.1,4.9c-6.7,8-13.2,15.1-21.2,20.7C760.3,624.2,753.5,623.8,748.5,620 M749.3,649.2
	c-1.1,9.4-3.7,18.5-7.3,27.8c-6.8-7.3-13.1-14.1-18.1-22c-2.3-3.5-3.6-7.2-2.5-11.5c1.9-7.1,8.8-12,15.6-10.8
	C744.9,634,750.3,641.1,749.3,649.2 M805.3,713.6c-6.9-7.2-13-14-18-21.7c-2.2-3.3-3.7-6.9-2.8-11c1.5-7.2,8.2-12.4,15.1-11.7
	c7.2,0.7,13.3,7,13.1,14.4C812.3,693.8,809,703.4,805.3,713.6 M874.9,693c-4.6-3.6-6.6-10-4.8-15.5c2-6,7.2-9.6,14-9.5
	c9.6,0.2,19,2.4,28.9,4.7c-6.3,8.2-13.1,15.2-21.1,20.8C886.8,697.2,879.8,696.8,874.9,693 M938.8,723.2c7,6.6,11.4,15.1,16,23.4
	c0.8,1.4,1.1,2.6-1.2,2.6c-9.7,0.3-19.3,0.7-28.7-2.3c-6.8-2.2-10.3-8.5-9.2-15.6c1.1-6.7,7-11.6,14.7-11.6
	C933.2,719.6,936.2,720.7,938.8,723.2 M850.6,728.4c-2.1-3.2-3.6-6.5-2.9-10.5c1.3-7.5,7.8-12.8,15.1-12.2
	c7.4,0.6,13.4,7.1,13.1,14.8c-0.4,10.1-3.7,19.5-7.2,29.5C861.7,742.9,855.6,736.1,850.6,728.4"/>
</svg>
