<?xml version="1.0" encoding="utf-8"?>
<!-- Generator: Adobe Illustrator 25.1.0, SVG Export Plug-In . SVG Version: 6.00 Build 0)  -->
<svg version="1.1" id="Layer_1" xmlns="http://www.w3.org/2000/svg" xmlns:xlink="http://www.w3.org/1999/xlink" x="0px" y="0px"
	 viewBox="0 0 837 565" style="enable-background:new 0 0 837 565;" xml:space="preserve">
<style type="text/css">
	.st0{fill:#FFFFFF;}
</style>
<path class="st0" d="M805.5,290L567.9,52.3L488.2,132l157.7,157.7l-47.7,47.7l-21.9,21.9l-150.1-150l-0.1,0.1l-4.1-4.1L264.1,363.1
	l-3.3-3.3l0,0L190.9,290l146.4-146.4l11.6-11.6l-79.7-79.7L31.5,290l93.4,93.3l82.6,82.6l0.2-0.2h0l61.4,61.4l0,0l3.5,3.5L422,381.2
	l66.2,66.2l-0.1,0.1l79.8,79.7l0,0l0,0l16.6-16.6c69.1-69,138.2-137.9,207.3-206.9L805.5,290z"/>
</svg>
