<?xml version="1.0" encoding="utf-8"?>
<!-- Generator: Adobe Illustrator 25.1.0, SVG Export Plug-In . SVG Version: 6.00 Build 0)  -->
<svg version="1.1" id="Layer_1" xmlns="http://www.w3.org/2000/svg" xmlns:xlink="http://www.w3.org/1999/xlink" x="0px" y="0px"
	 viewBox="0 0 1920 1080" style="enable-background:new 0 0 1920 1080;" xml:space="preserve">
<style type="text/css">
	.st0{fill:#FFFFFF;}
	.st1{fill:#47B76A;}
	.st2{display:none;opacity:0.7;}
	.st3{display:inline;}
</style>
<rect class="st0" width="1920" height="1080"/>
<g>
	<g>
		<g>
			<path class="st1" d="M1920,479.3v487c-2.5-1.2-4.9-2.5-7.3-3.9c-0.2-0.2-0.5-0.3-0.9-0.5c-2.7-1.5-5.2-3.2-7.8-4.9
				c-0.2-0.2-0.5-0.4-0.9-0.6c-4.7-3.2-9.3-7-13.5-10.9c-0.3-0.2-0.5-0.5-0.7-0.7c-0.6-0.6-1.3-1.2-1.8-1.8
				c-1.7-1.6-3.2-3.3-4.7-4.9c-0.2-0.3-0.5-0.5-0.7-0.8c-1.8-2.2-3.6-4.4-5.1-6.6c-0.2-0.3-0.5-0.6-0.6-0.9c-3-4.5-5.6-9.2-7.5-14.2
				c-0.3-0.5-0.4-1.1-0.6-1.6c-0.6-1.5-1.1-3-1.6-4.5c-0.2-0.5-0.2-0.8-0.4-1.3c-1.3-4.1-2.1-8.4-2.8-12.7c0-0.5-0.2-1-0.2-1.5
				c-0.9-7.7-0.9-15.8-0.2-24.1c2-22.5,24.1-93.5,32.9-125.7c0.3-1.2,0.6-2.2,0.9-3.3c0.9-3.5,1.7-6.3,2.2-8.5
				c2.4-10.8,2-21.3-0.7-31.3c-0.2-0.5-0.3-1-0.5-1.4c-1.5-5.2-3.8-10.3-6.7-15.2c-0.1-0.3-0.3-0.4-0.4-0.7c-1-1.7-2.1-3.4-3.4-5.1
				c-1-1.4-1.9-2.8-3-4c-0.2-0.3-0.4-0.6-0.7-0.9c-2-2.7-4-5.3-6-7.9c-0.7-0.8-1.3-1.6-1.9-2.4c-1.3-1.6-2.5-3.2-3.8-4.7
				c-0.2-0.3-0.4-0.6-0.7-0.8c-3.8-4.6-7.8-9.3-11.6-14c-0.2-0.3-0.4-0.6-0.7-0.9c-1.9-2.3-3.8-4.5-5.7-6.8
				c-0.1-0.2-0.3-0.4-0.4-0.6c-0.2-0.3-0.4-0.6-0.7-0.9c-1.7-2.1-3.6-4.2-5.3-6.4c-0.2-0.3-0.4-0.6-0.7-0.8
				c-2.2-2.7-4.6-5.4-6.9-8.2c-0.2-0.3-0.4-0.6-0.7-0.9c-0.6-0.7-1.3-1.5-1.9-2.2c-0.8-0.9-1.4-1.7-2.2-2.6
				c-2.7-3.2-5.4-6.4-8.1-9.7c-0.2-0.3-0.4-0.6-0.7-0.9c-4.1-5-8.1-10.2-11.9-15.4c-4.3-6-7.6-12.3-9.7-19.2c-0.1-0.3-0.2-0.7-0.3-1
				c-2.1-7.7-2.6-15.8-1.1-24.3c0.3-1.6,0.6-3.2,1-4.6c0.1-0.3,0.2-0.7,0.2-1c1.9-7,5.1-13.4,9.2-19.3c0.2-0.2,0.4-0.5,0.6-0.9
				c0.8-1,1.5-1.9,2.2-3c1.6-1.9,3.2-3.8,4.7-5.7c1.3-1.5,2.6-2.9,3.9-4.3c13.6-14.3,29.4-24.6,49.3-28.2c0.4-0.1,1-0.2,1.4-0.2
				c2.1-0.4,4.2-0.6,6.4-0.8c3.6-0.3,7.2-0.5,10.8-0.3c0.6,0,1.3,0,2,0C1903.1,475.5,1911.7,476.9,1920,479.3z"/>
		</g>
	</g>
	<g class="st2">
		<g class="st3">
			<g>
				<g>
					<g>
						<path class="st0" d="M1859.2,435l11.1,0.7l2.2-31.2l-12.4-0.8c-5.4-0.4-10.8-0.7-16.3-1.2l-2.6-0.1L1840,421l-19-1.4l-0.6,8.2
							l0,0l-1.6,23.4l31.2,2.2l0.7-11.1l-20.1-1.4l0.6-7.8v-0.4l20.1,1.4l0.1-0.5l0,0l1.4-19l7.8,0.5L1859.2,435z M1850.6,432.5
							L1850.6,432.5l-0.1,0.5l-20.1-1.4v0.4l-0.7,9.9l20.1,1.4l-0.6,9.2l-29.2-2.1l1.5-21.4l0,0l0.6-8.2l19,1.4l1.3-18.5l1.6,0.1
							c5.4,0.4,10.8,0.7,16.3,1.2l11.3,0.8l-2.1,29.2l-9.2-0.6l1.4-20.1l-9.9-0.7L1850.6,432.5z"/>
					</g>
				</g>
				<g>
					<g>
						<path class="st0" d="M1907.3,483.2l-10.9,16.9l-6.6-4.2l10.5-16.5l-6-3.9l-11-7l4.4-7.1l16.9,10.9l6.1-9.4l-26.3-16.8
							l-17.1,26.7l6.3,4.1l9.8,6.2l-4,6.3l-6.1,9.4l2.2,1.4c4.6,3,9.2,5.9,13.8,8.9l10.3,6.6l16.8-26.3L1907.3,483.2z M1899.6,514.1
							l-9.5-6.1c-4.6-3-9.2-5.9-13.8-8.9l-1.4-0.9l4.9-7.8l0,0l5-7.9l-9.7-6.1l-6.4-4.1l16-25l24.7,15.8l-5,7.7l-16.9-10.9l-5.5,8.7
							l10.4,6.6l6.6,4.2l-10.5,16.5l8.4,5.3l10.8-17l7.7,5L1899.6,514.1z"/>
					</g>
				</g>
				<g>
					<g>
						<path class="st0" d="M1974.5,473.2l11.1,0.7l2.2-31.2l-12.5-0.9c-5.3-0.4-10.8-0.7-16.2-1.1l-2.6-0.1l-1.3,18.5l-18.9-1.4
							l-0.6,8.2l0,0l-1.4,18.7l-0.4,4.6l14.1,1l17.1,1.2l0.7-11.1L1946,479l0.6-7.8v-0.4l20.1,1.4l0.1-0.5l1.4-19l7.8,0.5
							L1974.5,473.2z M1965.8,470.6L1965.8,470.6l-0.1,0.5l-20.1-1.4v0.4l-0.7,9.9l20.1,1.4l-0.6,9.2l-19.1-1.4l-10.1-0.7l0.2-3.3
							l1.3-18.1l0,0l0.6-8.2l19,1.4l1.3-18.5l1.6,0.1c5.3,0.4,10.8,0.7,16.2,1.1l11.4,0.8l-2.1,29.2l-9.2-0.6l1.4-20.1l-9.9-0.7
							L1965.8,470.6z"/>
					</g>
				</g>
				<g>
					<g>
						<path class="st0" d="M2027.9,524.7l-5.3-3.3l-0.7,1l-10.2,15.9l-6.6-4.2l9.4-14.7l1.1-1.8l-16.9-10.9l4.5-7l16.9,10.9l6.1-9.4
							l-26.3-16.8l-14.2,22.4l-2.8,4.3l16.1,10.3l-4,6.3l-6.1,9.4l2.2,1.4c4.5,2.9,9,5.8,13.6,8.7l10.6,6.8l16.8-26.3L2027.9,524.7z
							 M2014.8,552.3l-9.7-6.3c-4.5-2.9-9.1-5.7-13.6-8.7l-1.4-0.9l4.9-7.8l0,0l5-7.9l-16.1-10.3l2.4-3.6l13.6-21.4l24.7,15.8
							l-5,7.7l-16.9-10.9l-5.5,8.7l16.9,10.9l-0.7,1.1l-9.8,15.4l8.4,5.3l10.8-17l0,0l0.2,0.1l7.6,4.8L2014.8,552.3z"/>
					</g>
				</g>
				<g>
					<g>
						<path class="st0" d="M1838.4,497.9l-10.8,17l-6.6-4.2l3.5-5.6l6.5-10.2l0.3-0.4l0.3-0.4l-16.9-10.9l4.4-7.1L1836,487l6.1-9.4
							l-26.3-16.8l-17.1,26.7l16.1,10.3l-4,6.3l0,0l-6.1,9.4l2.2,1.4c2.1,1.3,4.1,2.6,6.2,3.9c2.3,1.5,4.7,3,7,4.5l11,7l16.8-26.3
							L1838.4,497.9z M1830.7,528.8l-10.1-6.5c-2.3-1.5-4.7-3-7-4.5c-2.1-1.3-4.2-2.6-6.2-3.9l-1.4-0.9l4.9-7.8l0,0l5-7.9
							l-16.1-10.3l16-25l24.7,15.8l-5,7.7l-16.9-10.9l-5.5,8.7l16.9,10.9l-9.6,15l-0.9,1.5l8.4,5.3l10.9-16.9l7.7,5L1830.7,528.8z"
							/>
					</g>
				</g>
				<g>
					<g>
						<path class="st0" d="M1883.4,555.4l11.1,0.7l2.2-31.2l-12.1-0.9c-5.5-0.3-11-0.8-16.5-1.1l-2.6-0.2l-1.3,18.5l-19-1.4
							l-0.6,8.2l0,0l-1.6,23.4l31.2,2.2l0.7-11.1l-20.1-1.4l0.6-7.7l0,0l0.1-0.5l20.1,1.4l0.1-0.5l0,0l1.4-19l7.8,0.6L1883.4,555.4z
							 M1874.7,552.8L1874.7,552.8l-0.1,0.5l-20.1-1.4v0.3l-0.7,10l20.1,1.4l-0.6,9.2l-29.2-2.1l1.5-21.4l0,0l0.6-8.2l19,1.4
							l1.3-18.5l1.6,0.1c5.5,0.3,11,0.8,16.5,1.1l11.1,0.7l-2.1,29.2l-9.2-0.6l1.5-20.1l-9.9-0.7L1874.7,552.8z"/>
					</g>
				</g>
				<g>
					<g>
						<path class="st0" d="M1953.7,536l-10.8,17l-6.6-4.2l10.1-15.7l0.3-0.4l0.3-0.4l-16.9-10.9l4.4-7.1l16.9,10.9l6.1-9.4
							l-26.3-16.8l-17.1,26.7l16.1,10.3l-4,6.3l0,0l-6.1,9.4l2.2,1.4c4.3,2.8,8.8,5.6,13.1,8.4l11,7l16.8-26.3L1953.7,536z
							 M1946,567l-10.2-6.5c-4.3-2.8-8.8-5.6-13.1-8.4l-1.4-0.9l4.9-7.8l5.1-8l-16.1-10.3l16-25l24.7,15.8l-5,7.7l-16.9-10.9
							l-5.5,8.7l16.9,10.9l-10.6,16.6l8.4,5.3l10.9-16.9l7.7,5L1946,567z"/>
					</g>
				</g>
				<g>
					<g>
						<path class="st0" d="M1998.7,593.6l11.1,0.7l2.2-31.2l-12.5-0.9c-5.3-0.4-10.8-0.7-16.2-1.1l-2.6-0.2l-1.3,18.5l-19-1.4
							l-0.6,8.2l0,0l-1.6,23.4l31.2,2.2l0.7-11.1l-20.1-1.4l0.6-7.7l0.1-0.5l20.1,1.4l0.1-0.5l0,0l1.4-19l7.8,0.6L1998.7,593.6z
							 M1990,591L1990,591l-0.1,0.5l-20.1-1.4v0.3l0,0l-0.7,10l20.1,1.4l-0.6,9.2l-29.2-2.1l1.5-21.4l0,0l0.6-8.2l19,1.4l1.3-18.5
							l1.6,0.1c5.3,0.4,10.8,0.7,16.2,1.1l11.4,0.8l-2.1,29.2l-9.2-0.6l1.5-20.1l-9.9-0.7L1990,591z"/>
					</g>
				</g>
				<g>
					<g>
						<path class="st0" d="M2061.5,547.9l0.3-0.9l-15.5-9.9l-17.1,26.7l16.1,10.3l-4,6.3l0,0l-6.1,9.4l2.2,1.4
							c2.6,1.7,5.3,3.3,8,5.1l0.3-0.9c-2.6-1.7-5.1-3.3-7.7-5l-1.4-0.9l4.9-7.8l5.1-8l-16.1-10.3l16-25L2061.5,547.9z M2058.2,557.9
							l0.3-0.9l-9-5.8l-5.5,8.7l11.3,7.2l0.3-0.9l-10.3-6.6l4.4-7.1L2058.2,557.9z"/>
					</g>
				</g>
				<g>
					<g>
						<path class="st0" d="M1814.5,570.1l11.1,0.7l2.2-31.2l-13-0.9c-3.7-0.3-7.4-0.6-11.1-0.7c-1.5-0.1-3-0.2-4.5-0.3l-2.6-0.1
							l-1.3,18.5l-19-1.4l-0.6,8.2l0,0l-1.6,23.4l31.2,2.2l0.7-11.1l-20.1-1.4l0.6-7.7l0.1-0.5l17.4,1.2l2.7,0.2l0.1-0.5l0,0l1.4-19
							l7.8,0.5L1814.5,570.1z M1805.8,567.6L1805.8,567.6l-0.1,0.5l-2.1-0.2l-18-1.2v0.3l0,0l-0.7,10l20.1,1.4l-0.6,9.2l-29.2-2.1
							l1.5-21.4l0,0l0.6-8.2l19,1.4l1.3-18.5l1.6,0.1c1.5,0.1,2.9,0.2,4.3,0.3c3.8,0.3,7.5,0.5,11.3,0.8l12,0.8l-2.1,29.2l-9.2-0.6
							l1.4-20.1l-9.9-0.7L1805.8,567.6z"/>
					</g>
				</g>
				<g>
					<g>
						<path class="st0" d="M1862.6,618.3l-10.7,16.8l-0.1,0.2l-6.6-4.2l1.5-2.3l8.5-13.4l0.3-0.4l0.3-0.4l-16.9-10.9l4.4-7.1
							l16.9,10.9l6.1-9.4l-26.3-16.8l-14.2,22.4l-2.8,4.3l13.7,8.8l2.3,1.5l-0.4,0.7l-3.5,5.5l-6.1,9.4l2.2,1.4
							c4.5,2.9,9.1,5.9,13.6,8.7l10.5,6.7l4.2-6.6l12.6-19.7L1862.6,618.3z M1858.6,643.3l-3.9,6l-9.7-6.1
							c-4.5-2.9-9.1-5.9-13.6-8.7l-1.4-0.9l4.9-7.8l0,0l3.9-6.1l1.1-1.8l-5.9-3.8l-10.2-6.5l2.1-3.3l13.8-21.8l24.7,15.8l-5,7.7
							l-16.9-10.9l-5.5,8.7l16.9,10.9l-8.4,13.1l-2.2,3.4l8.4,5.3l0.5-0.8l10.3-16.2l7.7,5L1858.6,643.3z"/>
					</g>
				</g>
				<g>
					<g>
						<path class="st0" d="M1929.8,608.3l11.1,0.7l2.2-31.2l-13-0.9c-5.3-0.4-10.4-0.7-15.6-1l-2.6-0.1l-1.3,18.5l-19-1.4l-0.6,8.2
							l0,0l-1.6,23.4l31.2,2.2l0.7-11.1l-20.1-1.4l0.6-7.7l0,0l0.1-0.5l20.1,1.4l0.1-0.5l1.4-19l7.8,0.5L1929.8,608.3z
							 M1921.1,605.7L1921.1,605.7l-0.1,0.5l-20.1-1.4v0.3l-0.7,10l20.1,1.4l-0.6,9.2l-29.2-2.1l1.5-21.4l0,0l0.6-8.2l19,1.4
							l1.3-18.5l1.6,0.1c5.2,0.3,10.4,0.7,15.6,1l12.1,0.8l-2.1,29.2l-9.2-0.6l1.4-20.1l-9.9-0.7L1921.1,605.7z"/>
					</g>
				</g>
				<g>
					<g>
						<path class="st0" d="M1977.9,656.4l-10.9,16.9l-6.6-4.2l10-15.6l0.3-0.4l0.3-0.4l-16.9-10.9l4.5-7l16.9,10.9l6.1-9.4
							l-26.3-16.8l-17.1,26.7l16.1,10.3l-4,6.3l-6.1,9.4l2.2,1.4c4.4,2.8,9,5.7,13.4,8.5l10.7,6.9l16.8-26.3L1977.9,656.4z
							 M1970.1,687.4l-9.9-6.3c-4.4-2.8-9-5.7-13.4-8.5l-1.4-0.9l4.9-7.8l0,0l5.1-8l-16.1-10.3l16-25l24.7,15.8l-5,7.7l-16.9-10.9
							l-5.5,8.7l16.9,10.9l-10.5,16.5l8.4,5.3l10.8-17l7.7,5L1970.1,687.4z"/>
					</g>
				</g>
				<g>
					<g>
						<path class="st0" d="M2039,615.7l0.3-0.9c-3.2-0.2-6.3-0.4-9.5-0.7l-2.6-0.1l-1.3,18.5l-19-1.4l-0.6,8.2l0,0l-1.6,23.4
							l18.3,1.3l0.3-0.9l-17.6-1.3l1.5-21.4l0,0l0.6-8.2l19,1.4l1.3-18.5l1.6,0.1C2033,615.2,2035.9,615.5,2039,615.7z M2029.7,644
							l-13.4-1v0.3l-0.7,10l10.7,0.7l0.3-0.9l-10-0.7l0.6-7.7l0,0l0.1-0.5l12.1,0.9L2029.7,644L2029.7,644z"/>
					</g>
				</g>
				<g>
					<g>
						<path class="st0" d="M1793.7,633l-10.8,17l-6.6-4.3l10.5-16.5l-16.9-10.9l4.4-7.1l16.9,10.9l6.1-9.4l-26.3-16.8l-17.1,26.7
							l16.1,10.3l-4,6.3l0,0l-6.1,9.4l2.2,1.5c4.4,2.8,8.8,5.6,13.2,8.5l11,7l16.8-26.3L1793.7,633z M1785.9,664l-10.1-6.5
							c-4.4-2.8-8.8-5.6-13.2-8.5l-1.4-0.9l4.9-7.8l0,0l5-7.9l-16.1-10.3l16-25l24.7,15.8l-5,7.7l-16.9-10.9l-5.5,8.7l16.9,10.9
							l-10.6,16.6l8.4,5.3l10.9-16.9l7.7,5L1785.9,664z"/>
					</g>
				</g>
				<g>
					<g>
						<path class="st0" d="M1838.6,690.6l11.1,0.7l2.2-31.2l-12.7-0.8c-5.3-0.4-10.6-0.8-15.8-1.1l-2.6-0.2l-1.3,18.5l-19-1.4
							l-0.6,8.2l0,0l-1.6,23.4l31.2,2.2l0.7-11.1l-20.1-1.4l0.6-7.7l0,0l0.1-0.5l20.1,1.4l0.1-0.5l0,0l1.4-19l7.8,0.6L1838.6,690.6z
							 M1829.9,688L1829.9,688l-0.1,0.5l-20.1-1.4v0.3l-0.7,10l20.1,1.4l-0.6,9.2l-29.2-2.1l1.5-21.4l0,0l0.6-8.2l19,1.4l1.3-18.5
							l1.6,0.1c5.3,0.4,10.6,0.8,15.8,1.1l11.6,0.8l-2.1,29.2l-9.2-0.6l1.5-20.1l-9.9-0.7L1829.9,688z"/>
					</g>
				</g>
				<g>
					<g>
						<path class="st0" d="M1909,671.1l-10.8,17l-6.6-4.3l10.5-16.5l-16.9-10.9l4.4-7.1l16.9,10.9l6.1-9.4l-26.3-16.8l-15.3,24
							l-1.7,2.7l8.2,5.2l7.9,5l-1.8,2.9l-2.2,3.4l0,0l-6.1,9.4l2.2,1.5c4.3,2.8,8.8,5.6,13.1,8.4l7.2,4.6l3.7,2.4l16.8-26.3
							L1909,671.1z M1901.3,702.2l-3.8-2.4l-6.3-4c-4.3-2.8-8.8-5.6-13.1-8.4l-1.4-0.9l4.9-7.8l2.5-3.9l2.6-4l-11.2-7.2l-4.9-3.1
							l1-1.6l14.9-23.5l24.7,15.8l-5,7.7l-16.9-10.9l-5.5,8.7l16.9,10.9l-10.4,16.2l-0.2,0.3l0.6,0.4l7.7,5l10.9-16.9l7.7,5
							L1901.3,702.2z"/>
					</g>
				</g>
				<g>
					<g>
						<path class="st0" d="M1954,728.8l11.1,0.7l2.2-31.2l-13-0.9c-5.2-0.3-10.4-0.7-15.6-1l-2.6-0.2l-1.3,18.5l-19-1.4l-0.6,8.2
							l0,0l-1.6,23.4l31.2,2.2l0.7-11.1l-20.1-1.4l0.6-7.7l0.1-0.5l20.1,1.4l0.1-0.5l0,0l1.4-19l7.8,0.6L1954,728.8z M1945.3,726.2
							L1945.3,726.2l-0.1,0.5l-20.1-1.4v0.3l0,0l-0.7,10l20.1,1.4l-0.6,9.2l-29.2-2.1l1.5-21.4l0,0l0.6-8.2l19,1.4l1.3-18.5l1.6,0.1
							c5.2,0.3,10.4,0.7,15.6,1l12.1,0.8l-2.1,29.2l-9.2-0.6l1.5-20.1l-9.9-0.7L1945.3,726.2z"/>
					</g>
				</g>
				<g>
					<g>
						<path class="st0" d="M2016.7,683.1l0.3-0.9l-15.5-9.9l-17.1,26.7l16.1,10.3l-4,6.3l0,0l-6.1,9.4l2.2,1.5
							c2.6,1.7,5.3,3.3,8,5.1l0.3-0.9c-2.6-1.7-5.1-3.3-7.7-5l-1.4-0.9l4.9-7.8l5.1-8l-16.1-10.3l16-25L2016.7,683.1z M2013.4,693
							l0.3-0.9l-9-5.8l-5.5,8.7l11.3,7.2l0.3-0.9l-10.3-6.6l4.4-7.1L2013.4,693z"/>
					</g>
				</g>
				<g>
					<g>
						<path class="st0" d="M1769.7,705.3l11.1,0.7l2.2-31.2l-13-0.9c-5.3-0.4-10.4-0.7-15.7-1.1l-2.6-0.2l-1.3,18.5l-19-1.4
							l-0.6,8.2l0,0l-1.6,23.4l31.2,2.2l0.7-11.1L1741,711l0.6-7.7l0.1-0.5l20.1,1.4l0.1-0.5l0,0l1.4-19l7.8,0.6L1769.7,705.3z
							 M1761.1,702.7L1761.1,702.7l-0.1,0.5l-20.1-1.4v0.3l0,0l-0.7,10l20.1,1.4l-0.6,9.2l-29.2-2.1l1.5-21.4l0,0l0.6-8.2l19,1.4
							l1.3-18.5l1.6,0.1c5.3,0.4,10.4,0.7,15.7,1.1l12,0.8l-2.1,29.2l-9.2-0.6l1.4-20.1l-9.9-0.7L1761.1,702.7z"/>
					</g>
				</g>
				<g>
					<g>
						<path class="st0" d="M1817.8,753.4l-10.9,16.9l-6.6-4.2l10-15.6l0.3-0.4l0.3-0.4l-16.9-10.9l4.4-7.1l16.9,10.9l6.1-9.4
							l-26.3-16.8l-17.1,26.7l16.1,10.3l-4,6.3l-6.1,9.4l2.2,1.4c4.5,2.9,9.1,5.9,13.6,8.7l10.5,6.7l16.8-26.3L1817.8,753.4z
							 M1810.1,784.5l-9.7-6.1c-4.5-2.9-9.1-5.9-13.6-8.7l-1.4-0.9l4.9-7.8l0,0l5.1-8l-16.1-10.3l16-25l24.7,15.8l-5,7.7l-16.9-10.9
							l-5.5,8.7l16.9,10.9l-10.5,16.5l8.4,5.3l10.8-17l7.8,4.9L1810.1,784.5z"/>
					</g>
				</g>
				<g>
					<g>
						<path class="st0" d="M1896.5,740.9L1896.5,740.9l2-27.9l-13-0.9c-5.3-0.4-10.4-0.7-15.6-1l-2.6-0.2l-1.3,18.5l-19-1.4
							l-0.6,8.2l0,0l-1.6,23.4l31.2,2.2l0.7-11.1l-20.1-1.4l0.6-7.7l0,0l0.1-0.5l20.1,1.4l0.1-0.5l1.4-19l7.8,0.6l-1.5,20.1
							l10.5,0.7h0.6L1896.5,740.9z M1886.1,742.6l1.4-20.1l-9.9-0.7l-1.4,19l0,0l-0.1,0.5l-20.1-1.4v0.3l-0.7,10l20.1,1.4l-0.6,9.2
							l-29.2-2.1l1.5-21.4l0,0l0.6-8.2l19,1.4l1.3-18.5l1.6,0.1c5.2,0.3,10.4,0.7,15.6,1l12.1,0.8l-2.1,29.2L1886.1,742.6z"/>
					</g>
				</g>
				<g>
					<g>
						<path class="st0" d="M1933.2,791.6l-10.9,16.9l-6.6-4.2l10-15.6l0.3-0.4l0.3-0.4l-16.9-10.9l4.5-7l16.9,10.9l6.1-9.4
							l-26.3-16.8l-17.1,26.7l16.1,10.3l-4,6.3l-6.1,9.4l2.2,1.4c4.4,2.8,9,5.7,13.4,8.5l10.7,6.8l16.8-26.3L1933.2,791.6z
							 M1925.3,822.6l-9.9-6.3c-4.4-2.8-9-5.7-13.4-8.5l-1.4-0.9l4.9-7.8l0,0l5.1-8l-16.1-10.3l16-25l24.7,15.8l-5,7.7l-16.9-10.9
							l-5.5,8.7l16.9,10.9l-10.5,16.5l8.4,5.3l10.8-17l7.8,4.9L1925.3,822.6z"/>
					</g>
				</g>
				<g>
					<g>
						<path class="st0" d="M1985.1,749.2l-2.6-0.2l-1.3,18.5l-19-1.4l-0.6,8.2l0,0l-1.6,23.4l18.3,1.3l0.3-0.9l-17.6-1.3l1.5-21.4
							l0,0l0.6-8.2l19,1.4l1.3-18.5l1.6,0.1c3.1,0.2,6.1,0.4,9.2,0.6l0.3-0.9C1991.4,749.6,1988.3,749.4,1985.1,749.2z
							 M1971.6,778.4l-0.7,10l10.7,0.7l0.3-0.9l-10-0.7l0.6-7.7l0,0l0.1-0.5l12.1,0.9l0.3-0.9l-13.4-1V778.4z"/>
					</g>
				</g>
				<g>
					<g>
						<path class="st0" d="M1748.9,768.1l-10.8,17l-6.6-4.2l10-15.6l0.3-0.4l0.3-0.4l-16.9-10.9l4.4-7.1l16.9,10.9l6.1-9.4
							l-26.3-16.8l-17.1,26.7l16.1,10.3l-4,6.4l0,0l-6,9.4l2.2,1.5c4.4,2.8,8.8,5.6,13.2,8.5l11,7l16.8-26.3L1748.9,768.1z
							 M1741.2,799.2l-10.1-6.5c-4.4-2.8-8.8-5.6-13.2-8.5l-1.4-0.9l5-7.7l5-7.9l-16.1-10.3l16-25l24.7,15.8l-5,7.7l-16.9-10.9
							l-5.5,8.7l16.9,10.9l-10.5,16.5l8.4,5.3l10.9-16.9l7.7,5L1741.2,799.2z"/>
					</g>
				</g>
				<g>
					<g>
						<path class="st0" d="M1793.9,825.8l11.1,0.7l2.2-31.2l-12.7-0.8c-5.3-0.4-10.6-0.8-15.8-1.1l-2.6-0.2l-1.3,18.5l-19-1.4
							l-0.6,8.2l0,0l-1.6,23.4l31.2,2.2l0.7-11.1l-20.1-1.4l0.6-7.7l0,0l0.1-0.6l20.1,1.4l0.1-0.5l0,0l1.4-19l7.8,0.6L1793.9,825.8z
							 M1785.2,823.2L1785.2,823.2l-0.1,0.5l-20.1-1.4v0.3l-0.7,10l20.1,1.4l-0.6,9.2l-29.2-2.1l1.5-21.4l0,0l0.6-8.2l19,1.4
							l1.3-18.5l1.6,0.1c5.3,0.4,10.6,0.8,15.8,1.1l11.6,0.8l-2.1,29.2l-9.1-0.7l1.5-20.1l-9.9-0.7L1785.2,823.2z"/>
					</g>
				</g>
				<g>
					<g>
						<path class="st0" d="M1864.3,806.3l-10.8,17l-6.6-4.2l10-15.6l0.3-0.4l0.3-0.4l-16.9-10.9l4.4-7.1l16.9,10.9l6.1-9.4
							l-26.3-16.8l-17.1,26.7l16.1,10.3l-4,6.3l-6,9.4l2.2,1.5c4.3,2.8,8.8,5.6,13.1,8.4l11,7l16.8-26.3L1864.3,806.3z
							 M1856.5,837.4l-10.2-6.5c-4.3-2.8-8.8-5.6-13.1-8.4l-1.4-0.9l5-7.7l0,0l5-7.9l-16.1-10.3l16-25l24.7,15.8l-5,7.7l-16.9-10.9
							l-5.5,8.7l16.9,10.9l-10.5,16.5l8.4,5.3l10.9-16.9l7.7,5L1856.5,837.4z"/>
					</g>
				</g>
				<g>
					<g>
						<path class="st0" d="M1909.2,864l11.1,0.7l2.2-31.2l-13-0.9c-5.2-0.3-10.4-0.7-15.6-1l-2.6-0.2l-1.3,18.5l-19-1.4l-0.6,8.2
							l0,0l-1.6,23.4l31.2,2.2l0.7-11.1l-20.1-1.4l0.6-7.7l0.1-0.6l20.1,1.4l0.1-0.5l0,0l1.4-19l7.8,0.6L1909.2,864z M1900.5,861.4
							L1900.5,861.4l-0.1,0.5l-20.1-1.4v0.3l0,0l-0.7,10l20.1,1.4l-0.6,9.2l-29.2-2.1l1.5-21.4l0,0l0.6-8.2l19,1.4l1.3-18.5l1.6,0.1
							c5.2,0.3,10.4,0.7,15.6,1l12.1,0.8l-2.1,29.2l-9.1-0.7l1.5-20.1l-9.9-0.7L1900.5,861.4z"/>
					</g>
				</g>
				<g>
					<g>
						<path class="st0" d="M1968.7,828.1l0.3-0.9l-9-5.8l-5.5,8.7l11.3,7.2l0.3-0.9l-10.3-6.6l4.4-7.1L1968.7,828.1z M1972,818.3
							l0.3-0.9l-15.5-9.9l-17.1,26.7l16.1,10.3l-4,6.3l0,0l-6,9.4l2.2,1.5c2.6,1.7,5.3,3.3,8,5.1l0.3-0.9c-2.6-1.7-5.1-3.3-7.7-5
							l-1.4-0.9l5-7.7l0,0l5-7.9l-16.1-10.3l16-25L1972,818.3z"/>
					</g>
				</g>
				<g>
					<g>
						<path class="st0" d="M1725,840.5l11.1,0.7l2.2-31.2l-13-0.9c-5.3-0.4-10.4-0.7-15.7-1.1l-2.6-0.2l-1.3,18.5l-19-1.4l-0.6,8.2
							l0,0l-1.6,23.4l31.2,2.2l0.7-11.1l-20.1-1.4l0.6-7.7l0.1-0.5l20.1,1.4l0.1-0.5l0,0l1.4-19l7.8,0.6L1725,840.5z M1716.3,837.9
							L1716.3,837.9l-0.1,0.5l-20.1-1.4v0.3l0,0l-0.7,10l20.1,1.4l-0.6,9.2l-29.2-2.1l1.5-21.4l0,0l0.6-8.2l19,1.4l1.3-18.5l1.6,0.1
							c5.3,0.4,10.4,0.7,15.7,1.1l12,0.8l-2.1,29.2l-9.1-0.7l1.4-20.1l-9.9-0.7L1716.3,837.9z"/>
					</g>
				</g>
				<g>
					<g>
						<path class="st0" d="M1773.1,888.6l-10.9,16.9l-6.6-4.2l10.1-15.7l0.3-0.4l0.3-0.4l-16.9-10.9l4.4-7.1l16.9,10.9l6.1-9.4
							l-26.3-16.8l-17.1,26.7l16.1,10.3l-4,6.3l-6.1,9.4l2.2,1.4c4.5,2.9,9.1,5.9,13.6,8.7l10.5,6.7l16.8-26.3L1773.1,888.6z
							 M1765.4,919.6l-9.7-6.1c-4.5-2.9-9.1-5.9-13.6-8.7l-1.4-0.9l4.9-7.8l0,0l5.1-8l-16.1-10.3l16-25l24.7,15.8l-5,7.7l-16.9-10.9
							l-5.5,8.7l16.9,10.9l-10.5,16.5l8.4,5.3l10.8-17l7.7,5L1765.4,919.6z"/>
					</g>
				</g>
				<g>
					<g>
						<path class="st0" d="M1840.3,878.7l11.1,0.7l2.2-31.2l-13-0.9c-5.3-0.4-10.4-0.7-15.6-1l-2.6-0.2l-1.3,18.5l-19-1.4l-0.6,8.2
							l0,0l-1.6,23.4l31.2,2.2l0.7-11.1l-20.1-1.4l0.6-7.7l0,0l0.1-0.5l20.1,1.4l0.1-0.5l1.4-19l7.8,0.6L1840.3,878.7z
							 M1831.6,876.1L1831.6,876.1l-0.1,0.5l-20.1-1.4v0.3l-0.7,10l20.1,1.4l-0.6,9.2L1801,894l1.5-21.4l0,0l0.6-8.2l19,1.4
							l1.3-18.5l1.6,0.1c5.2,0.3,10.4,0.7,15.6,1l12.1,0.8l-2.1,29.2l-9.1-0.7l1.4-20.1l-9.9-0.7L1831.6,876.1z"/>
					</g>
				</g>
				<g>
					<g>
						<path class="st0" d="M1888.4,926.8l-6.8,10.6l-4.1,6.3l-6.6-4.2l5.6-8.7l4.4-7l0.3-0.4l0.3-0.4l-13.7-8.8l-3.2-2l1.6-2.5
							l2.9-4.5l16.9,10.9l6.1-9.4l-26.3-16.8l-2.8,4.3l-14.2,22.4l16.1,10.3l-4,6.3l-6.1,9.4l2.2,1.4c4.4,2.8,9,5.7,13.4,8.5
							l10.7,6.8l8.7-13.6l8.1-12.7L1888.4,926.8z M1888.9,944.9l-8.3,13l-9.9-6.3c-4.4-2.8-9-5.7-13.4-8.5l-1.4-0.9l4.9-7.8l0,0
							l5.1-8l-16.1-10.3l13.1-20.5l2.9-4.5l24.7,15.8l-5,7.7l-16.9-10.9l-2.9,4.6l-2.6,4.1l5.2,3.3l11.7,7.6l-4.2,6.6l-6.3,9.9
							l8.4,5.3l4.4-7l6.4-10l7.7,5L1888.9,944.9z"/>
					</g>
				</g>
				<g>
					<g>
						<path class="st0" d="M1940.2,914.2l-13.4-1v0.3l-0.7,10l10.7,0.7l0.3-0.9l-10-0.7l0.6-7.7l0,0l0.1-0.5l12.1,0.9L1940.2,914.2
							L1940.2,914.2z M1949.5,886l0.3-0.9c-3.2-0.2-6.3-0.4-9.5-0.7l-2.6-0.2l-1.3,18.5l-19-1.4l-0.6,8.2l0,0l-1.6,23.4l18.3,1.3
							l0.3-0.9l-17.6-1.3l1.5-21.4l0,0l0.6-8.2l19,1.4l1.3-18.5l1.6,0.1C1943.5,885.6,1946.5,885.8,1949.5,886z"/>
					</g>
				</g>
				<g>
					<g>
						<path class="st0" d="M1704.2,903.3l-10.8,17l-6.6-4.2l10-15.6l0.3-0.4l0.3-0.4l-16.9-10.9l4.4-7.1l16.9,10.9l6.1-9.4
							l-26.3-16.8l-17.1,26.7l16.1,10.3l-4,6.4l0,0l-6,9.4l2.2,1.4c4.4,2.8,8.8,5.6,13.2,8.5l11,7l16.8-26.3L1704.2,903.3z
							 M1696.5,934.3l-10.1-6.4c-4.4-2.8-8.8-5.6-13.2-8.5l-1.4-0.9l5-7.7l5-7.9l-16.1-10.3l16-25l24.7,15.8l-5,7.7l-16.9-10.9
							l-5,7.9l-0.3,0.4l-0.2,0.3l16.9,10.9l-10.5,16.5l8.4,5.3l10.9-16.9l7.8,4.9L1696.5,934.3z"/>
					</g>
				</g>
				<g>
					<g>
						<path class="st0" d="M1749.2,960.9l11.1,0.7l2.2-31.2l-12.7-0.8c-5.3-0.4-10.6-0.8-15.8-1.1l-2.6-0.1l-1.3,18.5l-19-1.4
							l-0.6,8.2l0,0l-1.6,23.4l31.2,2.2l0.7-11.1l-20.1-1.4l0.6-7.7l0,0l0.1-0.5l20.1,1.4l0.1-0.5l0,0l1.4-19l7.8,0.6L1749.2,960.9z
							 M1740.4,958.3L1740.4,958.3l-0.1,0.5l-20.1-1.4v0.3l-0.7,10l20.1,1.4l-0.6,9.2l-29.2-2.1l1.5-21.4l0,0l0.6-8.2l19,1.4
							l1.3-18.5l1.6,0.1c5.3,0.4,10.6,0.8,15.8,1.1l11.6,0.8l-2.1,29.2l-9.2-0.6l1.5-20.1l-9.9-0.7L1740.4,958.3z"/>
					</g>
				</g>
				<g>
					<g>
						<path class="st0" d="M1819.5,941.5l-10.8,17l-6.6-4.2l10-15.6l0.5-0.9l-16.9-10.9l4.4-7.1l16.9,10.9l6.1-9.4l-26.3-16.8
							l-17.1,26.7l16.1,10.3l-4,6.4l-6,9.4l2.2,1.4c4.3,2.8,8.8,5.6,13.1,8.4l11,7l16.8-26.3L1819.5,941.5z M1811.8,972.4l-10.2-6.5
							c-4.3-2.8-8.8-5.6-13.1-8.4l-1.4-0.9l5-7.7l0,0l5-7.9l-16.1-10.3l16-25l24.7,15.8l-5,7.7l-16.9-10.9l-5,7.9l-0.3,0.4l-0.2,0.3
							l16.9,10.9l-10.5,16.5l8.4,5.3l10.9-16.9l7.8,4.9L1811.8,972.4z"/>
					</g>
				</g>
				<g>
					<g>
						<path class="st0" d="M1864.5,999.1l11.1,0.7l2.2-31.2l-13-0.9c-5.2-0.3-10.4-0.7-15.6-1l-2.6-0.1l-1.3,18.5l-19-1.4l-0.6,8.2
							l0,0l-1.6,23.4l31.2,2.2l0.7-11.1l-20.1-1.4l0.6-7.7l0.1-0.5l20.1,1.4l0.1-0.5l0,0l1.4-19l7.8,0.6L1864.5,999.1z
							 M1855.8,996.5L1855.8,996.5l-0.1,0.5l-20.1-1.4v0.3l0,0l-0.7,10l20.1,1.4l-0.6,9.2l-29.2-2.1l1.5-21.4l0,0l0.6-8.2l19,1.4
							l1.3-18.5l1.6,0.1c5.2,0.3,10.4,0.7,15.6,1l12.1,0.8l-2.1,29.2l-9.2-0.6l1.5-20.1l-9.9-0.7L1855.8,996.5z"/>
					</g>
				</g>
				<g>
					<g>
						<path class="st0" d="M1915.3,956.5l-3.5,5.4c0.3,0.2,0.6,0.4,0.9,0.5l2.9-4.5l8.4,5.4l0.3-0.9L1915.3,956.5z M1912.1,942.5
							l-8.9,13.9c0.3,0.2,0.5,0.4,0.9,0.6l8.4-13.1l14.9,9.5l0.3-0.9L1912.1,942.5z"/>
					</g>
				</g>
			</g>
		</g>
	</g>
</g>
<g>
	<g>
		<g>
			<path class="st1" d="M112,240.3c-8,15.9-18.8,30-29.6,44c-4.8,6.2-9.7,12.5-14.7,18.6c-12.3,15-19.2,32.7-24.9,50.9
				c-4.4,14.2-8.5,28.6-13.7,42.6c-2.4,6.5-6.3,12.7-10.5,18.2C13.8,421,7.3,424.8,0,426.7V144.5c7-1.6,14-3.2,21.1-4.4
				c18.3-3.1,36.7-3.7,54.8,1.7c24.1,7.2,38.4,23.5,43.8,47.9C123.6,207.6,120,224.2,112,240.3z"/>
		</g>
	</g>
	<g class="st2">
		<g class="st3">
			<g>
				<g>
					<g>
						<path class="st0" d="M30.9,129.1l6.7-1.7l-4.7-18.6l-18.6,4.8l2.8,11.1l-11.4,2.9l1.2,4.9l0,0l3.5,14l18.6-4.7l-1.7-6.7
							l-12,3.1l-1.2-4.7l-0.1-0.3l12-3l-0.1-0.3L23,118.5l4.7-1.2L30.9,129.1z M25.3,129.3l0.1,0.3l-12,3l0.1,0.2l1.5,5.9l12-3.1
							l1.4,5.5l-17.5,4.4l-3.2-12.8l0,0L6.4,128l11.4-2.9L15,114l17.4-4.5l4.4,17.5l-5.5,1.4l-3-12l-5.9,1.5L25.3,129.3z"/>
					</g>
				</g>
				<g>
					<g>
						<path class="st0" d="M68.3,148l-3,12l-4.7-1.2l3-11.7l-12-3l0.4-1.5l0.9-3.5l7.2,1.8l4.8,1.2l0.5-2.2l1.1-4.5l-18.7-4.7
							l-3.4,13.5l-1.4,5.4l11.3,2.9l-1.1,4.4l0,0l-1.7,6.6l18.6,4.8l4.7-18.6L68.3,148z M69.7,167.5l-17.4-4.4l1.4-5.5l0,0l1.4-5.6
							l-11.3-2.9L45,144l3.2-12.6l17.5,4.4l-1.1,4.2l-0.3,1.3l-2.9-0.7l-9.1-2.3l-1.1,4.4l-0.4,1.8l12,3.1l-3,11.7l5.9,1.5l3-12
							l5.5,1.4L69.7,167.5z"/>
					</g>
				</g>
				<g>
					<g>
						<path class="st0" d="M105.6,129.1l6.6-1.7l-4.7-18.6l-18.6,4.8l1.6,6.4l0.1,0.3l1.1,4.4l-11.4,2.9l1.2,4.9l0,0L83,138l2.1,8.4
							l18.6-4.7l-0.8-3l-0.9-3.6l-11,2.7l-0.9,0.2l-0.1-0.2l-1.1-4.4l-0.1-0.3l12-3l-0.1-0.3l-2.9-11.4l4.7-1.2L105.6,129.1z
							 M100,129.3l0.1,0.3l-12,3l0.1,0.2l1.2,4.9l0.2,1l3.6-0.9l8.4-2.1l0.7,2.8l0.7,2.7l-17.5,4.4l-2-7.7l-1.3-5.1l0,0l-1.2-4.9
							l11.4-2.9l-2.8-11l17.4-4.5l4.4,17.5l-5.5,1.4l-3-12l-5.9,1.5L100,129.3z"/>
					</g>
				</g>
				<g>
					<g>
						<path class="st0" d="M142.9,148l-1.5,5.7l-1.6,6.2l-4.7-1.2l2.1-8.2l0.9-3.5l-12-3l1.3-5l12,3.1l1.7-6.7l-18.7-4.7l-2.9,11.5
							l-1.9,7.4l11.3,2.9l-1.1,4.4l0,0l-1.7,6.6l18.6,4.8l2.3-9.2l2.4-9.5L142.9,148z M146.7,158.6l-2.3,9l-17.4-4.4l1.4-5.5l0,0
							l1.4-5.6l-11.4-2.9l1.7-6.8l2.8-10.9l17.5,4.4l-1.4,5.5l-12-3.1l-1.5,6v0.1l0.9,0.2l11.1,2.8l-0.7,2.7l-2.3,9l5.9,1.5l1.7-6.5
							l1.4-5.4l5.5,1.4L146.7,158.6z"/>
					</g>
				</g>
				<g>
					<g>
						<path class="st0" d="M180.3,129.1l6.6-1.7l-4.7-18.6l-7.1,1.8c-3.3,0.8-6.6,1.7-9.9,2.5l-1.6,0.4l2.8,11.1l-11.3,2.9l1.2,4.9
							l0,0l3.5,14l18.6-4.7l-1.7-6.7l-12,3.1l-1.2-4.7l-0.1-0.3l12-3l-0.1-0.3l0,0l-2.9-11.4l4.7-1.2L180.3,129.1z M174.7,129.3
							L174.7,129.3l0.1,0.3l-12,3l0.1,0.2l0,0l1.5,5.9l12-3.1l1.4,5.5l-17.5,4.4l-3.2-12.8l0,0l-1.2-4.9l11.3-2.9l-2.8-11.1l1-0.2
							c3.3-0.8,6.6-1.7,10-2.5l6.5-1.7l4.4,17.5l-5.4,1.4l-3.1-12l-5.9,1.5L174.7,129.3z"/>
					</g>
				</g>
				<g>
					<g>
						<path class="st0" d="M217.6,148l-3,12l-4.7-1.2l3-11.7l-12-3l0.1-0.3l1.2-4.7l12,3.1l1.7-6.7l-18.6-4.7l-4.8,18.9l11.4,2.9
							l-1.1,4.4l0,0l-1.7,6.6l18.6,4.8l4.7-18.6L217.6,148z M219.1,167.5l-17.4-4.4l1.4-5.5l0,0l1.4-5.6l-11.4-2.9l4.5-17.7
							l17.4,4.4l-1.4,5.5l-12-3.1l-1.6,6.2l12,3.1l-0.1,0.3l-2.9,11.4l5.9,1.5l3-12l5.5,1.4L219.1,167.5z"/>
					</g>
				</g>
				<g>
					<g>
						<path class="st0" d="M254.9,129.1l6.7-1.7l-4.7-18.6l-18.6,4.8l2.8,11.1l-11.3,2.9l1.2,4.9l0,0l3.5,14l18.6-4.7l-1.7-6.7
							l-12,3.1l-1.2-4.7l-0.1-0.3l12-3l-0.1-0.3l-2.9-11.4l4.7-1.2L254.9,129.1z M249.3,129.3L249.3,129.3l0.1,0.3l-12,3l0.1,0.2
							l0,0l1.5,5.9l12-3.1l1.4,5.5l-17.5,4.4l-3.2-12.8l0,0l-1.2-4.9l11.3-2.9L239,114l17.4-4.5l4.4,17.5l-5.5,1.4l-3-12l-5.9,1.5
							L249.3,129.3z"/>
					</g>
				</g>
				<g>
					<g>
						<path class="st0" d="M30.9,169.8l-3,12l-4.7-1.2l3-11.7l-12-3l1.2-5l12,3.1l1.7-6.7l-18.6-4.7l-4.8,18.9l11.4,2.9l-1.1,4.4
							l-1.7,6.7l18.6,4.8l4.7-18.6L30.9,169.8z M32.4,189.4L15,185l1.4-5.5l1.4-5.6L6.4,171l4.5-17.7l17.5,4.4l-1.4,5.5l-12-3.1
							l-1.6,6.2l12,3.1l-3,11.7l5.9,1.5l3-12l5.5,1.4L32.4,189.4z"/>
					</g>
				</g>
				<g>
					<g>
						<path class="st0" d="M68.3,194.8l6.6-1.7l-4.7-18.6l-18.6,4.8l2.8,11.1L43,193.2l1.2,4.9l0,0l3.5,14l18.7-4.7l-1.7-6.7l-12,3
							l-1.2-4.7l-0.1-0.3l12-3l-0.1-0.3l0,0L60.5,184l4.7-1.2L68.3,194.8z M62.7,195L62.7,195l0.1,0.3l-12,3v0.2l1.5,5.9l12-3
							l1.4,5.5l-17.5,4.4L45,198.5l0,0l-1.3-4.9l11.3-2.9l-2.8-11.1l17.4-4.5l4.4,17.5l-5.5,1.4l-3-12l-5.9,1.5L62.7,195z"/>
					</g>
				</g>
				<g>
					<g>
						<path class="st0" d="M105.6,169.8l-3,12l-4.7-1.2l3-11.7l-12-3l1.2-5l12,3.1l1.7-6.7l-18.6-4.7l-4.8,18.9l11.4,2.9l-1.1,4.4
							l-1.7,6.6l18.6,4.8l4.7-18.6L105.6,169.8z M107,189.4L89.6,185l1.4-5.5l1.4-5.6L81.1,171l4.5-17.7l17.5,4.4l-1.4,5.5l-12-3.1
							l-1.6,6.2l12,3.1l-3,11.7l5.9,1.5l3-12l5.5,1.4L107,189.4z"/>
					</g>
				</g>
				<g>
					<g>
						<path class="st0" d="M142.9,194.8l6.6-1.7l-4.7-18.6l-18.6,4.8l2.8,11.1l-11.3,2.9l1.2,4.9l0,0l3.5,14l18.7-4.7l-1.7-6.7
							l-12,3l-1.2-4.7l-0.1-0.3l12-3l-0.1-0.3l0,0l-2.9-11.4l4.7-1.2L142.9,194.8z M137.3,195L137.3,195l0.1,0.3l-12,3v0.2l1.5,5.9
							l12-3l1.4,5.5l-17.5,4.4l-3.2-12.8l0,0l-1.3-4.9l11.4-2.9l-2.8-11.1l17.4-4.5l4.4,17.5l-5.5,1.4l-3-12l-5.9,1.5L137.3,195z"/>
					</g>
				</g>
				<g>
					<g>
						<path class="st0" d="M180.3,169.8l-3,12l-4.7-1.2l3-11.7l-12-3l0.1-0.3l1.2-4.7l12,3.1l1.7-6.7l-18.6-4.7l-4.5,18l-0.2,0.9
							l0.8,0.2l10.5,2.7l-1.1,4.4l-1.7,6.7l1.6,0.4c3.3,0.8,6.6,1.7,9.9,2.5l7.1,1.8l4.7-18.6L180.3,169.8z M181.7,189.4l-6.5-1.7
							c-3.3-0.9-6.6-1.7-10-2.5l-1-0.2l1.4-5.5l1.4-5.6l-11.3-2.9l4.5-17.7l17.5,4.4l-1.4,5.5l-12-3.1l-1.6,6.2l12,3.1l-0.1,0.3
							l-2.9,11.4l5.9,1.5l3.1-12l5.4,1.4L181.7,189.4z"/>
					</g>
				</g>
				<g>
					<g>
						<path class="st0" d="M217.6,194.8l6.6-1.7l-4.7-18.6l-18.6,4.8l2.8,11.1l-11.4,2.9l1.2,4.9l0,0l3.5,14l18.6-4.7l-1.7-6.7
							l-12,3l-1.2-4.7l0,0l-0.1-0.3l12-3l-0.1-0.3l-2.9-11.4l4.7-1.2L217.6,194.8z M212,195l0.1,0.3l-12,3l0.1,0.2l1.5,5.9l12-3
							l1.4,5.5l-17.4,4.4l-3.2-12.8l0,0l-1.3-4.9l11.4-2.9l-2.8-11.1l17.4-4.5l4.4,17.5L218,194l-3-12l-5.9,1.5L212,195z"/>
					</g>
				</g>
				<g>
					<g>
						<path class="st0" d="M254.9,169.8l-3,12l-4.7-1.2l3-11.7l-12-3l1.2-5l12,3.1l1.7-6.7l-18.6-4.7l-4.8,18.9l11.3,2.9l-1.1,4.4
							l-1.7,6.7l18.6,4.8l4.7-18.6L254.9,169.8z M256.4,189.4L239,185l1.4-5.5l1.4-5.6l-11.3-2.9l4.5-17.7l17.5,4.4l-1.4,5.5
							l-12-3.1l-1.6,6.2l12,3.1l-0.1,0.3l-2.9,11.4l5.9,1.5l3-12l5.5,1.4L256.4,189.4z"/>
					</g>
				</g>
				<g>
					<g>
						<path class="st0" d="M30.9,216.6l6.7-1.7l-4.7-18.6l-18.6,4.8l2.8,11.1L5.7,215l1.2,4.9l0,0l3.5,14l18.6-4.7l-1.7-6.7l-12,3
							l-1.2-4.7l-0.1-0.3l12-3.1l-0.1-0.3L23,205.7l4.7-1.2L30.9,216.6z M25.3,216.8L25.3,216.8l0.1,0.3l-12,3.1l0.1,0.2l1.5,5.9
							l12-3l1.4,5.5l-17.5,4.4l-3.2-12.8l0,0l-1.2-4.9l11.4-2.9L15,201.5l17.4-4.4l4.4,17.4l-5.5,1.4l-3-12l-5.9,1.5L25.3,216.8z"/>
					</g>
				</g>
				<g>
					<g>
						<path class="st0" d="M68.3,235.5l-3,12l-4.7-1.2l3-11.7l-12-3l1.3-5l12,3l1.7-6.6l-18.7-4.7L43,237.1l11.3,2.9l-1.1,4.4l0,0
							l-1.7,6.7l18.6,4.8l4.7-18.6L68.3,235.5z M69.7,255.1l-17.4-4.5l1.4-5.5l0,0l1.4-5.6l-11.3-2.9l4.5-17.7l17.5,4.4l-1.4,5.5
							l-12-3l-1.5,6.2l12,3l-3,11.7l5.9,1.5l3-12l5.5,1.4L69.7,255.1z"/>
					</g>
				</g>
				<g>
					<g>
						<path class="st0" d="M105.6,216.6l6.6-1.7l-4.7-18.6l-18.6,4.8l1.6,6.4l0.1,0.3l1.1,4.4L80.3,215l1.2,4.9l0,0l3.5,14l18.6-4.7
							l-1.7-6.7l-12,3l-1.2-4.7l-0.1-0.3l12-3.1l-0.1-0.3l-2.9-11.4l4.7-1.2L105.6,216.6z M100,216.8L100,216.8l0.1,0.3l-12,3.1
							l0.1,0.2l1.5,5.9l12-3l1.4,5.5l-17.5,4.4l-3.2-12.8l0,0l-1.2-4.9l11.4-2.9l-2.8-11.1l17.4-4.4l4.4,17.4l-5.5,1.4l-3-12
							l-5.9,1.5L100,216.8z"/>
					</g>
				</g>
				<g>
					<g>
						<path class="st0" d="M142.9,235.5l-3,12l-4.7-1.2l3-11.7l-12-3l1.3-5l12,3l1.7-6.6l-18.7-4.7l-4.8,18.9L129,240l-1.1,4.4l0,0
							l-1.7,6.7l18.6,4.8l4.7-18.6L142.9,235.5z M144.4,255.1l-17.4-4.5l1.4-5.5l0,0l1.4-5.6l-11.4-2.9l4.5-17.7l17.5,4.4l-1.4,5.5
							l-12-3l-1.5,6.2l12,3l-3,11.7l5.9,1.5l3-12l5.5,1.4L144.4,255.1z"/>
					</g>
				</g>
				<g>
					<g>
						<path class="st0" d="M180.3,216.6l6.6-1.7l-4.7-18.6l-7.1,1.8c-3.3,0.8-6.6,1.7-9.9,2.5l-1.2,0.3l-0.3,0.1l0.4,1.5l2.4,9.6
							l-3,0.8L155,215l1.2,4.9l0,0l2.7,10.6l0.9,3.4l18.6-4.7l-1.7-6.7l-12,3l-1.2-4.7l-0.1-0.3l12-3.1l-0.1-0.3l0,0l-2.9-11.4
							l4.7-1.2L180.3,216.6z M174.7,216.8L174.7,216.8l0.1,0.3l-12,3.1l0.1,0.2l0,0l1.5,5.9l12-3l1.4,5.5l-17.5,4.4l-0.9-3.7
							l-2.3-9.1l0,0l-1.2-4.9l7.5-1.9l3.8-1l-2.8-11.1l1-0.2c3.3-0.8,6.6-1.7,10-2.5l6.5-1.7l4.4,17.4l-5.4,1.4l-3.1-12l-5.9,1.5
							L174.7,216.8z"/>
					</g>
				</g>
				<g>
					<g>
						<path class="st0" d="M217.6,235.5l-3,12l-4.7-1.2l3-11.7l-12-3l0.1-0.3l1.2-4.7l12,3l1.7-6.6l-18.6-4.7l-4.8,18.9l11.4,2.9
							l-1.1,4.4l0,0l-1.7,6.7l18.6,4.8l4.7-18.6L217.6,235.5z M219.1,255.1l-17.4-4.5l1.4-5.5l0,0l1.4-5.6l-11.4-2.9l4.5-17.7
							l17.4,4.4l-1.4,5.5l-12-3L200,232l12,3l-0.1,0.3l-2.9,11.4l5.9,1.5l3-12l5.5,1.4L219.1,255.1z"/>
					</g>
				</g>
				<g>
					<g>
						<path class="st0" d="M254.9,216.6l6.7-1.7l-4.7-18.6l-18.6,4.8l2.8,11.1l-11.3,2.9l1.2,4.9l0,0l3.5,14l18.6-4.7l-1.7-6.7
							l-12,3l-1.2-4.7l-0.1-0.3l12-3.1l-0.1-0.3l-2.9-11.4l4.7-1.2L254.9,216.6z M249.3,216.8L249.3,216.8l0.1,0.3l-12,3.1l0.1,0.2
							l0,0l1.5,5.9l12-3l1.4,5.5l-17.5,4.4l-3.2-12.8l0,0l-1.2-4.9l11.3-2.9l-2.8-11.1l17.4-4.4l4.4,17.4l-5.5,1.4l-3-12l-5.9,1.5
							L249.3,216.8z"/>
					</g>
				</g>
				<g>
					<g>
						<path class="st0" d="M30.9,257.3l-3,12l-4.7-1.2L26,257l0.1-0.3l0.1-0.3l-12-3l1.2-5l12,3l1.7-6.6l-18.6-4.7L5.7,259l11.4,2.9
							l-1.1,4.4l-1.7,6.7l18.6,4.8l4.7-18.7L30.9,257.3z M32.4,276.9L15,272.5l1.4-5.5l1.4-5.6l-11.4-2.9l4.5-17.7l17.5,4.4
							l-1.4,5.5l-12-3l-1.6,6.2l12,3l-3,11.7l5.9,1.5l3-12l5.5,1.4L32.4,276.9z"/>
					</g>
				</g>
				<g>
					<g>
						<path class="st0" d="M68.3,282.3l6.6-1.7L70.2,262l-18.6,4.8l2.8,11.1L43,280.7l1.2,4.9l0,0l3.5,14l18.7-4.7l-1.7-6.6l-12,3
							l-1.2-4.7l-0.1-0.3l12-3l-0.1-0.3l0,0l-2.9-11.4l4.7-1.2L68.3,282.3z M62.7,282.5L62.7,282.5l0.1,0.3l-12,3.1v0.2l1.5,5.9
							l12-3l1.4,5.5l-17.5,4.4L45,286.1l0,0l-1.3-4.9l11.3-2.9l-2.8-11.1l17.4-4.4l4.4,17.5l-5.5,1.4l-3-12l-5.9,1.5L62.7,282.5z"/>
					</g>
				</g>
				<g>
					<g>
						<path class="st0" d="M105.6,257.3l-3,12l-4.7-1.2l2.8-11.1l0.1-0.3l0.1-0.3l-12-3l1.2-5l12,3l1.7-6.6l-18.6-4.7L80.3,259
							l11.4,2.9l-1.1,4.4l-1.7,6.6l18.6,4.8l4.7-18.7L105.6,257.3z M107,276.9l-17.4-4.5L91,267l1.4-5.6L81,258.5l4.5-17.7l17.5,4.4
							l-1.4,5.5l-12-3l-1.6,6.2l12,3l-3,11.7l5.9,1.5l3-12l5.5,1.4L107,276.9z"/>
					</g>
				</g>
				<g>
					<g>
						<path class="st0" d="M142.9,282.3l6.6-1.7l-4.7-18.6l-3.9,1l-14.7,3.8l2.8,11.1l-11.3,2.9l1.2,4.9l0,0l1.2,4.9l2.3,9.1
							l18.7-4.7l-1.7-6.6l-12,3l-1.2-4.7l-0.1-0.3l12-3l-0.1-0.3l0,0l-2.9-11.4l4.7-1.2L142.9,282.3z M134.6,271.7l2.8,10.8l0,0
							l0.1,0.3l-12,3.1v0.2l1.5,5.9l12-3l1.4,5.5l-17.5,4.4l-2.3-9l-1-3.8l0,0l-1.3-4.9l11.2-2.9h0.1v-0.1l-2.8-11l13.4-3.4l4-1
							l4.4,17.5l-5.5,1.4l-3-12L135,271l-0.8,0.2L134.6,271.7z"/>
					</g>
				</g>
				<g>
					<g>
						<path class="st0" d="M180.3,257.3l-3,12l-4.7-1.2l3-11.7l-12-3l0.1-0.3l1.2-4.7l12,3l1.7-6.6l-18.6-4.7l-5,18.9l11.3,2.9
							l-1.1,4.4l-1.7,6.7l1.6,0.4c3.3,0.9,6.6,1.7,9.9,2.5l7.1,1.8l4.7-18.7L180.3,257.3z M181.7,276.9l-6.5-1.7
							c-3.3-0.8-6.6-1.7-10-2.5l-1-0.2l1.4-5.5l1.4-5.6l-11.3-2.9l4.5-17.7l17.5,4.4l-1.4,5.5l-12-3l-1.6,6.2l12,3l-3,11.7l5.9,1.5
							l3.1-12l5.4,1.4L181.7,276.9z"/>
					</g>
				</g>
				<g>
					<g>
						<path class="st0" d="M217.6,282.3l6.6-1.7l-4.7-18.6l-18.6,4.8l2.8,11.1l-11.4,2.9l1.2,4.9l0,0l3.5,14l18.6-4.7l-1.7-6.6
							l-12,3l-1.2-4.7l0,0l-0.1-0.3l12-3l-0.1-0.3l-2.9-11.4l4.7-1.2L217.6,282.3z M212,282.5l0.1,0.3l-12,3.1l0.1,0.2l1.5,5.9l12-3
							l1.4,5.5l-17.4,4.4l-3.2-12.8l0,0l-1.3-4.9l11.4-2.9l-2.8-11.1l17.4-4.4l4.4,17.5l-5.5,1.4l-3-12l-5.9,1.5L212,282.5z"/>
					</g>
				</g>
				<g>
					<g>
						<path class="st0" d="M254.9,257.3l-3,12l-4.7-1.2l3-11.7l-12-3l1.2-5l12,3l1.7-6.6l-18.6-4.7l-4.8,18.9l11.3,2.9l-1.1,4.4
							l-1.7,6.7l18.6,4.8l4.7-18.7L254.9,257.3z M256.4,276.9l-17.4-4.5l1.4-5.5l1.4-5.6l-11.3-2.9l4.5-17.7l17.5,4.4l-1.4,5.5
							l-12-3l-1.6,6.2l12,3l-3,11.7l5.9,1.5l3-12l5.5,1.4L256.4,276.9z"/>
					</g>
				</g>
				<g>
					<g>
						<path class="st0" d="M30.9,304.2l6.7-1.7l-4.7-18.6l-18.6,4.8l2.8,11.1l-11.4,2.9l1.2,4.9l0,0l3.5,14l18.6-4.7l-1.7-6.6l-12,3
							l-1.2-4.7l-0.1-0.3l12-3l-0.1-0.3l0,0L23,293.6l4.7-1.2L30.9,304.2z M25.3,304.4l0.1,0.3l-12,3.1l0.1,0.2l1.5,5.9l12-3
							l1.4,5.5l-17.5,4.4L7.7,308l0,0l-1.3-5l11.4-2.9L15,289l17.4-4.5l4.4,17.5l-5.5,1.4l-3-12l-5.9,1.5L25.3,304.4z"/>
					</g>
				</g>
				<g>
					<g>
						<path class="st0" d="M68.3,323l-3,12l-4.7-1.2l2.8-11.1l0.1-0.3l0.1-0.3l-12-3.1l1.3-5l12,3l1.7-6.6l-18.7-4.7L43,324.6
							l11.3,2.9l-1.1,4.4l0,0l-1.7,6.6l18.6,4.8l4.7-18.6L68.3,323z M69.7,342.6l-17.4-4.4l1.4-5.5l0,0l1.4-5.6l-11.3-2.9l4.5-17.7
							l17.5,4.4l-1.4,5.5l-12-3l-1.5,6.1l12,3.1l-3,11.7l5.9,1.5l3-12l5.5,1.4L69.7,342.6z"/>
					</g>
				</g>
				<g>
					<g>
						<path class="st0" d="M111.8,301l-4.3-17.1l-18.6,4.8l1.6,6.4l0.1,0.3l1.1,4.4l-11.4,2.9l1.2,4.9l0,0l3.5,14l15.1-3.9l3.5-0.9
							l-0.9-3.5l-0.8-3.2l-12,3l-1.2-4.7l-0.1-0.3l12-3l-0.1-0.3l0,0l-2.9-11.4l4.7-1.2l3,12l4.6-1.2l2-0.5L111.8,301z M110.8,302.2
							l-4.8,1.2l-3-12l-5.9,1.5l2.9,11.4l0.1,0.3l-12,3.1l0.1,0.2l1.5,5.9l12-3l0.8,3.1l0.6,2.3l-2.3,0.6l-15.1,3.9l-3.2-12.8l0,0
							l-1.2-4.9l11.4-2.9L89.6,289l17.4-4.5l4.3,17l0.1,0.5L110.8,302.2z"/>
					</g>
				</g>
				<g>
					<g>
						<path class="st0" d="M142.9,323l-3,12l-4.7-1.2l3-11.7l-12-3.1l1.3-5l12,3l1.7-6.6l-18.7-4.7l-4.8,18.9l11.3,2.9l-1.1,4.4l0,0
							l-1.7,6.6l18.6,4.8l4.7-18.6L142.9,323z M144.4,342.6l-17.4-4.4l1.4-5.5l0,0l1.4-5.6l-11.4-2.9l4.5-17.7l17.5,4.4l-1.4,5.5
							l-12-3l-1.5,6.1l12,3.1l-3,11.7l5.9,1.5l3-12l5.5,1.4L144.4,342.6z"/>
					</g>
				</g>
				<g>
					<g>
						<path class="st0" d="M180.3,304.2l6.6-1.7l-4.7-18.6l-7.1,1.8c-3.3,0.9-6.6,1.7-9.9,2.5l-1.6,0.4l2.8,11.1l-11.3,2.9l1.2,4.9
							l0,0l3.5,14l18.6-4.7l-1.7-6.6l-12,3l-1.2-4.7l-0.1-0.3l12-3l-0.1-0.3l0,0l-2.9-11.4l4.7-1.2L180.3,304.2z M174.7,304.4
							L174.7,304.4l0.1,0.3l-12,3.1l0.1,0.2l0,0l1.5,5.9l12-3l1.4,5.5l-17.5,4.4l-3.2-12.8l0,0l-1.2-4.9l11.3-2.9l-2.8-11.1l1-0.2
							c3.3-0.8,6.6-1.7,10-2.5l6.5-1.7l4.4,17.5l-5.4,1.4l-3.1-12l-5.9,1.5L174.7,304.4z"/>
					</g>
				</g>
				<g>
					<g>
						<path class="st0" d="M217.6,323l-3,12l-4.7-1.2l3-11.7l-12-3.1l0.1-0.2l1.2-4.7l12,3l1.7-6.6l-18.6-4.7l-4.8,18.9l11.4,2.9
							l-1.1,4.4l0,0l-1.7,6.6l18.6,4.8l4.7-18.6L217.6,323z M219.1,342.6l-17.4-4.4l1.4-5.5l0,0l1.4-5.6l-11.4-2.9l4.5-17.7
							l17.4,4.4l-1.4,5.5l-12-3l-1.6,6.1l12,3.1l-3,11.7l5.9,1.5l3-12l5.5,1.4L219.1,342.6z"/>
					</g>
				</g>
				<g>
					<g>
						<path class="st0" d="M254.9,304.2l6.7-1.7l-4.7-18.6l-18.6,4.8l2.8,11.1l-11.3,2.9l1.2,4.9l0,0l3.5,14l18.6-4.7l-1.7-6.6
							l-12,3l-1.2-4.7l-0.1-0.3l12-3L250,305l0,0l-2.9-11.4l4.7-1.2L254.9,304.2z M249.3,304.4L249.3,304.4l0.1,0.3l-12,3.1l0.1,0.2
							l0,0l1.5,5.9l12-3l1.4,5.5l-17.5,4.4l-3.2-12.8l0,0l-1.2-4.9l11.3-2.9L239,289l17.4-4.5l4.4,17.5l-5.5,1.4l-3-12l-5.9,1.5
							L249.3,304.4z"/>
					</g>
				</g>
				<g>
					<g>
						<path class="st0" d="M30.9,344.9l-3,12l-4.7-1.2l2.8-11.1l0.1-0.3l0,0l0.1-0.3l-12-3.1l1.2-5l12,3l1.7-6.6l-18.6-4.7
							l-4.8,18.9l11.4,2.9l-1.1,4.4l-1.7,6.6l18.6,4.8l4.7-18.6L30.9,344.9z M32.4,364.5L15,360l1.4-5.5l1.4-5.6L6.4,346l4.5-17.7
							l17.5,4.4l-1.4,5.5l-12-3l-1.6,6.1l12,3.1l-3,11.7l5.9,1.5l3-12l5.5,1.4L32.4,364.5z"/>
					</g>
				</g>
				<g>
					<g>
						<path class="st0" d="M68.3,369.8l6.6-1.7l-4.7-18.7l-18.6,4.8l2.8,11.1L43,368.2l1.2,4.9l0,0l3.5,14l18.7-4.8l-1.7-6.6l-12,3
							l-1.2-4.7l-0.1-0.3l12-3.1l-0.1-0.3l0,0L60.5,359l4.7-1.2L68.3,369.8z M62.7,370L62.7,370l0.1,0.3l-12,3v0.2l1.5,5.9l12-3
							l1.4,5.5l-17.5,4.4L45,373.6l0,0l-1.3-4.9l11.3-2.9l-2.8-11.1l17.4-4.5l4.4,17.5l-5.5,1.4l-3-12l-5.9,1.5L62.7,370z"/>
					</g>
				</g>
				<g>
					<g>
						<path class="st0" d="M105.6,344.9l-3,12l-4.7-1.2l2.8-11.1l0.1-0.3l0,0l0.1-0.3l-11.1-2.8L89,341l1.2-5l1.4,0.4l10.6,2.7
							l1.7-6.6l-9.6-2.4l-9-2.3l-4.8,18.9l6.9,1.7l4.5,1.1l-1.1,4.5l-1.7,6.6l18.6,4.8l4.7-18.6L105.6,344.9z M107,364.5L89.6,360
							l1.4-5.5l1.4-5.6l-5-1.3l-6.3-1.6l4.5-17.7l8.3,2.1l9.1,2.3l-1.4,5.5l-9.9-2.5l-2.1-0.5l-1.6,6.1l1.4,0.4l10.6,2.7l-3,11.7
							l5.9,1.5l3-12l5.5,1.4L107,364.5z"/>
					</g>
				</g>
				<g>
					<g>
						<path class="st0" d="M142.9,369.8l6.6-1.7l-4.7-18.7l-18.6,4.8l2.8,11.1l-11.3,2.9l1.2,4.9l0,0l3.5,14l18.7-4.8l-1.7-6.6
							l-12,3l-1.2-4.7l-0.1-0.3l12-3.1l-0.1-0.3l0,0l-2.9-11.4l4.7-1.2L142.9,369.8z M137.3,370L137.3,370l0.1,0.3l-12,3v0.2
							l1.5,5.9l12-3l1.4,5.5l-17.5,4.4l-3.2-12.8l0,0l-1.3-4.9l11.4-2.9l-2.8-11.1l17.4-4.5l4.4,17.5l-5.5,1.4l-3-12l-5.9,1.5
							L137.3,370z"/>
					</g>
				</g>
				<g>
					<g>
						<path class="st0" d="M180.3,344.9l-3,12l-4.7-1.2l3-11.7l-12-3.1l0.1-0.3l1.2-4.7l12,3l1.7-6.6l-18.6-4.7l-4.8,18.9l11.3,2.9
							l-1.1,4.4l-1.7,6.6l1.6,0.4c3.3,0.9,6.6,1.7,9.9,2.5l7.1,1.8l4.7-18.6L180.3,344.9z M181.7,364.5l-6.5-1.7
							c-3.3-0.8-6.6-1.7-10-2.5l-1-0.2l1.4-5.5l1.4-5.6l-11.3-2.9l4.5-17.7l17.5,4.4l-1.4,5.5l-12-3l-1.6,6.1l12,3.1l-3,11.7
							l5.9,1.5l3.1-12l5.4,1.4L181.7,364.5z"/>
					</g>
				</g>
				<g>
					<g>
						<path class="st0" d="M217.6,369.8l6.6-1.7l-4.7-18.7l-18.6,4.8l2.8,11.1l-11.4,2.9l1.2,4.9l0,0l3.5,14l18.6-4.8l-1.7-6.6
							l-12,3l-1.2-4.7l0,0l-0.1-0.3l12-3.1l-0.1-0.3l-2.9-11.4l4.7-1.2L217.6,369.8z M212,370l0.1,0.3l-12,3l0.1,0.2l1.5,5.9l12-3
							l1.4,5.5l-17.4,4.4l-3.2-12.8l0,0l-1.3-4.9l11.4-2.9l-2.8-11.1l17.4-4.5l4.4,17.5l-5.5,1.4l-3-12l-5.9,1.5L212,370z"/>
					</g>
				</g>
				<g>
					<g>
						<path class="st0" d="M254.9,344.9l-3,12l-4.7-1.2l3-11.7l-12-3.1l1.2-5l12,3l1.7-6.6l-18.6-4.7l-4.8,18.9l11.3,2.9l-1.1,4.4
							l-1.7,6.6l18.6,4.8l4.7-18.6L254.9,344.9z M256.4,364.5L239,360l1.4-5.5l1.4-5.6l-11.3-2.9l4.5-17.7l17.5,4.4l-1.4,5.5l-12-3
							l-1.6,6.1l12,3.1l-3,11.7l5.9,1.5l3-12l5.5,1.4L256.4,364.5z"/>
					</g>
				</g>
				<g>
					<g>
						<path class="st0" d="M30.9,391.7l6.7-1.7l-4.7-18.7l-18.6,4.8l2.8,11.1l-11.4,2.9l1.2,4.9l0,0l3.5,14l18.6-4.8l-1.7-6.6
							l-12,3.1l-1.2-4.7l-0.1-0.3l12-3.1l-0.1-0.3L23,380.9l4.7-1.2L30.9,391.7z M25.3,391.9l0.1,0.3l-12,3l0.1,0.2l1.5,5.9l12-3
							l1.4,5.5l-17.5,4.4l-3.2-12.8l0,0l-1.2-4.9l11.4-2.9L15,376.5l17.4-4.5l4.4,17.5l-5.5,1.4l-3-12l-5.9,1.5L25.3,391.9z"/>
					</g>
				</g>
				<g>
					<g>
						<path class="st0" d="M68.3,410.5l-3,12l-4.7-1.2l2.2-8.8l0.6-2.3l0.1-0.3l0.1-0.3l-12-3l1.3-5l12,3l1.7-6.7l-18.7-4.7
							L43,412.1l11.3,2.9l-1.1,4.4l0,0l-0.8,3.1l-0.9,3.6l18.6,4.8l4.7-18.6L68.3,410.5z M69.7,430.1l-17.4-4.5l0.9-3.6l0.5-1.8l0,0
							l1.4-5.6l-11.3-2.9l4.5-17.7l17.5,4.4l-1.4,5.5l-12-3.1l-1.5,6.2l12,3l-1,3.8l-2,7.9l5.9,1.5l3-12l5.5,1.4L69.7,430.1z"/>
					</g>
				</g>
				<g>
					<g>
						<path class="st0" d="M105.6,391.7l6.6-1.7l-4.7-18.7l-18.6,4.8l1.6,6.3l0.1,0.3l1.1,4.5l-11.4,2.9l1.2,4.9l0,0l3.5,14
							l18.6-4.8l-1.7-6.6l-12,3.1l-1.2-4.7l-0.1-0.3l12-3.1l-0.1-0.3l-2.9-11.4l4.7-1.2L105.6,391.7z M100,391.9l0.1,0.3l-12,3
							l0.1,0.2l1.5,5.9l12-3l1.4,5.5l-17.5,4.4l-3.2-12.8l0,0l-1.2-4.9l11.4-2.9l-2.8-11.1l17.4-4.5l4.4,17.5l-5.5,1.4l-3-12
							l-5.9,1.5L100,391.9z"/>
					</g>
				</g>
				<g>
					<g>
						<path class="st0" d="M142.9,410.5l-3,12l-4.7-1.2l3-11.7l-12-3l1.3-5l12,3l1.7-6.7l-18.7-4.7l-4.8,18.9L129,415l-1.1,4.4l0,0
							l-1.7,6.7l18.6,4.8l4.7-18.6L142.9,410.5z M144.4,430.1l-17.4-4.5l1.4-5.4l0,0l1.4-5.6l-11.4-2.9l4.5-17.7l17.5,4.4l-1.4,5.5
							l-12-3.1l-1.5,6.2l12,3l-3,11.7l5.9,1.5l3-12l5.5,1.4L144.4,430.1z"/>
					</g>
				</g>
				<g>
					<g>
						<path class="st0" d="M180.3,391.7l6.6-1.7l-4.7-18.7l-7.1,1.8c-3.3,0.8-6.6,1.7-9.9,2.5l-1.6,0.4l2.8,11.1l-11.3,2.9l1.2,4.9
							l0,0l3.5,14l18.6-4.8l-1.7-6.6l-12,3.1l-1.2-4.7l-0.1-0.3l12-3.1l-0.1-0.3l0,0l-2.9-11.4l4.7-1.2L180.3,391.7z M174.7,391.9
							L174.7,391.9l0.1,0.3l-12,3l0.1,0.2l0,0l1.5,5.9l12-3l1.4,5.5l-17.5,4.4l-3.2-12.8l0,0l-1.2-4.9l11.3-2.9l-2.8-11.1l1-0.2
							c3.3-0.9,6.6-1.7,10-2.5l6.5-1.7l4.4,17.5l-5.4,1.4l-3.1-12l-5.9,1.5L174.7,391.9z"/>
					</g>
				</g>
				<g>
					<g>
						<path class="st0" d="M217.6,410.5l-3,12l-4.7-1.2l3-11.7l-12-3l0.1-0.3l1.2-4.7l12,3l1.7-6.7l-18.6-4.7l-4.8,18.9l11.4,2.9
							l-1.1,4.4l0,0l-1.7,6.7l18.6,4.8l4.7-18.6L217.6,410.5z M219.1,430.1l-17.4-4.5l1.4-5.4l0,0l1.4-5.6l-11.4-2.9l4.5-17.7
							l17.4,4.4l-1.4,5.5l-12-3.1L200,407l12,3l-3,11.7l5.9,1.5l3-12l5.5,1.4L219.1,430.1z"/>
					</g>
				</g>
				<g>
					<g>
						<path class="st0" d="M254.9,391.7l6.7-1.7l-4.7-18.7l-18.6,4.8l2.8,11.1l-11.3,2.9l1.2,4.9l0,0l3.5,14l18.6-4.8l-1.7-6.6
							l-12,3.1l-1.2-4.7l-0.1-0.3l12-3.1l-0.1-0.3l-2.9-11.4l4.7-1.2L254.9,391.7z M249.3,391.9L249.3,391.9l0.1,0.3l-12,3l0.1,0.2
							l0,0l1.5,5.9l12-3l1.4,5.5l-17.5,4.4l-3.2-12.8l0,0l-1.2-4.9l11.3-2.9l-2.8-11.1l17.4-4.5l4.4,17.5l-5.5,1.4l-3-12l-5.9,1.5
							L249.3,391.9z"/>
					</g>
				</g>
				<g>
					<g>
						<path class="st0" d="M30.9,432.4l-3,12l-4.7-1.2l3-11.7l-12-3l0.5-1.8l0.8-3.2l12,3l1.7-6.7l-18.6-4.7L8,425l-2.3,9l11.4,2.9
							l-1.1,4.4l-1.7,6.7l18.6,4.8l4.7-18.6L30.9,432.4z M32.4,452L15,447.5l1.4-5.4l1.4-5.6l-11.4-2.9l2.1-8.4l2.3-9.3l17.5,4.4
							l-1.4,5.5l-12-3l-1,3.8l-0.6,2.4l12,3l-3,11.7l5.9,1.5l3-12l5.5,1.4L32.4,452z"/>
					</g>
				</g>
				<g>
					<g>
						<path class="st0" d="M68.3,457.3l6.6-1.7L70.2,437l-18.6,4.8l2.8,11.1L43,455.7l1.2,4.9l0,0l3.5,14l18.7-4.7l-1.7-6.7l-12,3.1
							l-1.2-4.7l-0.1-0.3l12-3l-0.1-0.3l0,0l-2.9-11.4l4.7-1.2L68.3,457.3z M62.7,457.5L62.7,457.5l0.1,0.3l-12,3v0.2l1.5,5.9
							l12-3.1l1.4,5.5l-17.5,4.4L45,461.1l0,0l-1.3-4.9l11.3-2.9l-2.8-11.1l17.4-4.5l4.4,17.5l-5.5,1.4l-3-12l-5.9,1.5L62.7,457.5z"
							/>
					</g>
				</g>
				<g>
					<g>
						<path class="st0" d="M105.6,432.4l-3,12l-4.7-1.2l3-11.7l-12-3l1.2-5l12,3l1.7-6.7l-18.6-4.7L80.3,434l11.4,2.9l-1.1,4.4l0,0
							l-1.7,6.7l18.6,4.8l4.7-18.6L105.6,432.4z M107,452l-17.4-4.5L91,442l0,0l1.4-5.6L81,433.5l4.5-17.7l17.5,4.4l-1.4,5.5l-12-3
							l-1.6,6.2l12,3l-3,11.7l5.9,1.5l3-12l5.5,1.4L107,452z"/>
					</g>
				</g>
				<g>
					<g>
						<path class="st0" d="M142.9,457.3l6.6-1.7l-4.7-18.7l-18.6,4.8l2.8,11.1l-11.3,2.9l1.2,4.9l0,0l3.5,14l18.7-4.7l-1.7-6.7
							l-12,3.1l-1.2-4.7l-0.1-0.3l12-3L138,458l0,0l-2.9-11.4l4.7-1.2L142.9,457.3z M137.3,457.5L137.3,457.5l0.1,0.3l-12,3v0.2
							l1.5,5.9l12-3.1l1.4,5.5l-17.5,4.4l-3.2-12.8l0,0l-1.3-4.9l11.4-2.9l-2.8-11.1l17.4-4.5l4.4,17.5l-5.5,1.4l-3-12l-5.9,1.5
							L137.3,457.5z"/>
					</g>
				</g>
				<g>
					<g>
						<path class="st0" d="M180.3,432.4l-3,12l-4.7-1.2l3-11.7l-12-3l0.1-0.3l1.2-4.7l12,3l1.7-6.7l-18.6-4.7l-5,18.9l11.3,2.9
							l-1.1,4.4l-1.7,6.7l1.6,0.4c3.3,0.8,6.6,1.7,9.9,2.5l7.1,1.8l4.7-18.6L180.3,432.4z M181.7,452l-6.5-1.7
							c-3.3-0.9-6.6-1.7-10-2.5l-1-0.2l1.4-5.4l1.4-5.6l-11.3-2.9l4.5-17.7l17.5,4.4l-1.4,5.5l-12-3l-1.6,6.2l12,3l-0.1,0.3
							l-2.9,11.4l5.9,1.5l3.1-12l5.4,1.4L181.7,452z"/>
					</g>
				</g>
				<g>
					<g>
						<path class="st0" d="M217.6,457.3l6.6-1.7l-4.7-18.7l-18.6,4.8l2.8,11.1l-11.4,2.9l1.2,4.9l0,0l3.5,14l18.6-4.7l-1.7-6.7
							l-12,3.1l-1.2-4.7l0,0l-0.1-0.3l12-3l-0.1-0.3l-2.9-11.4l4.7-1.2L217.6,457.3z M212,457.5l0.1,0.3l-12,3l0.1,0.2l1.5,5.9
							l12-3.1l1.4,5.5l-17.4,4.4l-3.2-12.8l0,0l-1.3-4.9l11.4-2.9l-2.8-11.1l17.4-4.5l4.4,17.5l-5.5,1.4l-3-12l-5.9,1.5L212,457.5z"
							/>
					</g>
				</g>
				<g>
					<g>
						<path class="st0" d="M254.9,432.4l-3,12l-4.7-1.2l3-11.7l-12-3l1.2-5l12,3l1.7-6.7l-18.6-4.7l-4.8,18.9l11.3,2.9l-1.1,4.4
							l-1.7,6.7l18.6,4.8l4.7-18.6L254.9,432.4z M256.4,452l-17.4-4.5l1.4-5.4l1.4-5.6l-11.3-2.9l4.5-17.7l17.5,4.4l-1.4,5.5l-12-3
							l-1.6,6.2l12,3l-0.1,0.3l-2.9,11.4l5.9,1.5l3-12l5.5,1.4L256.4,452z"/>
					</g>
				</g>
			</g>
		</g>
	</g>
</g>
</svg>
