<?xml version="1.0" encoding="utf-8"?>
<!-- Generator: Adobe Illustrator 25.1.0, SVG Export Plug-In . SVG Version: 6.00 Build 0)  -->
<svg version="1.1" id="Layer_1" xmlns="http://www.w3.org/2000/svg" xmlns:xlink="http://www.w3.org/1999/xlink" x="0px" y="0px"
	 viewBox="0 0 1920 1080" style="enable-background:new 0 0 1920 1080;" xml:space="preserve">
<style type="text/css">
	.st0{fill:#2E3F33;}
	.st1{fill:#9E403B;}
	.st2{clip-path:url(#SVGID_2_);fill:url(#SVGID_3_);}
	.st3{clip-path:url(#SVGID_5_);fill:url(#SVGID_6_);}
	.st4{clip-path:url(#SVGID_8_);fill:url(#SVGID_9_);}
	.st5{clip-path:url(#SVGID_11_);fill:url(#SVGID_12_);}
	.st6{clip-path:url(#SVGID_14_);fill:url(#SVGID_15_);}
	.st7{clip-path:url(#SVGID_17_);fill:url(#SVGID_18_);}
</style>
<g>
	<path class="st0" d="M670.5,508.8v-38.3c0-6.2,5.1-11.3,11.3-11.3h9.3c3,0,5.4,2.4,5.4,5.4c0,3-2.4,5.4-5.4,5.4h-9.3
		c-0.3,0-0.5,0.2-0.5,0.5v38.3c0,0.3,0.2,0.5,0.5,0.5h28.5c0.3,0,0.5-0.2,0.5-0.5v-38.3c0-6.2,5.1-11.3,11.3-11.3h28.5
		c6.2,0,11.3,5.1,11.3,11.3v38.3c0,6.2-5.1,11.3-11.3,11.3h-9.3c-3,0-5.4-2.4-5.4-5.4c0-3,2.4-5.4,5.4-5.4h9.3
		c0.3,0,0.5-0.2,0.5-0.5v-38.3c0-0.3-0.2-0.5-0.5-0.5h-28.5c-0.3,0-0.5,0.2-0.5,0.5v38.3c0,6.2-5.1,11.3-11.3,11.3h-28.5
		C675.6,520.1,670.5,515,670.5,508.8"/>
	<path class="st0" d="M662.3,489.6c0-3,2.4-5.4,5.4-5.4h96.9c3,0,5.4,2.4,5.4,5.4c0,3-2.4,5.4-5.4,5.4h-96.9
		C664.7,495,662.3,492.6,662.3,489.6"/>
	<path class="st1" d="M669.7,593c0-22.7,22.1-41.2,49.2-41.2c27.1,0,49.2,18.5,49.2,41.2c0,9.2-4.1,18.7-11.3,26.3
		c-2.1,2.2-5.5,2.2-7.7,0.2c-2.2-2.1-2.2-5.5-0.2-7.7c5.2-5.5,8.3-12.5,8.3-18.8c0-16.7-17.2-30.4-38.4-30.4
		c-21.2,0-38.4,13.6-38.4,30.4c0,7.3,2.7,13.4,8.1,18.7c2.2,2.1,2.2,5.5,0.1,7.6c-2.1,2.1-5.5,2.2-7.7,0.1
		C673.5,612.2,669.7,603.3,669.7,593"/>
	<path class="st1" d="M729.1,584.5v-38.6c0-3,2.4-5.4,5.4-5.4c3,0,5.4,2.4,5.4,5.4v38.6c0,3-2.4,5.4-5.4,5.4
		C731.5,589.9,729.1,587.5,729.1,584.5"/>
	<path class="st1" d="M697.8,584.5v-38.6c0-3,2.4-5.4,5.4-5.4c3,0,5.4,2.4,5.4,5.4v38.6c0,3-2.4,5.4-5.4,5.4
		C700.2,589.9,697.8,587.5,697.8,584.5"/>
</g>
<g>
	<defs>
		<path id="SVGID_1_" d="M763.5,386.2c-2.9-0.8-5.8,0.9-6.6,3.8c-0.8,2.9,0.9,5.8,3.8,6.6c65,17.3,110.4,76.3,110.4,143.5
			c0,69.3-49.1,130.4-116.8,145.2c-2.5,0.6-4.3,2.8-4.3,5.3c0,0.4,0,0.8,0.1,1.2c0.6,2.9,3.5,4.8,6.4,4.1
			c72.6-15.9,125.3-81.4,125.3-155.8C881.9,468.1,833.2,404.8,763.5,386.2"/>
	</defs>
	<clipPath id="SVGID_2_">
		<use xlink:href="#SVGID_1_"  style="overflow:visible;"/>
	</clipPath>
	
		<linearGradient id="SVGID_3_" gradientUnits="userSpaceOnUse" x1="425.0219" y1="907.4091" x2="428.0794" y2="907.4091" gradientTransform="matrix(-3.8783 193.361 193.361 3.8783 -172987.4062 -85448.75)">
		<stop  offset="0" style="stop-color:#243228"/>
		<stop  offset="0.2235" style="stop-color:#243228"/>
		<stop  offset="0.4017" style="stop-color:#3E332A"/>
		<stop  offset="0.7724" style="stop-color:#70352E"/>
		<stop  offset="0.9556" style="stop-color:#833630"/>
		<stop  offset="1" style="stop-color:#833630"/>
	</linearGradient>
	<polygon class="st2" points="888.2,385.6 881.9,699.3 743.9,696.5 750.2,382.8 	"/>
</g>
<g>
	<defs>
		<path id="SVGID_4_" d="M783,698.5l-20.3-10.2l10.1-20.6c1.3-2.7,0.2-5.9-2.5-7.2c-2.7-1.3-5.9-0.2-7.2,2.5l-12.5,25.4
			c-0.4,0.8-0.6,1.6-0.6,2.4c0,2,1.1,3.9,3,4.8l25.1,12.6c2.7,1.3,5.9,0.3,7.3-2.4c0.4-0.8,0.6-1.6,0.6-2.4
			C786,701.3,784.9,699.4,783,698.5"/>
	</defs>
	<clipPath id="SVGID_5_">
		<use xlink:href="#SVGID_4_"  style="overflow:visible;"/>
	</clipPath>
	
		<linearGradient id="SVGID_6_" gradientUnits="userSpaceOnUse" x1="425.0219" y1="907.2543" x2="428.0794" y2="907.2543" gradientTransform="matrix(-3.8783 193.361 193.361 3.8783 -173002.5625 -85449.0547)">
		<stop  offset="0" style="stop-color:#243228"/>
		<stop  offset="0.2235" style="stop-color:#243228"/>
		<stop  offset="0.4017" style="stop-color:#3E332A"/>
		<stop  offset="0.7724" style="stop-color:#70352E"/>
		<stop  offset="0.9556" style="stop-color:#833630"/>
		<stop  offset="1" style="stop-color:#833630"/>
	</linearGradient>
	<polygon class="st3" points="787,659.1 786,710.2 749.1,709.4 750.1,658.4 	"/>
</g>
<g>
	<defs>
		<path id="SVGID_7_" d="M682.1,388.4c-0.6-2.9-3.5-4.8-6.4-4.1c-72.6,15.9-125.3,81.4-125.3,155.8c0,72.1,48.7,135.4,118.4,154
			c2.9,0.8,5.9-0.9,6.6-3.8c0.8-2.9-0.9-5.8-3.8-6.6c-65-17.3-110.4-76.3-110.4-143.5c0-69.3,49.1-130.4,116.8-145.2
			c2.5-0.6,4.2-2.8,4.2-5.3C682.2,389.1,682.2,388.7,682.1,388.4"/>
	</defs>
	<clipPath id="SVGID_8_">
		<use xlink:href="#SVGID_7_"  style="overflow:visible;"/>
	</clipPath>
	
		<linearGradient id="SVGID_9_" gradientUnits="userSpaceOnUse" x1="425.0219" y1="906.7192" x2="428.0794" y2="906.7192" gradientTransform="matrix(-3.8783 193.361 193.361 3.8783 -173053.7031 -85450.0781)">
		<stop  offset="0" style="stop-color:#243228"/>
		<stop  offset="0.2235" style="stop-color:#243228"/>
		<stop  offset="0.4017" style="stop-color:#3E332A"/>
		<stop  offset="0.7724" style="stop-color:#70352E"/>
		<stop  offset="0.9556" style="stop-color:#833630"/>
		<stop  offset="1" style="stop-color:#833630"/>
	</linearGradient>
	<polygon class="st4" points="688.4,383.7 682.1,697.4 544.1,694.6 550.4,380.9 	"/>
</g>
<g>
	<defs>
		<path id="SVGID_10_" d="M679.2,384.7l-25.1-12.6c-2.7-1.3-5.9-0.3-7.3,2.4c-0.4,0.8-0.6,1.6-0.6,2.4c0,2,1.1,3.9,3,4.8l20.3,10.2
			l-10.1,20.6c-1.3,2.7-0.2,5.9,2.5,7.2c2.7,1.3,5.9,0.2,7.2-2.5l12.5-25.4c0.4-0.8,0.5-1.6,0.5-2.4
			C682.2,387.5,681.1,385.6,679.2,384.7"/>
	</defs>
	<clipPath id="SVGID_11_">
		<use xlink:href="#SVGID_10_"  style="overflow:visible;"/>
	</clipPath>
	
		<linearGradient id="SVGID_12_" gradientUnits="userSpaceOnUse" x1="425.0219" y1="906.874" x2="428.0794" y2="906.874" gradientTransform="matrix(-3.8783 193.361 193.361 3.8783 -173038.5469 -85449.7734)">
		<stop  offset="0" style="stop-color:#243228"/>
		<stop  offset="0.2235" style="stop-color:#243228"/>
		<stop  offset="0.4017" style="stop-color:#3E332A"/>
		<stop  offset="0.7724" style="stop-color:#70352E"/>
		<stop  offset="0.9556" style="stop-color:#833630"/>
		<stop  offset="1" style="stop-color:#833630"/>
	</linearGradient>
	<polygon class="st5" points="683.2,370.8 682.2,421.8 645.3,421.1 646.3,370 	"/>
</g>
<g>
	<defs>
		<path id="SVGID_13_" d="M716.2,429.4c61,0,110.7,49.6,110.7,110.7s-49.6,110.7-110.7,110.7c-61,0-110.7-49.6-110.7-110.7
			S655.1,429.4,716.2,429.4 M716.2,418.6c-67,0-121.5,54.5-121.5,121.5s54.5,121.5,121.5,121.5c67,0,121.5-54.5,121.5-121.5
			S783.1,418.6,716.2,418.6"/>
	</defs>
	<clipPath id="SVGID_14_">
		<use xlink:href="#SVGID_13_"  style="overflow:visible;"/>
	</clipPath>
	
		<linearGradient id="SVGID_15_" gradientUnits="userSpaceOnUse" x1="425.0219" y1="907.0641" x2="428.0794" y2="907.0641" gradientTransform="matrix(-3.8783 193.361 193.361 3.8783 -173020.5469 -85449.4141)">
		<stop  offset="0" style="stop-color:#243228"/>
		<stop  offset="0.2235" style="stop-color:#243228"/>
		<stop  offset="0.4017" style="stop-color:#3E332A"/>
		<stop  offset="0.7724" style="stop-color:#70352E"/>
		<stop  offset="0.9556" style="stop-color:#833630"/>
		<stop  offset="1" style="stop-color:#833630"/>
	</linearGradient>
	<polygon class="st6" points="842.5,418.7 837.5,666.4 589.8,661.5 594.8,413.8 	"/>
</g>
<g>
	<defs>
		<path id="SVGID_16_" d="M498.3,616.1L326.2,788.2l-52-52l-23.9-23.9l163.7-163.8l-0.1-0.1l4.5-4.5L246.1,371.6l3.6-3.6l0,0
			l76.2-76.3l159.7,159.7l12.7,12.7l87-87L325.9,117.8L224.1,219.7L134,309.8l0.2,0.2v0l-67,67l0,0l-3.8,3.8L226.4,544l-72.2,72.2
			l-0.1-0.1l-87,87.1l0,0h0l18.1,18C160.5,796.6,235.7,872,311,947.4l14.9,14.9l259.3-259.3L498.3,616.1z"/>
	</defs>
	<clipPath id="SVGID_17_">
		<use xlink:href="#SVGID_16_"  style="overflow:visible;"/>
	</clipPath>
	
		<linearGradient id="SVGID_18_" gradientUnits="userSpaceOnUse" x1="424.9633" y1="906.6897" x2="428.0209" y2="906.6897" gradientTransform="matrix(1.691345e-14 276.2175 276.2175 -1.691345e-14 -250119.3281 -117264.5)">
		<stop  offset="0" style="stop-color:#2E3F33"/>
		<stop  offset="0.2235" style="stop-color:#2E3F33"/>
		<stop  offset="0.4755" style="stop-color:#593F36"/>
		<stop  offset="0.7967" style="stop-color:#8B403A"/>
		<stop  offset="0.9556" style="stop-color:#9E403B"/>
		<stop  offset="1" style="stop-color:#9E403B"/>
	</linearGradient>
	<rect x="63.3" y="117.8" class="st7" width="521.9" height="844.5"/>
</g>
</svg>
