<?xml version="1.0" encoding="utf-8"?>
<!-- Generator: Adobe Illustrator 25.1.0, SVG Export Plug-In . SVG Version: 6.00 Build 0)  -->
<svg version="1.1" id="Layer_1" xmlns="http://www.w3.org/2000/svg" xmlns:xlink="http://www.w3.org/1999/xlink" x="0px" y="0px"
	 viewBox="0 0 1920 1080" style="enable-background:new 0 0 1920 1080;" xml:space="preserve">
<style type="text/css">
	.st0{fill:#FFFFFF;}
	.st1{display:none;opacity:0.7;}
	.st2{display:inline;}
	.st3{fill:#2E3F33;}
	.st4{fill:#9E403B;}
	.st5{clip-path:url(#SVGID_2_);fill:url(#SVGID_3_);}
	.st6{clip-path:url(#SVGID_5_);fill:url(#SVGID_6_);}
	.st7{clip-path:url(#SVGID_8_);fill:url(#SVGID_9_);}
	.st8{clip-path:url(#SVGID_11_);fill:url(#SVGID_12_);}
	.st9{clip-path:url(#SVGID_14_);fill:url(#SVGID_15_);}
	.st10{clip-path:url(#SVGID_17_);fill:url(#SVGID_18_);}
</style>
<rect class="st0" width="1920" height="1080"/>
<g>
	<g class="st1">
		<g class="st2">
			<g>
				<g>
					<g>
						<path class="st0" d="M1859.2,435l11.1,0.7l2.2-31.2l-12.4-0.8c-5.4-0.4-10.8-0.7-16.3-1.2l-2.6-0.1L1840,421l-19-1.4l-0.6,8.2
							l0,0l-1.6,23.4l31.2,2.2l0.7-11.1l-20.1-1.4l0.6-7.8v-0.4l20.1,1.4l0.1-0.5l0,0l1.4-19l7.8,0.5L1859.2,435z M1850.6,432.5
							L1850.6,432.5l-0.1,0.5l-20.1-1.4v0.4l-0.7,9.9l20.1,1.4l-0.6,9.2l-29.2-2.1l1.5-21.4l0,0l0.6-8.2l19,1.4l1.3-18.5l1.6,0.1
							c5.4,0.4,10.8,0.7,16.3,1.2l11.3,0.8l-2.1,29.2l-9.2-0.6l1.4-20.1l-9.9-0.7L1850.6,432.5z"/>
					</g>
				</g>
				<g>
					<g>
						<path class="st0" d="M1907.3,483.2l-10.9,16.9l-6.6-4.2l10.5-16.5l-6-3.9l-11-7l4.4-7.1l16.9,10.9l6.1-9.4l-26.3-16.8
							l-17.1,26.7l6.3,4.1l9.8,6.2l-4,6.3l-6.1,9.4l2.2,1.4c4.6,3,9.2,5.9,13.8,8.9l10.3,6.6l16.8-26.3L1907.3,483.2z M1899.6,514.1
							l-9.5-6.1c-4.6-3-9.2-5.9-13.8-8.9l-1.4-0.9l4.9-7.8l0,0l5-7.9l-9.7-6.1l-6.4-4.1l16-25l24.7,15.8l-5,7.7l-16.9-10.9l-5.5,8.7
							l10.4,6.6l6.6,4.2l-10.5,16.5l8.4,5.3l10.8-17l7.7,5L1899.6,514.1z"/>
					</g>
				</g>
				<g>
					<g>
						<path class="st0" d="M1974.5,473.2l11.1,0.7l2.2-31.2l-12.5-0.9c-5.3-0.4-10.8-0.7-16.2-1.1l-2.6-0.1l-1.3,18.5l-18.9-1.4
							l-0.6,8.2l0,0l-1.4,18.7l-0.4,4.6l14.1,1l17.1,1.2l0.7-11.1L1946,479l0.6-7.8v-0.4l20.1,1.4l0.1-0.5l1.4-19l7.8,0.5
							L1974.5,473.2z M1965.8,470.6L1965.8,470.6l-0.1,0.5l-20.1-1.4v0.4l-0.7,9.9l20.1,1.4l-0.6,9.2l-19.1-1.4l-10.1-0.7l0.2-3.3
							l1.3-18.1l0,0l0.6-8.2l19,1.4l1.3-18.5l1.6,0.1c5.3,0.4,10.8,0.7,16.2,1.1l11.4,0.8l-2.1,29.2l-9.2-0.6l1.4-20.1l-9.9-0.7
							L1965.8,470.6z"/>
					</g>
				</g>
				<g>
					<g>
						<path class="st0" d="M2027.9,524.7l-5.3-3.3l-0.7,1l-10.2,15.9l-6.6-4.2l9.4-14.7l1.1-1.8l-16.9-10.9l4.5-7l16.9,10.9l6.1-9.4
							l-26.3-16.8l-14.2,22.4l-2.8,4.3l16.1,10.3l-4,6.3l-6.1,9.4l2.2,1.4c4.5,2.9,9,5.8,13.6,8.7l10.6,6.8l16.8-26.3L2027.9,524.7z
							 M2014.8,552.3l-9.7-6.3c-4.5-2.9-9.1-5.7-13.6-8.7l-1.4-0.9l4.9-7.8l0,0l5-7.9l-16.1-10.3l2.4-3.6l13.6-21.4l24.7,15.8
							l-5,7.7l-16.9-10.9l-5.5,8.7l16.9,10.9l-0.7,1.1l-9.8,15.4l8.4,5.3l10.8-17l0,0l0.2,0.1l7.6,4.8L2014.8,552.3z"/>
					</g>
				</g>
				<g>
					<g>
						<path class="st0" d="M1838.4,497.9l-10.8,17l-6.6-4.2l3.5-5.6l6.5-10.2l0.3-0.4l0.3-0.4l-16.9-10.9l4.4-7.1L1836,487l6.1-9.4
							l-26.3-16.8l-17.1,26.7l16.1,10.3l-4,6.3l0,0l-6.1,9.4l2.2,1.4c2.1,1.3,4.1,2.6,6.2,3.9c2.3,1.5,4.7,3,7,4.5l11,7l16.8-26.3
							L1838.4,497.9z M1830.7,528.8l-10.1-6.5c-2.3-1.5-4.7-3-7-4.5c-2.1-1.3-4.2-2.6-6.2-3.9l-1.4-0.9l4.9-7.8l0,0l5-7.9
							l-16.1-10.3l16-25l24.7,15.8l-5,7.7l-16.9-10.9l-5.5,8.7l16.9,10.9l-9.6,15l-0.9,1.5l8.4,5.3l10.9-16.9l7.7,5L1830.7,528.8z"
							/>
					</g>
				</g>
				<g>
					<g>
						<path class="st0" d="M1883.4,555.4l11.1,0.7l2.2-31.2l-12.1-0.9c-5.5-0.3-11-0.8-16.5-1.1l-2.6-0.2l-1.3,18.5l-19-1.4
							l-0.6,8.2l0,0l-1.6,23.4l31.2,2.2l0.7-11.1l-20.1-1.4l0.6-7.7l0,0l0.1-0.5l20.1,1.4l0.1-0.5l0,0l1.4-19l7.8,0.6L1883.4,555.4z
							 M1874.7,552.8L1874.7,552.8l-0.1,0.5l-20.1-1.4v0.3l-0.7,10l20.1,1.4l-0.6,9.2l-29.2-2.1l1.5-21.4l0,0l0.6-8.2l19,1.4
							l1.3-18.5l1.6,0.1c5.5,0.3,11,0.8,16.5,1.1l11.1,0.7l-2.1,29.2l-9.2-0.6l1.5-20.1l-9.9-0.7L1874.7,552.8z"/>
					</g>
				</g>
				<g>
					<g>
						<path class="st0" d="M1953.7,536l-10.8,17l-6.6-4.2l10.1-15.7l0.3-0.4l0.3-0.4l-16.9-10.9l4.4-7.1l16.9,10.9l6.1-9.4
							l-26.3-16.8l-17.1,26.7l16.1,10.3l-4,6.3l0,0l-6.1,9.4l2.2,1.4c4.3,2.8,8.8,5.6,13.1,8.4l11,7l16.8-26.3L1953.7,536z
							 M1946,567l-10.2-6.5c-4.3-2.8-8.8-5.6-13.1-8.4l-1.4-0.9l4.9-7.8l5.1-8l-16.1-10.3l16-25l24.7,15.8l-5,7.7l-16.9-10.9
							l-5.5,8.7l16.9,10.9l-10.6,16.6l8.4,5.3l10.9-16.9l7.7,5L1946,567z"/>
					</g>
				</g>
				<g>
					<g>
						<path class="st0" d="M1998.7,593.6l11.1,0.7l2.2-31.2l-12.5-0.9c-5.3-0.4-10.8-0.7-16.2-1.1l-2.6-0.2l-1.3,18.5l-19-1.4
							l-0.6,8.2l0,0l-1.6,23.4l31.2,2.2l0.7-11.1l-20.1-1.4l0.6-7.7l0.1-0.5l20.1,1.4l0.1-0.5l0,0l1.4-19l7.8,0.6L1998.7,593.6z
							 M1990,591L1990,591l-0.1,0.5l-20.1-1.4v0.3l0,0l-0.7,10l20.1,1.4l-0.6,9.2l-29.2-2.1l1.5-21.4l0,0l0.6-8.2l19,1.4l1.3-18.5
							l1.6,0.1c5.3,0.4,10.8,0.7,16.2,1.1l11.4,0.8l-2.1,29.2l-9.2-0.6l1.5-20.1l-9.9-0.7L1990,591z"/>
					</g>
				</g>
				<g>
					<g>
						<path class="st0" d="M2061.5,547.9l0.3-0.9l-15.5-9.9l-17.1,26.7l16.1,10.3l-4,6.3l0,0l-6.1,9.4l2.2,1.4
							c2.6,1.7,5.3,3.3,8,5.1l0.3-0.9c-2.6-1.7-5.1-3.3-7.7-5l-1.4-0.9l4.9-7.8l5.1-8l-16.1-10.3l16-25L2061.5,547.9z M2058.2,557.9
							l0.3-0.9l-9-5.8l-5.5,8.7l11.3,7.2l0.3-0.9l-10.3-6.6l4.4-7.1L2058.2,557.9z"/>
					</g>
				</g>
				<g>
					<g>
						<path class="st0" d="M1814.5,570.1l11.1,0.7l2.2-31.2l-13-0.9c-3.7-0.3-7.4-0.6-11.1-0.7c-1.5-0.1-3-0.2-4.5-0.3l-2.6-0.1
							l-1.3,18.5l-19-1.4l-0.6,8.2l0,0l-1.6,23.4l31.2,2.2l0.7-11.1l-20.1-1.4l0.6-7.7l0.1-0.5l17.4,1.2l2.7,0.2l0.1-0.5l0,0l1.4-19
							l7.8,0.5L1814.5,570.1z M1805.8,567.6L1805.8,567.6l-0.1,0.5l-2.1-0.2l-18-1.2v0.3l0,0l-0.7,10l20.1,1.4l-0.6,9.2l-29.2-2.1
							l1.5-21.4l0,0l0.6-8.2l19,1.4l1.3-18.5l1.6,0.1c1.5,0.1,2.9,0.2,4.3,0.3c3.8,0.3,7.5,0.5,11.3,0.8l12,0.8l-2.1,29.2l-9.2-0.6
							l1.4-20.1l-9.9-0.7L1805.8,567.6z"/>
					</g>
				</g>
				<g>
					<g>
						<path class="st0" d="M1862.6,618.3l-10.7,16.8l-0.1,0.2l-6.6-4.2l1.5-2.3l8.5-13.4l0.3-0.4l0.3-0.4l-16.9-10.9l4.4-7.1
							l16.9,10.9l6.1-9.4l-26.3-16.8l-14.2,22.4l-2.8,4.3l13.7,8.8l2.3,1.5l-0.4,0.7l-3.5,5.5l-6.1,9.4l2.2,1.4
							c4.5,2.9,9.1,5.9,13.6,8.7l10.5,6.7l4.2-6.6l12.6-19.7L1862.6,618.3z M1858.6,643.3l-3.9,6l-9.7-6.1
							c-4.5-2.9-9.1-5.9-13.6-8.7l-1.4-0.9l4.9-7.8l0,0l3.9-6.1l1.1-1.8l-5.9-3.8l-10.2-6.5l2.1-3.3l13.8-21.8l24.7,15.8l-5,7.7
							l-16.9-10.9l-5.5,8.7l16.9,10.9l-8.4,13.1l-2.2,3.4l8.4,5.3l0.5-0.8l10.3-16.2l7.7,5L1858.6,643.3z"/>
					</g>
				</g>
				<g>
					<g>
						<path class="st0" d="M1929.8,608.3l11.1,0.7l2.2-31.2l-13-0.9c-5.3-0.4-10.4-0.7-15.6-1l-2.6-0.1l-1.3,18.5l-19-1.4l-0.6,8.2
							l0,0l-1.6,23.4l31.2,2.2l0.7-11.1l-20.1-1.4l0.6-7.7l0,0l0.1-0.5l20.1,1.4l0.1-0.5l1.4-19l7.8,0.5L1929.8,608.3z
							 M1921.1,605.7L1921.1,605.7l-0.1,0.5l-20.1-1.4v0.3l-0.7,10l20.1,1.4l-0.6,9.2l-29.2-2.1l1.5-21.4l0,0l0.6-8.2l19,1.4
							l1.3-18.5l1.6,0.1c5.2,0.3,10.4,0.7,15.6,1l12.1,0.8l-2.1,29.2l-9.2-0.6l1.4-20.1l-9.9-0.7L1921.1,605.7z"/>
					</g>
				</g>
				<g>
					<g>
						<path class="st0" d="M1977.9,656.4l-10.9,16.9l-6.6-4.2l10-15.6l0.3-0.4l0.3-0.4l-16.9-10.9l4.5-7l16.9,10.9l6.1-9.4
							l-26.3-16.8l-17.1,26.7l16.1,10.3l-4,6.3l-6.1,9.4l2.2,1.4c4.4,2.8,9,5.7,13.4,8.5l10.7,6.9l16.8-26.3L1977.9,656.4z
							 M1970.1,687.4l-9.9-6.3c-4.4-2.8-9-5.7-13.4-8.5l-1.4-0.9l4.9-7.8l0,0l5.1-8l-16.1-10.3l16-25l24.7,15.8l-5,7.7l-16.9-10.9
							l-5.5,8.7l16.9,10.9l-10.5,16.5l8.4,5.3l10.8-17l7.7,5L1970.1,687.4z"/>
					</g>
				</g>
				<g>
					<g>
						<path class="st0" d="M2039,615.7l0.3-0.9c-3.2-0.2-6.3-0.4-9.5-0.7l-2.6-0.1l-1.3,18.5l-19-1.4l-0.6,8.2l0,0l-1.6,23.4
							l18.3,1.3l0.3-0.9l-17.6-1.3l1.5-21.4l0,0l0.6-8.2l19,1.4l1.3-18.5l1.6,0.1C2033,615.2,2035.9,615.5,2039,615.7z M2029.7,644
							l-13.4-1v0.3l-0.7,10l10.7,0.7l0.3-0.9l-10-0.7l0.6-7.7l0,0l0.1-0.5l12.1,0.9L2029.7,644L2029.7,644z"/>
					</g>
				</g>
				<g>
					<g>
						<path class="st0" d="M1793.7,633l-10.8,17l-6.6-4.3l10.5-16.5l-16.9-10.9l4.4-7.1l16.9,10.9l6.1-9.4l-26.3-16.8l-17.1,26.7
							l16.1,10.3l-4,6.3l0,0l-6.1,9.4l2.2,1.5c4.4,2.8,8.8,5.6,13.2,8.5l11,7l16.8-26.3L1793.7,633z M1785.9,664l-10.1-6.5
							c-4.4-2.8-8.8-5.6-13.2-8.5l-1.4-0.9l4.9-7.8l0,0l5-7.9l-16.1-10.3l16-25l24.7,15.8l-5,7.7l-16.9-10.9l-5.5,8.7l16.9,10.9
							l-10.6,16.6l8.4,5.3l10.9-16.9l7.7,5L1785.9,664z"/>
					</g>
				</g>
				<g>
					<g>
						<path class="st0" d="M1838.6,690.6l11.1,0.7l2.2-31.2l-12.7-0.8c-5.3-0.4-10.6-0.8-15.8-1.1l-2.6-0.2l-1.3,18.5l-19-1.4
							l-0.6,8.2l0,0l-1.6,23.4l31.2,2.2l0.7-11.1l-20.1-1.4l0.6-7.7l0,0l0.1-0.5l20.1,1.4l0.1-0.5l0,0l1.4-19l7.8,0.6L1838.6,690.6z
							 M1829.9,688L1829.9,688l-0.1,0.5l-20.1-1.4v0.3l-0.7,10l20.1,1.4l-0.6,9.2l-29.2-2.1l1.5-21.4l0,0l0.6-8.2l19,1.4l1.3-18.5
							l1.6,0.1c5.3,0.4,10.6,0.8,15.8,1.1l11.6,0.8l-2.1,29.2l-9.2-0.6l1.5-20.1l-9.9-0.7L1829.9,688z"/>
					</g>
				</g>
				<g>
					<g>
						<path class="st0" d="M1909,671.1l-10.8,17l-6.6-4.3l10.5-16.5l-16.9-10.9l4.4-7.1l16.9,10.9l6.1-9.4l-26.3-16.8l-15.3,24
							l-1.7,2.7l8.2,5.2l7.9,5l-1.8,2.9l-2.2,3.4l0,0l-6.1,9.4l2.2,1.5c4.3,2.8,8.8,5.6,13.1,8.4l7.2,4.6l3.7,2.4l16.8-26.3
							L1909,671.1z M1901.3,702.2l-3.8-2.4l-6.3-4c-4.3-2.8-8.8-5.6-13.1-8.4l-1.4-0.9l4.9-7.8l2.5-3.9l2.6-4l-11.2-7.2l-4.9-3.1
							l1-1.6l14.9-23.5l24.7,15.8l-5,7.7l-16.9-10.9l-5.5,8.7l16.9,10.9l-10.4,16.2l-0.2,0.3l0.6,0.4l7.7,5l10.9-16.9l7.7,5
							L1901.3,702.2z"/>
					</g>
				</g>
				<g>
					<g>
						<path class="st0" d="M1954,728.8l11.1,0.7l2.2-31.2l-13-0.9c-5.2-0.3-10.4-0.7-15.6-1l-2.6-0.2l-1.3,18.5l-19-1.4l-0.6,8.2
							l0,0l-1.6,23.4l31.2,2.2l0.7-11.1l-20.1-1.4l0.6-7.7l0.1-0.5l20.1,1.4l0.1-0.5l0,0l1.4-19l7.8,0.6L1954,728.8z M1945.3,726.2
							L1945.3,726.2l-0.1,0.5l-20.1-1.4v0.3l0,0l-0.7,10l20.1,1.4l-0.6,9.2l-29.2-2.1l1.5-21.4l0,0l0.6-8.2l19,1.4l1.3-18.5l1.6,0.1
							c5.2,0.3,10.4,0.7,15.6,1l12.1,0.8l-2.1,29.2l-9.2-0.6l1.5-20.1l-9.9-0.7L1945.3,726.2z"/>
					</g>
				</g>
				<g>
					<g>
						<path class="st0" d="M2016.7,683.1l0.3-0.9l-15.5-9.9l-17.1,26.7l16.1,10.3l-4,6.3l0,0l-6.1,9.4l2.2,1.5
							c2.6,1.7,5.3,3.3,8,5.1l0.3-0.9c-2.6-1.7-5.1-3.3-7.7-5l-1.4-0.9l4.9-7.8l5.1-8l-16.1-10.3l16-25L2016.7,683.1z M2013.4,693
							l0.3-0.9l-9-5.8l-5.5,8.7l11.3,7.2l0.3-0.9l-10.3-6.6l4.4-7.1L2013.4,693z"/>
					</g>
				</g>
				<g>
					<g>
						<path class="st0" d="M1769.7,705.3l11.1,0.7l2.2-31.2l-13-0.9c-5.3-0.4-10.4-0.7-15.7-1.1l-2.6-0.2l-1.3,18.5l-19-1.4
							l-0.6,8.2l0,0l-1.6,23.4l31.2,2.2l0.7-11.1L1741,711l0.6-7.7l0.1-0.5l20.1,1.4l0.1-0.5l0,0l1.4-19l7.8,0.6L1769.7,705.3z
							 M1761.1,702.7L1761.1,702.7l-0.1,0.5l-20.1-1.4v0.3l0,0l-0.7,10l20.1,1.4l-0.6,9.2l-29.2-2.1l1.5-21.4l0,0l0.6-8.2l19,1.4
							l1.3-18.5l1.6,0.1c5.3,0.4,10.4,0.7,15.7,1.1l12,0.8l-2.1,29.2l-9.2-0.6l1.4-20.1l-9.9-0.7L1761.1,702.7z"/>
					</g>
				</g>
				<g>
					<g>
						<path class="st0" d="M1817.8,753.4l-10.9,16.9l-6.6-4.2l10-15.6l0.3-0.4l0.3-0.4l-16.9-10.9l4.4-7.1l16.9,10.9l6.1-9.4
							l-26.3-16.8l-17.1,26.7l16.1,10.3l-4,6.3l-6.1,9.4l2.2,1.4c4.5,2.9,9.1,5.9,13.6,8.7l10.5,6.7l16.8-26.3L1817.8,753.4z
							 M1810.1,784.5l-9.7-6.1c-4.5-2.9-9.1-5.9-13.6-8.7l-1.4-0.9l4.9-7.8l0,0l5.1-8l-16.1-10.3l16-25l24.7,15.8l-5,7.7l-16.9-10.9
							l-5.5,8.7l16.9,10.9l-10.5,16.5l8.4,5.3l10.8-17l7.8,4.9L1810.1,784.5z"/>
					</g>
				</g>
				<g>
					<g>
						<path class="st0" d="M1896.5,740.9L1896.5,740.9l2-27.9l-13-0.9c-5.3-0.4-10.4-0.7-15.6-1l-2.6-0.2l-1.3,18.5l-19-1.4
							l-0.6,8.2l0,0l-1.6,23.4l31.2,2.2l0.7-11.1l-20.1-1.4l0.6-7.7l0,0l0.1-0.5l20.1,1.4l0.1-0.5l1.4-19l7.8,0.6l-1.5,20.1
							l10.5,0.7h0.6L1896.5,740.9z M1886.1,742.6l1.4-20.1l-9.9-0.7l-1.4,19l0,0l-0.1,0.5l-20.1-1.4v0.3l-0.7,10l20.1,1.4l-0.6,9.2
							l-29.2-2.1l1.5-21.4l0,0l0.6-8.2l19,1.4l1.3-18.5l1.6,0.1c5.2,0.3,10.4,0.7,15.6,1l12.1,0.8l-2.1,29.2L1886.1,742.6z"/>
					</g>
				</g>
				<g>
					<g>
						<path class="st0" d="M1933.2,791.6l-10.9,16.9l-6.6-4.2l10-15.6l0.3-0.4l0.3-0.4l-16.9-10.9l4.5-7l16.9,10.9l6.1-9.4
							l-26.3-16.8l-17.1,26.7l16.1,10.3l-4,6.3l-6.1,9.4l2.2,1.4c4.4,2.8,9,5.7,13.4,8.5l10.7,6.8l16.8-26.3L1933.2,791.6z
							 M1925.3,822.6l-9.9-6.3c-4.4-2.8-9-5.7-13.4-8.5l-1.4-0.9l4.9-7.8l0,0l5.1-8l-16.1-10.3l16-25l24.7,15.8l-5,7.7l-16.9-10.9
							l-5.5,8.7l16.9,10.9l-10.5,16.5l8.4,5.3l10.8-17l7.8,4.9L1925.3,822.6z"/>
					</g>
				</g>
				<g>
					<g>
						<path class="st0" d="M1985.1,749.2l-2.6-0.2l-1.3,18.5l-19-1.4l-0.6,8.2l0,0l-1.6,23.4l18.3,1.3l0.3-0.9l-17.6-1.3l1.5-21.4
							l0,0l0.6-8.2l19,1.4l1.3-18.5l1.6,0.1c3.1,0.2,6.1,0.4,9.2,0.6l0.3-0.9C1991.4,749.6,1988.3,749.4,1985.1,749.2z
							 M1971.6,778.4l-0.7,10l10.7,0.7l0.3-0.9l-10-0.7l0.6-7.7l0,0l0.1-0.5l12.1,0.9l0.3-0.9l-13.4-1V778.4z"/>
					</g>
				</g>
				<g>
					<g>
						<path class="st0" d="M1748.9,768.1l-10.8,17l-6.6-4.2l10-15.6l0.3-0.4l0.3-0.4l-16.9-10.9l4.4-7.1l16.9,10.9l6.1-9.4
							l-26.3-16.8l-17.1,26.7l16.1,10.3l-4,6.4l0,0l-6,9.4l2.2,1.5c4.4,2.8,8.8,5.6,13.2,8.5l11,7l16.8-26.3L1748.9,768.1z
							 M1741.2,799.2l-10.1-6.5c-4.4-2.8-8.8-5.6-13.2-8.5l-1.4-0.9l5-7.7l5-7.9l-16.1-10.3l16-25l24.7,15.8l-5,7.7l-16.9-10.9
							l-5.5,8.7l16.9,10.9l-10.5,16.5l8.4,5.3l10.9-16.9l7.7,5L1741.2,799.2z"/>
					</g>
				</g>
				<g>
					<g>
						<path class="st0" d="M1793.9,825.8l11.1,0.7l2.2-31.2l-12.7-0.8c-5.3-0.4-10.6-0.8-15.8-1.1l-2.6-0.2l-1.3,18.5l-19-1.4
							l-0.6,8.2l0,0l-1.6,23.4l31.2,2.2l0.7-11.1l-20.1-1.4l0.6-7.7l0,0l0.1-0.6l20.1,1.4l0.1-0.5l0,0l1.4-19l7.8,0.6L1793.9,825.8z
							 M1785.2,823.2L1785.2,823.2l-0.1,0.5l-20.1-1.4v0.3l-0.7,10l20.1,1.4l-0.6,9.2l-29.2-2.1l1.5-21.4l0,0l0.6-8.2l19,1.4
							l1.3-18.5l1.6,0.1c5.3,0.4,10.6,0.8,15.8,1.1l11.6,0.8l-2.1,29.2l-9.1-0.7l1.5-20.1l-9.9-0.7L1785.2,823.2z"/>
					</g>
				</g>
				<g>
					<g>
						<path class="st0" d="M1864.3,806.3l-10.8,17l-6.6-4.2l10-15.6l0.3-0.4l0.3-0.4l-16.9-10.9l4.4-7.1l16.9,10.9l6.1-9.4
							l-26.3-16.8l-17.1,26.7l16.1,10.3l-4,6.3l-6,9.4l2.2,1.5c4.3,2.8,8.8,5.6,13.1,8.4l11,7l16.8-26.3L1864.3,806.3z
							 M1856.5,837.4l-10.2-6.5c-4.3-2.8-8.8-5.6-13.1-8.4l-1.4-0.9l5-7.7l0,0l5-7.9l-16.1-10.3l16-25l24.7,15.8l-5,7.7l-16.9-10.9
							l-5.5,8.7l16.9,10.9l-10.5,16.5l8.4,5.3l10.9-16.9l7.7,5L1856.5,837.4z"/>
					</g>
				</g>
				<g>
					<g>
						<path class="st0" d="M1909.2,864l11.1,0.7l2.2-31.2l-13-0.9c-5.2-0.3-10.4-0.7-15.6-1l-2.6-0.2l-1.3,18.5l-19-1.4l-0.6,8.2
							l0,0l-1.6,23.4l31.2,2.2l0.7-11.1l-20.1-1.4l0.6-7.7l0.1-0.6l20.1,1.4l0.1-0.5l0,0l1.4-19l7.8,0.6L1909.2,864z M1900.5,861.4
							L1900.5,861.4l-0.1,0.5l-20.1-1.4v0.3l0,0l-0.7,10l20.1,1.4l-0.6,9.2l-29.2-2.1l1.5-21.4l0,0l0.6-8.2l19,1.4l1.3-18.5l1.6,0.1
							c5.2,0.3,10.4,0.7,15.6,1l12.1,0.8l-2.1,29.2l-9.1-0.7l1.5-20.1l-9.9-0.7L1900.5,861.4z"/>
					</g>
				</g>
				<g>
					<g>
						<path class="st0" d="M1968.7,828.1l0.3-0.9l-9-5.8l-5.5,8.7l11.3,7.2l0.3-0.9l-10.3-6.6l4.4-7.1L1968.7,828.1z M1972,818.3
							l0.3-0.9l-15.5-9.9l-17.1,26.7l16.1,10.3l-4,6.3l0,0l-6,9.4l2.2,1.5c2.6,1.7,5.3,3.3,8,5.1l0.3-0.9c-2.6-1.7-5.1-3.3-7.7-5
							l-1.4-0.9l5-7.7l0,0l5-7.9l-16.1-10.3l16-25L1972,818.3z"/>
					</g>
				</g>
				<g>
					<g>
						<path class="st0" d="M1725,840.5l11.1,0.7l2.2-31.2l-13-0.9c-5.3-0.4-10.4-0.7-15.7-1.1l-2.6-0.2l-1.3,18.5l-19-1.4l-0.6,8.2
							l0,0l-1.6,23.4l31.2,2.2l0.7-11.1l-20.1-1.4l0.6-7.7l0.1-0.5l20.1,1.4l0.1-0.5l0,0l1.4-19l7.8,0.6L1725,840.5z M1716.3,837.9
							L1716.3,837.9l-0.1,0.5l-20.1-1.4v0.3l0,0l-0.7,10l20.1,1.4l-0.6,9.2l-29.2-2.1l1.5-21.4l0,0l0.6-8.2l19,1.4l1.3-18.5l1.6,0.1
							c5.3,0.4,10.4,0.7,15.7,1.1l12,0.8l-2.1,29.2l-9.1-0.7l1.4-20.1l-9.9-0.7L1716.3,837.9z"/>
					</g>
				</g>
				<g>
					<g>
						<path class="st0" d="M1773.1,888.6l-10.9,16.9l-6.6-4.2l10.1-15.7l0.3-0.4l0.3-0.4l-16.9-10.9l4.4-7.1l16.9,10.9l6.1-9.4
							l-26.3-16.8l-17.1,26.7l16.1,10.3l-4,6.3l-6.1,9.4l2.2,1.4c4.5,2.9,9.1,5.9,13.6,8.7l10.5,6.7l16.8-26.3L1773.1,888.6z
							 M1765.4,919.6l-9.7-6.1c-4.5-2.9-9.1-5.9-13.6-8.7l-1.4-0.9l4.9-7.8l0,0l5.1-8l-16.1-10.3l16-25l24.7,15.8l-5,7.7l-16.9-10.9
							l-5.5,8.7l16.9,10.9l-10.5,16.5l8.4,5.3l10.8-17l7.7,5L1765.4,919.6z"/>
					</g>
				</g>
				<g>
					<g>
						<path class="st0" d="M1840.3,878.7l11.1,0.7l2.2-31.2l-13-0.9c-5.3-0.4-10.4-0.7-15.6-1l-2.6-0.2l-1.3,18.5l-19-1.4l-0.6,8.2
							l0,0l-1.6,23.4l31.2,2.2l0.7-11.1l-20.1-1.4l0.6-7.7l0,0l0.1-0.5l20.1,1.4l0.1-0.5l1.4-19l7.8,0.6L1840.3,878.7z
							 M1831.6,876.1L1831.6,876.1l-0.1,0.5l-20.1-1.4v0.3l-0.7,10l20.1,1.4l-0.6,9.2L1801,894l1.5-21.4l0,0l0.6-8.2l19,1.4
							l1.3-18.5l1.6,0.1c5.2,0.3,10.4,0.7,15.6,1l12.1,0.8l-2.1,29.2l-9.1-0.7l1.4-20.1l-9.9-0.7L1831.6,876.1z"/>
					</g>
				</g>
				<g>
					<g>
						<path class="st0" d="M1888.4,926.8l-6.8,10.6l-4.1,6.3l-6.6-4.2l5.6-8.7l4.4-7l0.3-0.4l0.3-0.4l-13.7-8.8l-3.2-2l1.6-2.5
							l2.9-4.5l16.9,10.9l6.1-9.4l-26.3-16.8l-2.8,4.3l-14.2,22.4l16.1,10.3l-4,6.3l-6.1,9.4l2.2,1.4c4.4,2.8,9,5.7,13.4,8.5
							l10.7,6.8l8.7-13.6l8.1-12.7L1888.4,926.8z M1888.9,944.9l-8.3,13l-9.9-6.3c-4.4-2.8-9-5.7-13.4-8.5l-1.4-0.9l4.9-7.8l0,0
							l5.1-8l-16.1-10.3l13.1-20.5l2.9-4.5l24.7,15.8l-5,7.7l-16.9-10.9l-2.9,4.6l-2.6,4.1l5.2,3.3l11.7,7.6l-4.2,6.6l-6.3,9.9
							l8.4,5.3l4.4-7l6.4-10l7.7,5L1888.9,944.9z"/>
					</g>
				</g>
				<g>
					<g>
						<path class="st0" d="M1940.2,914.2l-13.4-1v0.3l-0.7,10l10.7,0.7l0.3-0.9l-10-0.7l0.6-7.7l0,0l0.1-0.5l12.1,0.9L1940.2,914.2
							L1940.2,914.2z M1949.5,886l0.3-0.9c-3.2-0.2-6.3-0.4-9.5-0.7l-2.6-0.2l-1.3,18.5l-19-1.4l-0.6,8.2l0,0l-1.6,23.4l18.3,1.3
							l0.3-0.9l-17.6-1.3l1.5-21.4l0,0l0.6-8.2l19,1.4l1.3-18.5l1.6,0.1C1943.5,885.6,1946.5,885.8,1949.5,886z"/>
					</g>
				</g>
				<g>
					<g>
						<path class="st0" d="M1704.2,903.3l-10.8,17l-6.6-4.2l10-15.6l0.3-0.4l0.3-0.4l-16.9-10.9l4.4-7.1l16.9,10.9l6.1-9.4
							l-26.3-16.8l-17.1,26.7l16.1,10.3l-4,6.4l0,0l-6,9.4l2.2,1.4c4.4,2.8,8.8,5.6,13.2,8.5l11,7l16.8-26.3L1704.2,903.3z
							 M1696.5,934.3l-10.1-6.4c-4.4-2.8-8.8-5.6-13.2-8.5l-1.4-0.9l5-7.7l5-7.9l-16.1-10.3l16-25l24.7,15.8l-5,7.7l-16.9-10.9
							l-5,7.9l-0.3,0.4l-0.2,0.3l16.9,10.9l-10.5,16.5l8.4,5.3l10.9-16.9l7.8,4.9L1696.5,934.3z"/>
					</g>
				</g>
				<g>
					<g>
						<path class="st0" d="M1749.2,960.9l11.1,0.7l2.2-31.2l-12.7-0.8c-5.3-0.4-10.6-0.8-15.8-1.1l-2.6-0.1l-1.3,18.5l-19-1.4
							l-0.6,8.2l0,0l-1.6,23.4l31.2,2.2l0.7-11.1l-20.1-1.4l0.6-7.7l0,0l0.1-0.5l20.1,1.4l0.1-0.5l0,0l1.4-19l7.8,0.6L1749.2,960.9z
							 M1740.4,958.3L1740.4,958.3l-0.1,0.5l-20.1-1.4v0.3l-0.7,10l20.1,1.4l-0.6,9.2l-29.2-2.1l1.5-21.4l0,0l0.6-8.2l19,1.4
							l1.3-18.5l1.6,0.1c5.3,0.4,10.6,0.8,15.8,1.1l11.6,0.8l-2.1,29.2l-9.2-0.6l1.5-20.1l-9.9-0.7L1740.4,958.3z"/>
					</g>
				</g>
				<g>
					<g>
						<path class="st0" d="M1819.5,941.5l-10.8,17l-6.6-4.2l10-15.6l0.5-0.9l-16.9-10.9l4.4-7.1l16.9,10.9l6.1-9.4l-26.3-16.8
							l-17.1,26.7l16.1,10.3l-4,6.4l-6,9.4l2.2,1.4c4.3,2.8,8.8,5.6,13.1,8.4l11,7l16.8-26.3L1819.5,941.5z M1811.8,972.4l-10.2-6.5
							c-4.3-2.8-8.8-5.6-13.1-8.4l-1.4-0.9l5-7.7l0,0l5-7.9l-16.1-10.3l16-25l24.7,15.8l-5,7.7l-16.9-10.9l-5,7.9l-0.3,0.4l-0.2,0.3
							l16.9,10.9l-10.5,16.5l8.4,5.3l10.9-16.9l7.8,4.9L1811.8,972.4z"/>
					</g>
				</g>
				<g>
					<g>
						<path class="st0" d="M1864.5,999.1l11.1,0.7l2.2-31.2l-13-0.9c-5.2-0.3-10.4-0.7-15.6-1l-2.6-0.1l-1.3,18.5l-19-1.4l-0.6,8.2
							l0,0l-1.6,23.4l31.2,2.2l0.7-11.1l-20.1-1.4l0.6-7.7l0.1-0.5l20.1,1.4l0.1-0.5l0,0l1.4-19l7.8,0.6L1864.5,999.1z
							 M1855.8,996.5L1855.8,996.5l-0.1,0.5l-20.1-1.4v0.3l0,0l-0.7,10l20.1,1.4l-0.6,9.2l-29.2-2.1l1.5-21.4l0,0l0.6-8.2l19,1.4
							l1.3-18.5l1.6,0.1c5.2,0.3,10.4,0.7,15.6,1l12.1,0.8l-2.1,29.2l-9.2-0.6l1.5-20.1l-9.9-0.7L1855.8,996.5z"/>
					</g>
				</g>
				<g>
					<g>
						<path class="st0" d="M1915.3,956.5l-3.5,5.4c0.3,0.2,0.6,0.4,0.9,0.5l2.9-4.5l8.4,5.4l0.3-0.9L1915.3,956.5z M1912.1,942.5
							l-8.9,13.9c0.3,0.2,0.5,0.4,0.9,0.6l8.4-13.1l14.9,9.5l0.3-0.9L1912.1,942.5z"/>
					</g>
				</g>
			</g>
		</g>
	</g>
</g>
<g>
	<g>
		<path class="st3" d="M382.4,524.1v-29.3c0-4.7,3.9-8.7,8.7-8.7h7.1c2.3,0,4.1,1.8,4.1,4.1c0,2.3-1.8,4.1-4.1,4.1H391
			c-0.2,0-0.4,0.2-0.4,0.4v29.3c0,0.2,0.2,0.4,0.4,0.4h21.8c0.2,0,0.4-0.2,0.4-0.4v-29.3c0-4.7,3.9-8.7,8.7-8.7h21.8
			c4.7,0,8.7,3.9,8.7,8.7v29.3c0,4.7-3.9,8.7-8.7,8.7h-7.1c-2.3,0-4.1-1.8-4.1-4.1s1.8-4.1,4.1-4.1h7.1c0.2,0,0.4-0.2,0.4-0.4v-29.3
			c0-0.2-0.2-0.4-0.4-0.4h-21.8c-0.2,0-0.4,0.2-0.4,0.4v29.3c0,4.7-3.9,8.7-8.7,8.7H391C386.3,532.7,382.4,528.8,382.4,524.1
			L382.4,524.1z"/>
		<path class="st3" d="M376.1,509.4c0-2.3,1.8-4.1,4.1-4.1h74.2c2.3,0,4.1,1.8,4.1,4.1c0,2.3-1.8,4.1-4.1,4.1h-74.2
			C377.9,513.5,376.1,511.7,376.1,509.4L376.1,509.4z"/>
		<path class="st4" d="M381.8,588.6c0-17.4,16.9-31.6,37.7-31.6s37.7,14.2,37.7,31.6c0,7-3.1,14.3-8.7,20.1
			c-1.6,1.7-4.2,1.7-5.9,0.2c-1.7-1.6-1.7-4.2-0.2-5.9c4-4.2,6.4-9.6,6.4-14.4c0-12.8-13.2-23.3-29.4-23.3S390,575.7,390,588.6
			c0,5.6,2.1,10.3,6.2,14.3c1.7,1.6,1.7,4.2,0.1,5.8c-1.6,1.6-4.2,1.7-5.9,0.1C384.7,603.3,381.8,596.4,381.8,588.6L381.8,588.6z"/>
		<path class="st4" d="M427.3,582v-29.6c0-2.3,1.8-4.1,4.1-4.1s4.1,1.8,4.1,4.1V582c0,2.3-1.8,4.1-4.1,4.1S427.3,584.3,427.3,582
			L427.3,582z"/>
		<path class="st4" d="M403.3,582v-29.6c0-2.3,1.8-4.1,4.1-4.1c2.3,0,4.1,1.8,4.1,4.1V582c0,2.3-1.8,4.1-4.1,4.1
			C405.1,586.2,403.3,584.3,403.3,582L403.3,582z"/>
	</g>
	<g>
		<g>
			<defs>
				<path id="SVGID_1_" d="M453.6,430.2c-2.2-0.6-4.4,0.7-5.1,2.9s0.7,4.4,2.9,5.1C501.3,451.4,536,496.6,536,548
					c0,53.1-37.6,99.9-89.5,111.2c-1.9,0.5-3.3,2.1-3.3,4.1c0,0.3,0,0.6,0.1,0.9c0.5,2.2,2.7,3.7,4.9,3.1
					c55.6-12.2,96-62.3,96-119.3C544.3,492.9,507,444.4,453.6,430.2"/>
			</defs>
			<clipPath id="SVGID_2_">
				<use xlink:href="#SVGID_1_"  style="overflow:visible;"/>
			</clipPath>
			
				<linearGradient id="SVGID_3_" gradientUnits="userSpaceOnUse" x1="425.4438" y1="174.2553" x2="427.7855" y2="174.2553" gradientTransform="matrix(-3.8783 193.361 -193.361 -3.8783 35842.4648 -81260.1875)">
				<stop  offset="0" style="stop-color:#243228"/>
				<stop  offset="0.2235" style="stop-color:#243228"/>
				<stop  offset="0.4017" style="stop-color:#3E332A"/>
				<stop  offset="0.7724" style="stop-color:#70352E"/>
				<stop  offset="0.9556" style="stop-color:#833630"/>
				<stop  offset="1" style="stop-color:#833630"/>
			</linearGradient>
			<polygon class="st5" points="549.1,429.7 544.3,670 438.6,667.8 443.4,427.6 			"/>
		</g>
	</g>
	<g>
		<g>
			<defs>
				<path id="SVGID_4_" d="M468.6,669.4l-15.5-7.8l7.7-15.8c1-2.1,0.2-4.5-1.9-5.5c-2.1-1-4.5-0.2-5.5,1.9l-9.6,19.5
					c-0.3,0.6-0.5,1.2-0.5,1.8c0,1.5,0.8,3,2.3,3.7l19.2,9.7c2.1,1,4.5,0.2,5.6-1.8c0.3-0.6,0.5-1.2,0.5-1.8
					C470.9,671.5,470,670,468.6,669.4"/>
			</defs>
			<clipPath id="SVGID_5_">
				<use xlink:href="#SVGID_4_"  style="overflow:visible;"/>
			</clipPath>
			
				<linearGradient id="SVGID_6_" gradientUnits="userSpaceOnUse" x1="425.4438" y1="174.3556" x2="427.7855" y2="174.3556" gradientTransform="matrix(-3.8783 193.361 -193.361 -3.8783 35827.3086 -81260.4922)">
				<stop  offset="0" style="stop-color:#243228"/>
				<stop  offset="0.2235" style="stop-color:#243228"/>
				<stop  offset="0.4017" style="stop-color:#3E332A"/>
				<stop  offset="0.7724" style="stop-color:#70352E"/>
				<stop  offset="0.9556" style="stop-color:#833630"/>
				<stop  offset="1" style="stop-color:#833630"/>
			</linearGradient>
			<polygon class="st6" points="471.6,639.2 470.9,678.3 442.6,677.7 443.4,638.6 			"/>
		</g>
	</g>
	<g>
		<g>
			<defs>
				<path id="SVGID_7_" d="M391.3,431.9c-0.5-2.2-2.7-3.7-4.9-3.1c-55.6,12.2-96,62.3-96,119.3c0,55.2,37.3,103.7,90.7,117.9
					c2.2,0.6,4.5-0.7,5.1-2.9c0.6-2.2-0.7-4.4-2.9-5.1c-49.8-13.2-84.6-58.4-84.6-109.9c0-53.1,37.6-99.9,89.5-111.2
					c1.9-0.5,3.2-2.1,3.2-4.1C391.4,432.4,391.4,432.1,391.3,431.9"/>
			</defs>
			<clipPath id="SVGID_8_">
				<use xlink:href="#SVGID_7_"  style="overflow:visible;"/>
			</clipPath>
			
				<linearGradient id="SVGID_9_" gradientUnits="userSpaceOnUse" x1="425.4438" y1="174.7037" x2="427.7855" y2="174.7037" gradientTransform="matrix(-3.8783 193.361 -193.361 -3.8783 35776.168 -81261.5156)">
				<stop  offset="0" style="stop-color:#243228"/>
				<stop  offset="0.2235" style="stop-color:#243228"/>
				<stop  offset="0.4017" style="stop-color:#3E332A"/>
				<stop  offset="0.7724" style="stop-color:#70352E"/>
				<stop  offset="0.9556" style="stop-color:#833630"/>
				<stop  offset="1" style="stop-color:#833630"/>
			</linearGradient>
			<polygon class="st7" points="396.1,428.3 391.3,668.5 285.6,666.4 290.4,426.1 			"/>
		</g>
	</g>
	<g>
		<g>
			<defs>
				<path id="SVGID_10_" d="M389.1,429l-19.2-9.7c-2.1-1-4.5-0.2-5.6,1.8c-0.3,0.6-0.5,1.2-0.5,1.8c0,1.5,0.8,3,2.3,3.7l15.5,7.8
					l-7.7,15.8c-1,2.1-0.2,4.5,1.9,5.5c2.1,1,4.5,0.2,5.5-1.9l9.6-19.5c0.3-0.6,0.4-1.2,0.4-1.8C391.4,431.2,390.5,429.7,389.1,429"
					/>
			</defs>
			<clipPath id="SVGID_11_">
				<use xlink:href="#SVGID_10_"  style="overflow:visible;"/>
			</clipPath>
			
				<linearGradient id="SVGID_12_" gradientUnits="userSpaceOnUse" x1="425.4438" y1="174.6034" x2="427.7855" y2="174.6034" gradientTransform="matrix(-3.8783 193.361 -193.361 -3.8783 35791.3242 -81261.2109)">
				<stop  offset="0" style="stop-color:#243228"/>
				<stop  offset="0.2235" style="stop-color:#243228"/>
				<stop  offset="0.4017" style="stop-color:#3E332A"/>
				<stop  offset="0.7724" style="stop-color:#70352E"/>
				<stop  offset="0.9556" style="stop-color:#833630"/>
				<stop  offset="1" style="stop-color:#833630"/>
			</linearGradient>
			<polygon class="st8" points="392.1,418.4 391.4,457.4 363.1,456.9 363.9,417.8 			"/>
		</g>
	</g>
	<g>
		<g>
			<defs>
				<path id="SVGID_13_" d="M417.4,463.3c46.7,0,84.8,38,84.8,84.8s-38,84.8-84.8,84.8c-46.7,0-84.8-38-84.8-84.8
					S370.6,463.3,417.4,463.3 M417.4,455c-51.3,0-93.1,41.7-93.1,93.1s41.7,93.1,93.1,93.1s93.1-41.7,93.1-93.1S468.6,455,417.4,455
					"/>
			</defs>
			<clipPath id="SVGID_14_">
				<use xlink:href="#SVGID_13_"  style="overflow:visible;"/>
			</clipPath>
			
				<linearGradient id="SVGID_15_" gradientUnits="userSpaceOnUse" x1="425.4438" y1="174.4795" x2="427.7855" y2="174.4795" gradientTransform="matrix(-3.8783 193.361 -193.361 -3.8783 35809.3242 -81260.8516)">
				<stop  offset="0" style="stop-color:#243228"/>
				<stop  offset="0.2235" style="stop-color:#243228"/>
				<stop  offset="0.4017" style="stop-color:#3E332A"/>
				<stop  offset="0.7724" style="stop-color:#70352E"/>
				<stop  offset="0.9556" style="stop-color:#833630"/>
				<stop  offset="1" style="stop-color:#833630"/>
			</linearGradient>
			<polygon class="st9" points="514.1,455.1 510.3,644.8 320.6,641 324.4,451.3 			"/>
		</g>
	</g>
	<g>
		<g>
			<defs>
				<path id="SVGID_16_" d="M250.5,606.2L118.7,738.1l-39.8-39.8l-18.3-18.3l125.4-125.5l-0.1-0.1l3.4-3.4l-132-132l2.8-2.8l0,0
					l58.4-58.4l122.3,122.3l9.7,9.7l66.6-66.6L118.5,224.6l-78,78l-69,69l0.2,0.2l0,0l-51.3,51.3l0,0l-2.9,2.9L42.3,551L-13,606.3
					l-0.1-0.1L-79.7,673l0,0l0,0l13.9,13.8C-8.2,744.5,49.4,802.2,107.1,860l11.4,11.4l198.6-198.6L250.5,606.2z"/>
			</defs>
			<clipPath id="SVGID_17_">
				<use xlink:href="#SVGID_16_"  style="overflow:visible;"/>
			</clipPath>
			
				<linearGradient id="SVGID_18_" gradientUnits="userSpaceOnUse" x1="425.35" y1="173.7606" x2="427.6916" y2="173.7606" gradientTransform="matrix(1.691345e-14 276.2175 -276.2175 1.691345e-14 48195.5703 -117264.5)">
				<stop  offset="0" style="stop-color:#2E3F33"/>
				<stop  offset="0.2235" style="stop-color:#2E3F33"/>
				<stop  offset="0.4755" style="stop-color:#593F36"/>
				<stop  offset="0.7967" style="stop-color:#8B403A"/>
				<stop  offset="0.9556" style="stop-color:#9E403B"/>
				<stop  offset="1" style="stop-color:#9E403B"/>
			</linearGradient>
			<rect y="224.6" class="st10" width="399.7" height="646.8"/>
		</g>
	</g>
</g>
</svg>
